{"glyphs":{"0":{"ha":884,"x_min":92,"x_max":791,"o":"m 441 922 q 282 818 336 922 q 229 505 229 714 q 282 193 229 297 q 441 89 336 89 q 601 193 548 89 q 654 505 654 297 q 601 818 654 714 q 441 922 548 922 m 441 1031 q 702 896 612 1031 q 791 505 791 762 q 702 115 791 250 q 441 -20 612 -20 q 181 115 271 -20 q 92 505 92 250 q 181 896 92 762 q 441 1031 271 1031 z "},"1":{"ha":884,"x_min":153,"x_max":755,"o":"m 172 115 l 396 115 l 396 888 l 153 839 l 153 964 l 395 1013 l 532 1013 l 532 115 l 755 115 l 755 0 l 172 0 l 172 115 z "},"2":{"ha":884,"x_min":102,"x_max":745,"o":"m 267 115 l 745 115 l 745 0 l 102 0 l 102 115 q 314 332 180 196 q 484 507 449 468 q 575 632 549 581 q 602 733 602 684 q 545 865 602 814 q 397 916 488 916 q 261 893 333 916 q 109 825 190 871 l 109 964 q 263 1014 191 997 q 395 1031 335 1031 q 646 952 552 1031 q 739 742 739 873 q 716 624 739 680 q 631 492 692 568 q 523 378 614 472 q 267 115 432 284 z "},"3":{"ha":884,"x_min":106,"x_max":772,"o":"m 564 546 q 717 458 662 525 q 772 294 772 392 q 669 62 772 144 q 376 -20 566 -20 q 245 -7 313 -20 q 106 31 178 5 l 106 163 q 231 113 163 130 q 372 96 298 96 q 569 146 501 96 q 636 294 636 197 q 573 434 636 384 q 399 485 511 485 l 281 485 l 281 597 l 404 597 q 559 638 505 597 q 612 754 612 678 q 557 874 612 832 q 399 916 502 916 q 278 903 342 916 q 136 865 214 891 l 136 987 q 282 1020 214 1009 q 411 1031 351 1031 q 658 960 567 1031 q 749 768 749 889 q 701 626 749 684 q 564 546 652 568 z "},"4":{"ha":884,"x_min":68,"x_max":806,"o":"m 525 893 l 179 353 l 525 353 l 525 893 m 489 1013 l 661 1013 l 661 353 l 806 353 l 806 239 l 661 239 l 661 0 l 525 0 l 525 239 l 68 239 l 68 371 l 489 1013 z "},"5":{"ha":884,"x_min":107,"x_max":762,"o":"m 150 1013 l 688 1013 l 688 897 l 275 897 l 275 649 q 335 664 305 659 q 395 669 365 669 q 663 576 564 669 q 762 325 762 484 q 661 71 762 161 q 374 -20 559 -20 q 244 -9 310 -20 q 107 24 178 2 l 107 161 q 233 112 168 128 q 371 96 298 96 q 557 157 488 96 q 625 325 625 219 q 557 492 625 431 q 371 554 488 554 q 261 542 316 554 q 150 504 207 530 l 150 1013 z "},"6":{"ha":884,"x_min":97,"x_max":796,"o":"m 458 561 q 312 498 366 561 q 258 325 258 435 q 312 152 258 216 q 458 89 366 89 q 605 152 551 89 q 659 325 659 216 q 605 498 659 435 q 458 561 551 561 m 730 990 l 730 865 q 626 903 679 890 q 522 916 574 916 q 315 824 387 916 q 233 547 243 732 q 334 638 273 606 q 467 669 394 669 q 708 577 619 669 q 796 325 796 484 q 704 75 796 169 q 458 -20 612 -20 q 190 115 283 -20 q 97 505 97 250 q 211 888 97 745 q 517 1031 325 1031 q 621 1021 568 1031 q 730 990 673 1010 z "},"7":{"ha":884,"x_min":114,"x_max":765,"o":"m 114 1013 l 765 1013 l 765 954 l 397 0 l 254 0 l 600 897 l 114 897 l 114 1013 z "},"8":{"ha":884,"x_min":94,"x_max":789,"o":"m 441 481 q 288 429 344 481 q 232 285 232 376 q 288 141 232 193 q 441 89 344 89 q 595 141 539 89 q 652 285 652 194 q 596 429 652 376 q 441 481 540 481 m 304 539 q 167 621 216 561 q 118 768 118 682 q 204 960 118 890 q 441 1031 291 1031 q 679 960 593 1031 q 765 768 765 890 q 716 621 765 682 q 579 539 667 561 q 733 449 678 516 q 789 285 789 382 q 699 59 789 138 q 441 -20 609 -20 q 184 59 274 -20 q 94 285 94 138 q 150 449 94 382 q 304 539 205 516 m 254 755 q 303 633 254 677 q 441 589 353 589 q 579 633 530 589 q 629 755 629 677 q 579 878 629 834 q 441 922 530 922 q 303 878 353 922 q 254 755 254 834 z "},"9":{"ha":884,"x_min":87,"x_max":786,"o":"m 153 21 l 153 146 q 257 109 204 121 q 361 96 310 96 q 568 187 496 96 q 650 464 640 278 q 550 374 610 406 q 416 343 490 343 q 176 435 264 343 q 87 686 87 527 q 180 937 87 842 q 425 1031 272 1031 q 693 896 601 1031 q 786 505 786 762 q 672 123 786 266 q 367 -20 559 -20 q 262 -9 315 -20 q 153 21 210 1 m 425 450 q 571 513 517 450 q 625 686 625 576 q 571 859 625 795 q 425 922 517 922 q 279 859 333 922 q 225 686 225 795 q 279 513 225 576 q 425 450 333 450 z "},"\u0000":{"ha":833,"x_min":69,"x_max":764,"o":"m 69 -245 l 69 979 l 764 979 l 764 -245 l 69 -245 m 147 -168 l 686 -168 l 686 901 l 147 901 l 147 -168 z "}," ":{"ha":441,"x_min":0,"x_max":0,"o":""},"!":{"ha":557,"x_min":210,"x_max":347,"o":"m 210 172 l 347 172 l 347 0 l 210 0 l 210 172 m 210 1013 l 347 1013 l 347 568 l 334 326 l 224 326 l 210 568 l 210 1013 z "},"\"":{"ha":639,"x_min":134,"x_max":505,"o":"m 249 1013 l 249 636 l 134 636 l 134 1013 l 249 1013 m 505 1013 l 505 636 l 390 636 l 390 1013 l 505 1013 z "},"#":{"ha":1164,"x_min":107,"x_max":1057,"o":"m 710 611 l 513 611 l 456 385 l 654 385 l 710 611 m 608 997 l 538 715 l 736 715 l 807 997 l 916 997 l 846 715 l 1057 715 l 1057 611 l 819 611 l 764 385 l 979 385 l 979 281 l 737 281 l 667 0 l 558 0 l 628 281 l 429 281 l 359 0 l 250 0 l 321 281 l 107 281 l 107 385 l 346 385 l 403 611 l 184 611 l 184 715 l 429 715 l 498 997 l 608 997 z "},"$":{"ha":884,"x_min":115,"x_max":768,"o":"m 469 -204 l 401 -204 l 401 0 q 258 17 330 1 q 115 62 187 32 l 115 184 q 255 119 184 141 q 401 96 326 97 l 401 406 q 183 488 252 430 q 115 648 115 547 q 189 823 115 759 q 401 896 263 886 l 401 1055 l 469 1055 l 469 898 q 591 885 532 895 q 707 856 650 874 l 707 737 q 591 781 650 766 q 469 800 532 797 l 469 510 q 696 425 623 486 q 768 258 768 364 q 691 78 768 144 q 469 1 614 12 l 469 -204 m 401 522 l 401 800 q 281 755 323 791 q 240 660 240 720 q 278 569 240 602 q 401 522 317 536 m 469 392 l 469 98 q 599 147 555 110 q 643 245 643 184 q 601 340 643 305 q 469 392 559 376 z "},"%":{"ha":1320,"x_min":77,"x_max":1243,"o":"m 1010 446 q 917 395 951 446 q 884 256 884 345 q 917 117 884 168 q 1010 66 951 66 q 1101 117 1067 66 q 1135 256 1135 168 q 1101 395 1135 345 q 1010 446 1067 446 m 1010 532 q 1180 457 1117 532 q 1243 256 1243 382 q 1180 55 1243 129 q 1010 -20 1116 -20 q 838 55 901 -20 q 775 256 775 129 q 839 457 775 383 q 1010 532 902 532 m 310 945 q 218 894 252 945 q 184 755 184 844 q 218 616 184 666 q 310 566 251 566 q 402 616 369 566 q 436 755 436 666 q 402 894 436 843 q 310 945 368 945 m 922 1031 l 1031 1031 l 397 -20 l 289 -20 l 922 1031 m 310 1031 q 481 957 417 1031 q 545 755 545 882 q 481 553 545 627 q 310 479 418 479 q 139 554 202 479 q 77 755 77 628 q 140 956 77 882 q 310 1031 203 1031 z "},"&":{"ha":1083,"x_min":87,"x_max":1040,"o":"m 338 545 q 247 435 276 490 q 218 321 218 380 q 290 156 218 222 q 471 90 362 90 q 591 112 535 90 q 697 176 648 133 l 338 545 m 433 621 l 778 268 q 840 397 818 328 q 867 543 863 466 l 993 543 q 949 366 985 454 q 851 193 914 279 l 1040 0 l 869 0 l 772 100 q 625 10 702 39 q 458 -20 547 -20 q 191 74 295 -20 q 87 313 87 167 q 133 476 87 399 q 269 619 178 552 q 220 704 237 662 q 203 787 203 747 q 278 964 203 897 q 478 1031 353 1031 q 590 1019 534 1031 q 704 982 646 1006 l 704 859 q 591 907 645 890 q 492 924 538 924 q 376 886 420 924 q 332 789 332 848 q 352 719 332 754 q 433 621 372 684 z "},"'":{"ha":382,"x_min":134,"x_max":249,"o":"m 249 1013 l 249 636 l 134 636 l 134 1013 l 249 1013 z "},"(":{"ha":542,"x_min":119,"x_max":431,"o":"m 431 1054 q 296 745 340 898 q 252 436 252 593 q 296 126 252 279 q 431 -183 340 -28 l 322 -183 q 170 130 220 -24 q 119 436 119 284 q 170 741 119 587 q 322 1054 220 894 l 431 1054 z "},")":{"ha":542,"x_min":111,"x_max":422,"o":"m 111 1054 l 220 1054 q 372 741 321 894 q 422 436 422 587 q 372 130 422 284 q 220 -183 321 -24 l 111 -183 q 246 126 201 -28 q 290 436 290 279 q 246 745 290 593 q 111 1054 201 898 z "},"*":{"ha":694,"x_min":41,"x_max":653,"o":"m 653 846 l 410 714 l 653 582 l 614 515 l 386 653 l 386 397 l 309 397 l 309 653 l 81 515 l 41 582 l 285 714 l 41 846 l 81 913 l 309 775 l 309 1031 l 386 1031 l 386 775 l 614 913 l 653 846 z "},"+":{"ha":1164,"x_min":147,"x_max":1017,"o":"m 639 871 l 639 493 l 1017 493 l 1017 378 l 639 378 l 639 0 l 525 0 l 525 378 l 147 378 l 147 493 l 525 493 l 525 871 l 639 871 z "},",":{"ha":441,"x_min":107,"x_max":306,"o":"m 163 172 l 306 172 l 306 56 l 195 -161 l 107 -161 l 163 56 l 163 172 z "},"-":{"ha":501,"x_min":68,"x_max":433,"o":"m 68 436 l 433 436 l 433 325 l 68 325 l 68 436 z "},".":{"ha":441,"x_min":149,"x_max":292,"o":"m 149 172 l 292 172 l 292 0 l 149 0 l 149 172 z "},"/":{"ha":468,"x_min":0,"x_max":468,"o":"m 353 1013 l 468 1013 l 115 -129 l 0 -129 l 353 1013 z "},":":{"ha":468,"x_min":163,"x_max":306,"o":"m 163 172 l 306 172 l 306 0 l 163 0 l 163 172 m 163 718 l 306 718 l 306 546 l 163 546 l 163 718 z "},";":{"ha":468,"x_min":107,"x_max":306,"o":"m 163 718 l 306 718 l 306 546 l 163 546 l 163 718 m 163 172 l 306 172 l 306 56 l 195 -161 l 107 -161 l 163 56 l 163 172 z "},"<":{"ha":1164,"x_min":147,"x_max":1017,"o":"m 1017 684 l 317 435 l 1017 187 l 1017 64 l 147 379 l 147 492 l 1017 807 l 1017 684 z "},"=":{"ha":1164,"x_min":147,"x_max":1017,"o":"m 147 631 l 1017 631 l 1017 517 l 147 517 l 147 631 m 147 354 l 1017 354 l 1017 239 l 147 239 l 147 354 z "},">":{"ha":1164,"x_min":147,"x_max":1017,"o":"m 147 684 l 147 807 l 1017 492 l 1017 379 l 147 64 l 147 187 l 846 435 l 147 684 z "},"?":{"ha":737,"x_min":100,"x_max":640,"o":"m 265 172 l 403 172 l 403 0 l 265 0 l 265 172 m 399 272 l 269 272 l 269 376 q 288 489 269 445 q 368 591 307 533 l 429 652 q 485 720 468 688 q 503 785 503 751 q 458 882 503 845 q 340 920 414 920 q 226 896 287 920 q 100 827 165 872 l 100 954 q 229 1012 163 993 q 364 1031 294 1031 q 565 965 489 1031 q 640 791 640 899 q 616 693 640 740 q 530 589 591 647 l 471 530 q 426 480 439 498 q 407 446 412 463 q 401 411 403 431 q 399 355 399 391 l 399 272 z "},"@":{"ha":1389,"x_min":92,"x_max":1292,"o":"m 517 364 q 565 212 517 267 q 697 157 613 157 q 828 212 781 157 q 876 364 876 268 q 827 515 876 459 q 696 571 779 571 q 565 515 614 571 q 517 364 517 460 m 886 161 q 793 84 846 109 q 671 60 741 60 q 481 144 554 60 q 408 364 408 229 q 481 585 408 500 q 671 669 555 669 q 793 644 741 669 q 886 567 846 618 l 886 656 l 983 656 l 983 157 q 1138 247 1082 172 q 1194 443 1194 323 q 1173 579 1194 515 q 1108 697 1152 643 q 936 833 1038 786 q 715 880 835 880 q 555 858 632 880 q 414 793 479 836 q 247 611 307 724 q 187 368 187 499 q 226 166 187 260 q 339 0 265 72 q 504 -107 410 -71 q 704 -144 597 -144 q 876 -115 791 -144 q 1031 -31 960 -85 l 1092 -106 q 907 -207 1007 -172 q 704 -241 807 -241 q 467 -197 578 -241 q 269 -68 356 -153 q 137 129 182 17 q 92 368 92 240 q 138 604 92 492 q 269 800 184 715 q 471 932 357 886 q 714 978 586 978 q 981 919 858 978 q 1187 751 1104 860 q 1265 607 1238 685 q 1292 446 1292 529 q 1184 164 1292 267 q 886 57 1076 61 l 886 161 z "},"A":{"ha":950,"x_min":11,"x_max":939,"o":"m 475 878 l 289 374 l 661 374 l 475 878 m 397 1013 l 553 1013 l 939 0 l 796 0 l 704 260 l 248 260 l 155 0 l 11 0 l 397 1013 z "},"B":{"ha":953,"x_min":136,"x_max":854,"o":"m 273 484 l 273 113 l 493 113 q 657 158 604 113 q 710 298 710 204 q 657 438 710 393 q 493 484 604 484 l 273 484 m 273 900 l 273 595 l 476 595 q 626 632 576 595 q 675 747 675 670 q 626 862 675 824 q 476 900 576 900 l 273 900 m 136 1013 l 486 1013 q 728 947 643 1013 q 812 762 812 882 q 769 614 812 669 q 642 546 726 559 q 799 455 743 524 q 854 283 854 387 q 762 74 854 148 q 500 0 670 0 l 136 0 l 136 1013 z "},"C":{"ha":970,"x_min":78,"x_max":895,"o":"m 895 935 l 895 790 q 747 886 825 854 q 581 918 669 918 q 315 812 407 918 q 222 505 222 706 q 315 199 222 305 q 581 93 407 93 q 747 125 669 93 q 895 221 825 157 l 895 78 q 742 5 823 29 q 572 -20 662 -20 q 210 121 342 -20 q 78 505 78 262 q 210 890 78 749 q 572 1031 342 1031 q 744 1007 663 1031 q 895 935 824 983 z "},"D":{"ha":1069,"x_min":136,"x_max":987,"o":"m 273 900 l 273 113 l 439 113 q 746 208 648 113 q 843 507 843 302 q 746 805 843 711 q 439 900 648 900 l 273 900 m 136 1013 l 418 1013 q 850 890 712 1013 q 987 507 987 768 q 849 123 987 245 q 418 0 711 0 l 136 0 l 136 1013 z "},"E":{"ha":878,"x_min":136,"x_max":789,"o":"m 136 1013 l 777 1013 l 777 897 l 273 897 l 273 597 l 755 597 l 755 482 l 273 482 l 273 115 l 789 115 l 789 0 l 136 0 l 136 1013 z "},"F":{"ha":799,"x_min":136,"x_max":718,"o":"m 136 1013 l 718 1013 l 718 897 l 273 897 l 273 599 l 675 599 l 675 484 l 273 484 l 273 0 l 136 0 l 136 1013 z "},"G":{"ha":1076,"x_min":78,"x_max":962,"o":"m 827 144 l 827 416 l 603 416 l 603 529 l 962 529 l 962 94 q 787 9 883 38 q 583 -20 692 -20 q 212 119 346 -20 q 78 505 78 258 q 212 892 78 753 q 583 1031 346 1031 q 771 1006 682 1031 q 936 935 861 982 l 936 789 q 774 886 860 853 q 595 918 689 918 q 316 814 409 918 q 222 505 222 711 q 316 197 222 300 q 595 93 409 93 q 724 105 667 93 q 827 144 781 118 z "},"H":{"ha":1044,"x_min":136,"x_max":908,"o":"m 136 1013 l 273 1013 l 273 597 l 771 597 l 771 1013 l 908 1013 l 908 0 l 771 0 l 771 482 l 273 482 l 273 0 l 136 0 l 136 1013 z "},"I":{"ha":410,"x_min":136,"x_max":273,"o":"m 136 1013 l 273 1013 l 273 0 l 136 0 l 136 1013 z "},"J":{"ha":410,"x_min":-72,"x_max":273,"o":"m 136 1013 l 273 1013 l 273 71 q 204 -195 273 -113 q -20 -278 134 -278 l -72 -278 l -72 -163 l -29 -163 q 99 -112 62 -163 q 136 71 136 -61 l 136 1013 z "},"K":{"ha":911,"x_min":136,"x_max":940,"o":"m 136 1013 l 273 1013 l 273 585 l 728 1013 l 904 1013 l 401 541 l 940 0 l 760 0 l 273 488 l 273 0 l 136 0 l 136 1013 z "},"L":{"ha":774,"x_min":136,"x_max":766,"o":"m 136 1013 l 273 1013 l 273 115 l 766 115 l 766 0 l 136 0 l 136 1013 z "},"M":{"ha":1198,"x_min":136,"x_max":1063,"o":"m 136 1013 l 340 1013 l 599 323 l 859 1013 l 1063 1013 l 1063 0 l 929 0 l 929 889 l 668 195 l 530 195 l 269 889 l 269 0 l 136 0 l 136 1013 z "},"N":{"ha":1039,"x_min":136,"x_max":903,"o":"m 136 1013 l 321 1013 l 770 165 l 770 1013 l 903 1013 l 903 0 l 718 0 l 269 847 l 269 0 l 136 0 l 136 1013 z "},"O":{"ha":1093,"x_min":78,"x_max":1015,"o":"m 547 920 q 310 808 398 920 q 222 505 222 697 q 310 203 222 314 q 547 92 398 92 q 784 203 696 92 q 871 505 871 314 q 784 808 871 697 q 547 920 696 920 m 547 1031 q 888 888 760 1031 q 1015 505 1015 745 q 888 123 1015 266 q 547 -20 760 -20 q 206 123 334 -20 q 78 505 78 265 q 206 888 78 745 q 547 1031 334 1031 z "},"P":{"ha":838,"x_min":136,"x_max":790,"o":"m 273 900 l 273 519 l 446 519 q 593 569 541 519 q 646 710 646 618 q 593 850 646 801 q 446 900 541 900 l 273 900 m 136 1013 l 446 1013 q 703 936 616 1013 q 790 710 790 859 q 703 484 790 560 q 446 407 616 407 l 273 407 l 273 0 l 136 0 l 136 1013 z "},"Q":{"ha":1093,"x_min":78,"x_max":1015,"o":"m 547 920 q 310 808 398 920 q 222 505 222 697 q 310 203 222 314 q 547 92 398 92 q 784 203 696 92 q 871 505 871 314 q 784 808 871 697 q 547 920 696 920 m 739 18 l 920 -179 l 754 -179 l 604 -17 q 570 -19 582 -18 q 547 -20 558 -20 q 206 123 334 -20 q 78 505 78 266 q 206 888 78 745 q 547 1031 334 1031 q 888 888 760 1031 q 1015 505 1015 745 q 944 203 1015 329 q 739 18 873 78 z "},"R":{"ha":965,"x_min":136,"x_max":925,"o":"m 616 475 q 702 411 661 460 q 786 277 744 362 l 925 0 l 778 0 l 648 260 q 551 395 598 361 q 422 428 504 428 l 273 428 l 273 0 l 136 0 l 136 1013 l 446 1013 q 705 940 619 1013 q 790 721 790 867 q 746 562 790 625 q 616 475 701 499 m 273 900 l 273 541 l 446 541 q 595 586 545 541 q 646 721 646 632 q 595 855 646 810 q 446 900 545 900 l 273 900 z "},"S":{"ha":882,"x_min":92,"x_max":804,"o":"m 743 979 l 743 846 q 596 901 665 883 q 463 920 527 920 q 290 876 351 920 q 229 753 229 833 q 270 651 229 686 q 422 596 310 617 l 505 579 q 731 476 659 550 q 804 279 804 403 q 706 56 804 132 q 416 -20 607 -20 q 263 -3 345 -20 q 96 45 182 13 l 96 186 q 259 115 179 139 q 416 92 339 92 q 597 138 534 92 q 661 269 661 184 q 615 386 661 344 q 465 449 570 428 l 382 465 q 160 561 229 496 q 92 742 92 626 q 186 954 92 876 q 447 1031 281 1031 q 592 1018 518 1031 q 743 979 666 1005 z "},"T":{"ha":848,"x_min":-4,"x_max":852,"o":"m -4 1013 l 852 1013 l 852 897 l 493 897 l 493 0 l 355 0 l 355 897 l -4 897 l -4 1013 z "},"U":{"ha":1017,"x_min":121,"x_max":896,"o":"m 121 1013 l 258 1013 l 258 397 q 317 163 258 235 q 509 92 376 92 q 699 163 640 92 q 758 397 758 235 l 758 1013 l 896 1013 l 896 380 q 798 81 896 182 q 509 -20 700 -20 q 219 81 317 -20 q 121 380 121 182 l 121 1013 z "},"V":{"ha":950,"x_min":11,"x_max":939,"o":"m 397 0 l 11 1013 l 154 1013 l 475 160 l 796 1013 l 939 1013 l 553 0 l 397 0 z "},"W":{"ha":1373,"x_min":46,"x_max":1328,"o":"m 46 1013 l 184 1013 l 397 157 l 610 1013 l 764 1013 l 977 157 l 1189 1013 l 1328 1013 l 1074 0 l 901 0 l 688 879 l 472 0 l 300 0 l 46 1013 z "},"X":{"ha":951,"x_min":41,"x_max":908,"o":"m 87 1013 l 235 1013 l 486 636 l 739 1013 l 886 1013 l 561 526 l 908 0 l 761 0 l 476 431 l 189 0 l 41 0 l 403 541 l 87 1013 z "},"Y":{"ha":848,"x_min":-3,"x_max":851,"o":"m -3 1013 l 144 1013 l 425 596 l 704 1013 l 851 1013 l 493 482 l 493 0 l 355 0 l 355 482 l -3 1013 z "},"Z":{"ha":951,"x_min":62,"x_max":889,"o":"m 78 1013 l 873 1013 l 873 908 l 233 115 l 889 115 l 889 0 l 62 0 l 62 104 l 703 897 l 78 897 l 78 1013 z "},"[":{"ha":542,"x_min":119,"x_max":407,"o":"m 119 1055 l 407 1055 l 407 958 l 244 958 l 244 -86 l 407 -86 l 407 -183 l 119 -183 l 119 1055 z "},"\\":{"ha":468,"x_min":0,"x_max":468,"o":"m 115 1013 l 468 -129 l 353 -129 l 0 1013 l 115 1013 z "},"]":{"ha":542,"x_min":135,"x_max":422,"o":"m 422 1055 l 422 -183 l 135 -183 l 135 -86 l 297 -86 l 297 958 l 135 958 l 135 1055 l 422 1055 z "},"^":{"ha":1164,"x_min":147,"x_max":1017,"o":"m 648 1013 l 1017 635 l 880 635 l 582 903 l 283 635 l 147 635 l 515 1013 l 648 1013 z "},"_":{"ha":694,"x_min":-14,"x_max":708,"o":"m 708 -231 l 708 -328 l -14 -328 l -14 -231 l 708 -231 z "},"`":{"ha":694,"x_min":115,"x_max":440,"o":"m 249 1111 l 440 857 l 336 857 l 115 1111 l 249 1111 z "},"a":{"ha":851,"x_min":83,"x_max":725,"o":"m 476 382 q 267 347 325 382 q 208 229 208 313 q 252 124 208 163 q 371 85 296 85 q 537 158 475 85 q 600 354 600 232 l 600 382 l 476 382 m 725 433 l 725 0 l 600 0 l 600 115 q 494 13 557 46 q 338 -20 430 -20 q 152 46 221 -20 q 83 221 83 111 q 169 414 83 349 q 425 479 255 479 l 600 479 l 600 492 q 544 625 600 578 q 385 672 487 672 q 258 656 319 672 q 139 610 196 641 l 139 725 q 272 765 208 751 q 397 778 336 778 q 644 692 562 778 q 725 433 725 607 z "},"b":{"ha":882,"x_min":126,"x_max":806,"o":"m 676 379 q 620 595 676 517 q 464 673 563 673 q 308 595 365 673 q 252 379 252 517 q 308 163 252 241 q 464 85 365 85 q 620 163 563 85 q 676 379 676 241 m 252 644 q 351 745 291 712 q 494 778 411 778 q 719 668 633 778 q 806 379 806 558 q 719 90 806 200 q 494 -20 633 -20 q 351 13 411 -20 q 252 114 291 46 l 252 0 l 126 0 l 126 1055 l 252 1055 l 252 644 z "},"c":{"ha":764,"x_min":77,"x_max":677,"o":"m 677 730 l 677 614 q 571 657 625 643 q 464 672 518 672 q 275 595 342 672 q 208 379 208 518 q 275 163 208 240 q 464 86 342 86 q 571 101 518 86 q 677 144 625 115 l 677 29 q 569 -7 625 5 q 450 -20 513 -20 q 178 88 279 -20 q 77 379 77 196 q 179 671 77 565 q 458 778 281 778 q 571 766 516 778 q 677 730 626 754 z "},"d":{"ha":882,"x_min":77,"x_max":755,"o":"m 631 644 l 631 1055 l 755 1055 l 755 0 l 631 0 l 631 114 q 531 13 591 46 q 387 -20 471 -20 q 163 90 250 -20 q 77 379 77 200 q 163 668 77 558 q 387 778 250 778 q 531 745 471 778 q 631 644 591 712 m 205 379 q 262 163 205 241 q 418 85 319 85 q 574 163 517 85 q 631 379 631 241 q 574 595 631 517 q 418 673 517 673 q 262 595 319 673 q 205 379 205 517 z "},"e":{"ha":854,"x_min":77,"x_max":781,"o":"m 781 411 l 781 350 l 207 350 q 284 154 215 221 q 478 86 354 86 q 617 104 550 86 q 751 157 685 121 l 751 39 q 614 -5 684 10 q 471 -20 543 -20 q 183 86 289 -20 q 77 372 77 192 q 177 668 77 559 q 449 778 278 778 q 691 679 602 778 q 781 411 781 581 m 656 448 q 598 611 654 550 q 450 672 543 672 q 283 613 346 672 q 211 447 220 554 l 656 448 z "},"f":{"ha":489,"x_min":32,"x_max":515,"o":"m 515 1055 l 515 951 l 396 951 q 303 924 329 951 q 277 827 277 897 l 277 760 l 482 760 l 482 663 l 277 663 l 277 0 l 151 0 l 151 663 l 32 663 l 32 760 l 151 760 l 151 812 q 210 997 151 939 q 397 1055 269 1055 l 515 1055 z "},"g":{"ha":882,"x_min":77,"x_max":755,"o":"m 631 389 q 575 599 631 524 q 418 673 519 673 q 261 599 317 673 q 205 389 205 524 q 261 179 205 254 q 418 104 317 104 q 575 179 519 104 q 631 389 631 254 m 755 94 q 669 -194 755 -100 q 406 -289 583 -289 q 281 -279 340 -289 q 168 -249 223 -269 l 168 -127 q 277 -172 223 -157 q 386 -186 330 -186 q 570 -122 509 -186 q 631 72 631 -58 l 631 134 q 532 33 592 66 q 387 0 471 0 q 162 106 248 0 q 77 389 77 213 q 162 671 77 565 q 387 778 248 778 q 532 745 471 778 q 631 644 592 711 l 631 760 l 755 760 l 755 94 z "},"h":{"ha":880,"x_min":126,"x_max":762,"o":"m 762 458 l 762 0 l 637 0 l 637 454 q 595 616 637 562 q 469 669 553 669 q 310 605 368 669 q 252 429 252 541 l 252 0 l 126 0 l 126 1055 l 252 1055 l 252 642 q 357 744 296 710 q 497 778 418 778 q 695 697 628 778 q 762 458 762 616 z "},"i":{"ha":386,"x_min":131,"x_max":256,"o":"m 131 760 l 256 760 l 256 0 l 131 0 l 131 760 m 131 1055 l 256 1055 l 256 897 l 131 897 l 131 1055 z "},"j":{"ha":386,"x_min":-25,"x_max":256,"o":"m 131 760 l 256 760 l 256 -14 q 200 -224 256 -159 q 22 -289 145 -289 l -25 -289 l -25 -183 l 8 -183 q 105 -150 79 -183 q 131 -14 131 -117 l 131 760 m 131 1055 l 256 1055 l 256 897 l 131 897 l 131 1055 z "},"k":{"ha":804,"x_min":126,"x_max":800,"o":"m 126 1055 l 252 1055 l 252 432 l 624 760 l 783 760 l 380 404 l 800 0 l 637 0 l 252 371 l 252 0 l 126 0 l 126 1055 z "},"l":{"ha":386,"x_min":131,"x_max":256,"o":"m 131 1055 l 256 1055 l 256 0 l 131 0 l 131 1055 z "},"m":{"ha":1353,"x_min":126,"x_max":1235,"o":"m 722 614 q 834 738 769 698 q 987 778 899 778 q 1171 695 1106 778 q 1235 458 1235 612 l 1235 0 l 1109 0 l 1109 454 q 1071 616 1109 564 q 953 669 1032 669 q 800 605 856 669 q 743 429 743 541 l 743 0 l 618 0 l 618 454 q 579 617 618 564 q 460 669 541 669 q 308 605 364 669 q 252 429 252 540 l 252 0 l 126 0 l 126 760 l 252 760 l 252 642 q 354 745 294 711 q 496 778 414 778 q 636 736 578 778 q 722 614 694 694 z "},"n":{"ha":880,"x_min":126,"x_max":762,"o":"m 762 458 l 762 0 l 637 0 l 637 454 q 595 616 637 562 q 469 669 553 669 q 310 605 368 669 q 252 429 252 541 l 252 0 l 126 0 l 126 760 l 252 760 l 252 642 q 357 744 296 710 q 497 778 418 778 q 695 697 628 778 q 762 458 762 616 z "},"o":{"ha":850,"x_min":77,"x_max":774,"o":"m 425 672 q 267 594 325 672 q 208 379 208 515 q 266 164 208 243 q 425 86 324 86 q 583 165 525 86 q 642 379 642 243 q 583 593 642 514 q 425 672 525 672 m 425 778 q 681 672 588 778 q 774 379 774 566 q 681 86 774 193 q 425 -20 588 -20 q 169 86 262 -20 q 77 379 77 193 q 169 672 77 566 q 425 778 262 778 z "},"p":{"ha":882,"x_min":126,"x_max":806,"o":"m 252 114 l 252 -289 l 126 -289 l 126 760 l 252 760 l 252 644 q 351 745 291 712 q 494 778 411 778 q 719 668 633 778 q 806 379 806 558 q 719 90 806 200 q 494 -20 633 -20 q 351 13 411 -20 q 252 114 291 46 m 676 379 q 620 595 676 517 q 464 673 563 673 q 308 595 365 673 q 252 379 252 517 q 308 163 252 241 q 464 85 365 85 q 620 163 563 85 q 676 379 676 241 z "},"q":{"ha":882,"x_min":77,"x_max":755,"o":"m 205 379 q 262 163 205 241 q 418 85 319 85 q 574 163 517 85 q 631 379 631 241 q 574 595 631 517 q 418 673 517 673 q 262 595 319 673 q 205 379 205 517 m 631 114 q 531 13 591 46 q 387 -20 471 -20 q 163 90 250 -20 q 77 379 77 200 q 163 668 77 558 q 387 778 250 778 q 531 745 471 778 q 631 644 591 712 l 631 760 l 755 760 l 755 -289 l 631 -289 l 631 114 z "},"r":{"ha":571,"x_min":126,"x_max":571,"o":"m 571 643 q 525 661 550 655 q 471 667 500 667 q 308 598 365 667 q 252 400 252 529 l 252 0 l 126 0 l 126 760 l 252 760 l 252 642 q 354 744 291 711 q 507 778 417 778 q 536 776 520 778 q 570 771 551 774 l 571 643 z "},"s":{"ha":724,"x_min":75,"x_max":656,"o":"m 615 737 l 615 619 q 505 660 562 646 q 387 673 448 673 q 248 645 294 673 q 201 559 201 616 q 235 491 201 516 q 368 444 268 467 l 411 435 q 600 354 544 406 q 656 210 656 302 q 572 42 656 104 q 342 -20 488 -20 q 215 -8 281 -20 q 75 28 149 4 l 75 157 q 212 103 144 121 q 345 85 279 85 q 480 115 433 85 q 528 200 528 145 q 493 278 528 251 q 343 330 459 305 l 300 340 q 132 415 184 365 q 81 554 81 466 q 157 720 81 661 q 372 778 233 778 q 503 768 441 778 q 615 737 564 758 z "},"t":{"ha":545,"x_min":37,"x_max":511,"o":"m 254 975 l 254 760 l 511 760 l 511 663 l 254 663 l 254 250 q 280 131 254 157 q 383 104 305 104 l 511 104 l 511 0 l 383 0 q 184 54 239 0 q 129 250 129 108 l 129 663 l 37 663 l 37 760 l 129 760 l 129 975 l 254 975 z "},"u":{"ha":880,"x_min":118,"x_max":754,"o":"m 118 300 l 118 760 l 243 760 l 243 304 q 285 143 243 197 q 411 89 327 89 q 571 153 512 89 q 629 329 629 218 l 629 760 l 754 760 l 754 0 l 629 0 l 629 117 q 524 14 584 47 q 385 -20 464 -20 q 186 62 254 -20 q 118 300 118 143 m 432 778 z "},"v":{"ha":822,"x_min":41,"x_max":781,"o":"m 41 760 l 174 760 l 411 122 l 648 760 l 781 760 l 496 0 l 326 0 l 41 760 z "},"w":{"ha":1136,"x_min":58,"x_max":1078,"o":"m 58 760 l 183 760 l 339 167 l 494 760 l 642 760 l 798 167 l 953 760 l 1078 760 l 879 0 l 732 0 l 568 623 l 404 0 l 257 0 l 58 760 z "},"x":{"ha":822,"x_min":40,"x_max":777,"o":"m 762 760 l 488 390 l 777 0 l 629 0 l 408 298 l 187 0 l 40 0 l 335 397 l 65 760 l 212 760 l 414 489 l 615 760 l 762 760 z "},"y":{"ha":822,"x_min":41,"x_max":781,"o":"m 447 -71 q 344 -248 394 -206 q 210 -289 294 -289 l 110 -289 l 110 -184 l 183 -184 q 263 -160 235 -184 q 326 -45 292 -136 l 349 12 l 41 760 l 174 760 l 411 165 l 648 760 l 781 760 l 447 -71 z "},"z":{"ha":729,"x_min":60,"x_max":669,"o":"m 77 760 l 669 760 l 669 646 l 200 100 l 669 100 l 669 0 l 60 0 l 60 114 l 529 660 l 77 660 l 77 760 z "},"{":{"ha":884,"x_min":174,"x_max":710,"o":"m 710 -129 l 710 -227 l 668 -227 q 442 -176 499 -227 q 385 24 385 -126 l 385 186 q 348 328 385 288 q 215 367 311 367 l 174 367 l 174 464 l 215 464 q 348 503 312 464 q 385 643 385 542 l 385 806 q 442 1005 385 956 q 668 1055 499 1055 l 710 1055 l 710 958 l 664 958 q 539 928 568 958 q 510 803 510 899 l 510 635 q 479 480 510 528 q 374 415 448 432 q 479 349 449 397 q 510 195 510 300 l 510 26 q 539 -99 510 -69 q 664 -129 568 -129 l 710 -129 z "},"|":{"ha":468,"x_min":176,"x_max":292,"o":"m 292 1061 l 292 -328 l 176 -328 l 176 1061 l 292 1061 z "},"}":{"ha":884,"x_min":174,"x_max":710,"o":"m 174 -129 l 221 -129 q 345 -100 316 -129 q 374 26 374 -71 l 374 195 q 404 349 374 300 q 510 415 435 397 q 404 480 435 432 q 374 635 374 528 l 374 803 q 345 929 374 899 q 221 958 316 958 l 174 958 l 174 1055 l 216 1055 q 442 1005 385 1055 q 498 806 498 956 l 498 643 q 535 503 498 542 q 668 464 572 464 l 710 464 l 710 367 l 668 367 q 535 328 572 367 q 498 186 498 288 l 498 24 q 442 -176 498 -126 q 216 -227 385 -227 l 174 -227 l 174 -129 z "},"~":{"ha":1164,"x_min":147,"x_max":1017,"o":"m 1017 554 l 1017 433 q 885 357 945 380 q 758 334 824 334 q 585 374 684 334 q 574 378 577 376 q 559 383 569 380 q 390 425 454 425 q 272 399 330 425 q 147 317 214 373 l 147 437 q 279 514 218 491 q 406 538 340 538 q 580 497 480 538 q 590 493 587 494 q 605 488 595 491 q 774 446 710 446 q 889 471 832 446 q 1017 554 947 497 z "}," ":{"ha":441,"x_min":0,"x_max":0,"o":""},"¡":{"ha":557,"x_min":210,"x_max":347,"o":"m 347 587 l 210 587 l 210 760 l 347 760 l 347 587 m 347 -253 l 210 -253 l 210 191 l 224 433 l 334 433 l 347 191 l 347 -253 z "},"¢":{"ha":884,"x_min":117,"x_max":718,"o":"m 460 89 l 460 669 q 304 581 360 657 q 249 379 249 504 q 304 177 249 254 q 460 89 360 100 m 718 730 l 718 614 q 622 656 668 642 q 530 672 576 670 l 529 86 q 623 104 576 90 q 718 144 669 118 l 718 29 q 628 -3 674 9 q 529 -20 581 -15 l 529 -212 l 460 -212 l 460 -17 q 207 101 296 -3 q 117 379 117 205 q 207 658 117 554 q 460 777 296 762 l 460 971 l 529 971 l 530 777 q 626 763 579 774 q 718 730 672 751 z "},"£":{"ha":884,"x_min":87,"x_max":761,"o":"m 747 990 l 747 867 q 650 908 696 895 q 562 922 604 922 q 422 870 462 922 q 383 673 383 817 l 383 528 l 648 528 l 648 431 l 383 431 l 383 115 l 761 115 l 761 0 l 87 0 l 87 115 l 248 115 l 248 431 l 113 431 l 113 528 l 248 528 l 248 689 q 320 948 248 866 q 550 1031 393 1031 q 643 1020 591 1031 q 747 990 694 1010 z "},"¤":{"ha":884,"x_min":64,"x_max":822,"o":"m 604 673 l 745 815 l 822 737 l 682 597 q 720 517 707 557 q 732 435 732 477 q 719 353 732 392 q 679 275 706 314 l 821 135 l 743 58 l 603 199 q 524 159 563 172 q 443 146 484 146 q 363 158 404 146 q 281 196 322 171 l 140 56 l 64 134 l 204 273 q 166 355 179 315 q 154 435 154 395 q 167 517 154 478 q 205 595 180 557 l 65 734 l 143 812 l 283 672 q 360 711 321 699 q 443 724 399 724 q 523 711 484 724 q 604 673 563 699 m 625 436 q 573 564 625 512 q 443 616 520 616 q 313 564 367 616 q 260 436 260 512 q 313 306 260 359 q 443 253 366 253 q 572 306 519 253 q 625 436 625 359 z "},"¥":{"ha":884,"x_min":56,"x_max":827,"o":"m 790 309 l 510 309 l 510 0 l 374 0 l 374 309 l 92 309 l 92 392 l 374 392 l 374 427 l 317 532 l 92 532 l 92 615 l 271 615 l 56 1013 l 184 1013 l 441 538 l 697 1013 l 827 1013 l 611 615 l 790 615 l 790 532 l 566 532 l 509 427 l 509 392 l 790 392 l 790 309 z "},"¦":{"ha":468,"x_min":176,"x_max":292,"o":"m 292 277 l 292 -237 l 176 -237 l 176 277 l 292 277 m 292 971 l 292 457 l 176 457 l 176 971 l 292 971 z "},"§":{"ha":694,"x_min":62,"x_max":631,"o":"m 257 635 q 193 573 214 604 q 172 511 172 543 q 219 415 172 460 q 436 278 267 370 q 500 339 479 309 q 521 401 521 370 q 472 498 521 452 q 257 635 424 545 m 562 991 l 562 880 q 457 920 506 907 q 371 933 409 933 q 269 906 305 933 q 232 831 232 879 q 372 692 232 770 q 399 676 389 682 q 586 543 542 595 q 631 422 631 491 q 600 314 631 361 q 505 231 568 267 q 567 158 547 195 q 586 78 586 121 q 517 -75 586 -18 q 330 -132 448 -132 q 229 -122 281 -132 q 117 -93 176 -113 l 117 18 q 226 -21 176 -8 q 315 -35 276 -35 q 423 -6 385 -35 q 461 74 461 22 q 311 227 461 143 l 294 236 q 106 369 149 317 q 62 490 62 421 q 94 601 62 552 q 187 682 125 649 q 127 750 147 712 q 107 835 107 788 q 175 977 107 923 q 355 1031 243 1031 q 457 1021 405 1031 q 562 991 509 1011 z "},"¨":{"ha":694,"x_min":146,"x_max":549,"o":"m 411 1053 l 549 1053 l 549 916 l 411 916 l 411 1053 m 146 1053 l 283 1053 l 283 916 l 146 916 l 146 1053 z "},"©":{"ha":1389,"x_min":192,"x_max":1197,"o":"m 694 1007 q 887 970 798 1007 q 1050 859 976 932 q 1160 696 1124 785 q 1197 503 1197 607 q 1160 311 1197 399 q 1050 149 1124 222 q 887 37 976 75 q 694 0 798 0 q 502 37 591 0 q 339 149 413 75 q 229 311 265 222 q 192 503 192 399 q 229 696 192 607 q 339 859 265 785 q 502 970 413 932 q 694 1007 591 1007 m 694 937 q 529 905 606 937 q 389 810 452 873 q 292 668 325 746 q 260 503 260 591 q 292 338 260 415 q 389 197 325 261 q 529 101 452 134 q 694 69 606 69 q 861 101 784 69 q 1002 197 938 134 q 1096 337 1065 260 q 1128 503 1128 414 q 1096 670 1128 593 q 1002 810 1064 747 q 861 905 938 873 q 694 937 784 937 m 897 771 l 897 684 q 808 717 852 706 q 720 728 764 728 q 562 668 618 728 q 505 503 505 609 q 563 336 505 395 q 726 277 621 277 q 811 287 770 277 q 897 321 852 298 l 897 235 q 805 205 852 215 q 711 196 759 196 q 480 279 565 196 q 395 503 395 361 q 480 726 395 644 q 711 808 565 808 q 807 799 761 808 q 897 771 853 789 z "},"ª":{"ha":654,"x_min":78,"x_max":561,"o":"m 94 401 l 561 401 l 561 318 l 94 318 l 94 401 m 559 790 l 559 486 l 458 486 l 458 562 q 380 496 429 519 q 268 473 331 473 q 130 519 181 473 q 78 642 78 565 q 143 780 78 733 q 335 827 208 827 l 458 827 l 458 829 q 419 922 458 891 q 300 953 379 953 q 212 941 258 953 q 119 907 165 930 l 119 993 q 218 1021 169 1012 q 314 1031 267 1031 q 499 971 438 1031 q 559 790 559 911 m 372 749 q 220 726 263 749 q 178 650 178 703 q 211 580 178 606 q 300 554 244 554 q 414 603 370 554 q 458 729 458 652 l 458 749 l 372 749 z "},"«":{"ha":850,"x_min":107,"x_max":720,"o":"m 720 718 l 720 589 l 515 407 l 720 225 l 720 96 l 401 379 l 401 435 l 720 718 m 425 718 l 425 589 l 221 407 l 425 225 l 425 96 l 107 379 l 107 435 l 425 718 z "},"¬":{"ha":1164,"x_min":147,"x_max":1017,"o":"m 147 585 l 1017 585 l 1017 195 l 903 195 l 903 469 l 147 469 l 147 585 z "},"­":{"ha":501,"x_min":68,"x_max":433,"o":"m 68 436 l 433 436 l 433 325 l 68 325 l 68 436 z "},"®":{"ha":1389,"x_min":192,"x_max":1197,"o":"m 694 937 q 529 905 606 937 q 389 810 452 873 q 292 668 325 746 q 260 503 260 591 q 292 338 260 415 q 389 197 325 261 q 529 101 452 134 q 694 69 606 69 q 861 101 784 69 q 1002 197 938 134 q 1096 337 1065 260 q 1128 503 1128 414 q 1096 670 1128 593 q 1002 810 1064 747 q 861 905 938 873 q 694 937 784 937 m 694 1007 q 887 970 798 1007 q 1050 859 976 932 q 1160 696 1124 785 q 1197 503 1197 607 q 1160 311 1197 399 q 1050 149 1124 222 q 887 37 976 75 q 694 0 798 0 q 502 37 591 0 q 339 149 413 75 q 229 311 265 222 q 192 503 192 399 q 229 696 192 607 q 339 859 265 785 q 502 970 413 932 q 694 1007 591 1007 m 676 726 l 593 726 l 593 539 l 676 539 q 780 560 751 539 q 810 632 810 581 q 780 705 810 684 q 676 726 750 726 m 681 796 q 859 756 800 796 q 918 633 918 715 q 883 537 918 575 q 782 488 847 499 q 821 456 798 482 q 875 380 844 430 l 968 229 l 851 229 l 764 371 q 699 453 724 436 q 637 471 674 471 l 593 471 l 593 229 l 488 229 l 488 796 l 681 796 z "},"¯":{"ha":694,"x_min":144,"x_max":550,"o":"m 144 1035 l 550 1035 l 550 935 l 144 935 l 144 1035 z "},"°":{"ha":694,"x_min":132,"x_max":562,"o":"m 347 943 q 256 906 293 943 q 218 814 218 868 q 256 723 218 760 q 347 686 293 686 q 439 723 401 686 q 476 814 476 760 q 438 905 476 867 q 347 943 401 943 m 347 1031 q 431 1014 391 1031 q 500 966 471 998 q 547 897 531 936 q 562 814 562 859 q 499 662 562 724 q 346 600 437 600 q 193 661 254 600 q 132 814 132 722 q 195 968 132 905 q 347 1031 257 1031 z "},"±":{"ha":1164,"x_min":147,"x_max":1017,"o":"m 639 871 l 639 608 l 1017 608 l 1017 493 l 639 493 l 639 231 l 525 231 l 525 493 l 147 493 l 147 608 l 525 608 l 525 871 l 639 871 m 147 115 l 1017 115 l 1017 0 l 147 0 l 147 115 z "},"²":{"ha":557,"x_min":64,"x_max":469,"o":"m 182 530 l 469 530 l 469 453 l 64 453 l 64 528 q 130 587 87 549 q 363 857 363 793 q 328 929 363 902 q 235 957 292 957 q 158 945 199 957 q 68 909 117 933 l 68 993 q 165 1021 120 1012 q 249 1031 210 1031 q 406 986 347 1031 q 465 868 465 941 q 241 581 465 774 q 182 530 203 549 z "},"³":{"ha":557,"x_min":66,"x_max":486,"o":"m 355 760 q 452 710 418 747 q 486 618 486 673 q 422 488 486 534 q 237 443 357 443 q 156 450 199 443 q 66 471 114 457 l 66 553 q 142 526 102 534 q 228 517 182 517 q 342 544 302 517 q 383 618 383 570 q 346 694 383 668 q 235 720 308 720 l 176 720 l 176 793 l 240 793 q 337 814 304 793 q 370 876 370 836 q 336 936 370 916 q 237 957 302 957 q 176 951 210 957 q 86 929 141 945 l 86 1007 q 179 1025 136 1019 q 260 1031 222 1031 q 415 991 357 1031 q 472 884 472 951 q 441 804 472 837 q 355 760 411 772 z "},"´":{"ha":694,"x_min":252,"x_max":576,"o":"m 441 1111 l 576 1111 l 355 856 l 252 856 l 441 1111 z "},"µ":{"ha":884,"x_min":118,"x_max":850,"o":"m 118 -289 l 118 760 l 243 760 l 243 288 q 290 139 243 189 q 428 89 336 89 q 579 146 528 89 q 629 317 629 203 l 629 760 l 754 760 l 754 175 q 766 115 754 134 q 803 96 778 96 q 820 99 809 96 q 850 111 831 103 l 850 11 q 797 -12 822 -5 q 749 -20 772 -20 q 674 7 702 -20 q 636 87 646 33 q 553 7 602 34 q 437 -20 504 -20 q 320 7 368 -20 q 243 86 271 33 l 243 -289 l 118 -289 z "},"¶":{"ha":884,"x_min":107,"x_max":733,"o":"m 429 1013 l 733 1013 l 733 -134 l 637 -134 l 637 929 l 509 929 l 509 -134 l 412 -134 l 412 440 q 187 527 267 452 q 107 726 107 602 q 195 934 107 855 q 429 1013 283 1013 z "},"·":{"ha":441,"x_min":149,"x_max":292,"o":"m 149 568 l 292 568 l 292 396 l 149 396 l 149 568 z "},"¸":{"ha":694,"x_min":197,"x_max":478,"o":"m 404 0 q 460 -78 441 -42 q 478 -146 478 -113 q 437 -237 478 -206 q 317 -268 397 -268 q 256 -264 286 -268 q 197 -252 227 -260 l 197 -163 q 245 -179 220 -174 q 302 -184 271 -184 q 363 -168 342 -184 q 383 -121 383 -152 q 369 -71 383 -100 q 323 0 354 -41 l 404 0 z "},"¹":{"ha":557,"x_min":93,"x_max":481,"o":"m 106 528 l 244 528 l 244 942 l 93 914 l 93 993 l 249 1019 l 342 1019 l 342 528 l 481 528 l 481 453 l 106 453 l 106 528 z "},"º":{"ha":654,"x_min":65,"x_max":589,"o":"m 94 401 l 561 401 l 561 318 l 94 318 l 94 401 m 328 1031 q 519 956 449 1031 q 589 751 589 881 q 519 548 589 622 q 328 473 449 473 q 136 548 206 473 q 65 751 65 623 q 136 956 65 881 q 328 1031 206 1031 m 328 953 q 214 898 256 953 q 171 751 171 844 q 214 607 171 661 q 328 553 257 553 q 441 607 399 553 q 484 751 484 661 q 441 899 484 844 q 328 953 399 953 z "},"»":{"ha":850,"x_min":131,"x_max":743,"o":"m 131 718 l 449 435 l 449 379 l 131 96 l 131 225 l 335 407 l 131 589 l 131 718 m 425 718 l 743 435 l 743 379 l 425 96 l 425 225 l 629 407 l 425 589 l 425 718 z "},"¼":{"ha":1346,"x_min":93,"x_max":1301,"o":"m 106 528 l 244 528 l 244 942 l 93 914 l 93 993 l 249 1019 l 342 1019 l 342 528 l 481 528 l 481 453 l 106 453 l 106 528 m 1112 484 l 903 200 l 1112 200 l 1112 484 m 1097 566 l 1210 566 l 1210 200 l 1301 200 l 1301 126 l 1210 126 l 1210 0 l 1112 0 l 1112 126 l 831 126 l 831 208 l 1097 566 m 935 1031 l 1043 1031 l 411 -20 l 302 -20 l 935 1031 z "},"½":{"ha":1346,"x_min":93,"x_max":1258,"o":"m 106 528 l 244 528 l 244 942 l 93 914 l 93 993 l 249 1019 l 342 1019 l 342 528 l 481 528 l 481 453 l 106 453 l 106 528 m 970 77 l 1258 77 l 1258 0 l 852 0 l 852 75 q 918 134 876 96 q 1152 404 1152 340 q 1116 476 1152 449 q 1023 504 1081 504 q 947 492 988 504 q 857 456 905 480 l 857 540 q 954 568 909 559 q 1038 578 999 578 q 1195 533 1136 578 q 1254 415 1254 488 q 1029 128 1254 321 q 970 77 991 96 m 935 1031 l 1043 1031 l 411 -20 l 302 -20 l 935 1031 z "},"¾":{"ha":1346,"x_min":66,"x_max":1301,"o":"m 355 760 q 452 710 418 747 q 486 618 486 673 q 422 488 486 534 q 237 443 357 443 q 156 450 199 443 q 66 471 114 457 l 66 553 q 142 526 102 534 q 228 517 182 517 q 342 544 302 517 q 383 618 383 570 q 346 694 383 668 q 235 720 308 720 l 176 720 l 176 793 l 240 793 q 337 814 304 793 q 370 876 370 836 q 336 936 370 916 q 237 957 302 957 q 176 951 210 957 q 86 929 141 945 l 86 1007 q 179 1025 136 1019 q 260 1031 222 1031 q 415 991 357 1031 q 472 884 472 951 q 441 804 472 837 q 355 760 411 772 m 1112 484 l 903 200 l 1112 200 l 1112 484 m 1097 566 l 1210 566 l 1210 200 l 1301 200 l 1301 126 l 1210 126 l 1210 0 l 1112 0 l 1112 126 l 831 126 l 831 208 l 1097 566 m 935 1031 l 1043 1031 l 411 -20 l 302 -20 l 935 1031 z "},"¿":{"ha":737,"x_min":97,"x_max":637,"o":"m 339 488 l 468 488 l 468 382 q 449 269 468 313 q 370 166 431 225 l 309 106 q 252 39 269 71 q 235 -26 235 7 q 279 -124 235 -87 q 397 -161 323 -161 q 511 -138 450 -161 q 637 -68 572 -114 l 637 -196 q 509 -254 574 -235 q 374 -273 444 -273 q 173 -207 249 -273 q 97 -33 97 -141 q 122 65 97 18 q 207 170 146 111 l 267 228 q 312 278 299 260 q 330 313 325 296 q 337 347 335 327 q 339 404 339 368 l 339 488 m 472 587 l 335 587 l 335 760 l 472 760 l 472 587 z "},"À":{"ha":950,"x_min":11,"x_max":939,"o":"m 475 878 l 289 374 l 661 374 l 475 878 m 397 1013 l 553 1013 l 939 0 l 796 0 l 704 260 l 248 260 l 155 0 l 11 0 l 397 1013 m 436 1288 l 569 1109 l 465 1109 l 309 1288 l 436 1288 z "},"Á":{"ha":950,"x_min":11,"x_max":939,"o":"m 475 878 l 289 374 l 661 374 l 475 878 m 397 1013 l 553 1013 l 939 0 l 796 0 l 704 260 l 248 260 l 155 0 l 11 0 l 397 1013 m 512 1288 l 637 1288 l 483 1109 l 379 1109 l 512 1288 z "},"Â":{"ha":950,"x_min":11,"x_max":939,"o":"m 475 878 l 289 374 l 661 374 l 475 878 m 397 1013 l 553 1013 l 939 0 l 796 0 l 704 260 l 248 260 l 155 0 l 11 0 l 397 1013 m 411 1289 l 538 1289 l 682 1109 l 587 1109 l 475 1230 l 362 1109 l 268 1109 l 411 1289 z "},"Ã":{"ha":950,"x_min":11,"x_max":939,"o":"m 475 878 l 289 374 l 661 374 l 475 878 m 397 1013 l 553 1013 l 939 0 l 796 0 l 704 260 l 248 260 l 155 0 l 11 0 l 397 1013 m 472 1160 l 433 1182 q 406 1195 416 1192 q 387 1199 395 1199 q 349 1182 363 1199 q 336 1135 336 1165 l 336 1131 l 251 1131 q 286 1239 251 1199 q 379 1279 321 1279 q 424 1274 404 1279 q 477 1250 445 1268 l 516 1230 q 543 1217 532 1221 q 565 1213 555 1213 q 600 1230 587 1213 q 614 1275 614 1247 l 614 1279 l 699 1279 q 662 1171 697 1211 q 570 1131 627 1131 q 527 1136 547 1131 q 472 1160 507 1141 z "},"Ä":{"ha":950,"x_min":11,"x_max":939,"o":"m 475 878 l 289 374 l 661 374 l 475 878 m 397 1013 l 553 1013 l 939 0 l 796 0 l 704 260 l 248 260 l 155 0 l 11 0 l 397 1013 m 538 1268 l 676 1268 l 676 1131 l 538 1131 l 538 1268 m 273 1268 l 411 1268 l 411 1131 l 273 1131 l 273 1268 z "},"Å":{"ha":950,"x_min":11,"x_max":939,"o":"m 578 1103 q 548 1176 578 1145 q 475 1206 517 1206 q 402 1176 431 1206 q 372 1103 372 1147 q 402 1030 372 1060 q 475 1000 432 1000 q 548 1030 517 1000 q 578 1103 578 1060 m 475 878 l 290 374 l 660 374 l 475 878 m 372 947 q 310 1014 331 975 q 289 1103 289 1053 q 343 1235 289 1181 q 475 1289 397 1289 q 607 1235 552 1289 q 661 1103 661 1180 q 640 1015 661 1055 q 578 947 618 975 l 939 0 l 796 0 l 704 260 l 248 260 l 155 0 l 11 0 l 372 947 z "},"Æ":{"ha":1353,"x_min":5,"x_max":1264,"o":"m 1251 1013 l 1251 897 l 749 897 l 749 597 l 1231 597 l 1231 482 l 749 482 l 749 115 l 1264 115 l 1264 0 l 611 0 l 611 260 l 253 260 l 144 0 l 5 0 l 429 1013 l 1251 1013 m 524 905 l 300 374 l 611 374 l 611 905 l 524 905 z "},"Ç":{"ha":970,"x_min":78,"x_max":895,"o":"m 895 935 l 895 790 q 747 886 825 854 q 581 918 669 918 q 315 812 407 918 q 222 505 222 706 q 315 199 222 305 q 581 93 407 93 q 747 125 669 93 q 895 221 825 157 l 895 78 q 742 5 823 29 q 572 -20 662 -20 q 210 121 342 -20 q 78 505 78 262 q 210 890 78 749 q 572 1031 342 1031 q 744 1007 663 1031 q 895 935 824 983 m 608 0 q 664 -78 646 -42 q 682 -146 682 -113 q 642 -237 682 -206 q 521 -268 601 -268 q 460 -264 490 -268 q 401 -252 431 -260 l 401 -163 q 450 -179 425 -174 q 507 -184 475 -184 q 567 -168 547 -184 q 587 -121 587 -152 q 573 -71 587 -100 q 528 0 558 -41 l 608 0 z "},"È":{"ha":878,"x_min":136,"x_max":789,"o":"m 136 1013 l 777 1013 l 777 897 l 273 897 l 273 597 l 755 597 l 755 482 l 273 482 l 273 115 l 789 115 l 789 0 l 136 0 l 136 1013 m 416 1288 l 549 1109 l 445 1109 l 289 1288 l 416 1288 z "},"É":{"ha":878,"x_min":136,"x_max":789,"o":"m 136 1013 l 777 1013 l 777 897 l 273 897 l 273 597 l 755 597 l 755 482 l 273 482 l 273 115 l 789 115 l 789 0 l 136 0 l 136 1013 m 492 1288 l 617 1288 l 463 1109 l 359 1109 l 492 1288 z "},"Ê":{"ha":878,"x_min":136,"x_max":789,"o":"m 136 1013 l 777 1013 l 777 897 l 273 897 l 273 597 l 755 597 l 755 482 l 273 482 l 273 115 l 789 115 l 789 0 l 136 0 l 136 1013 m 391 1289 l 518 1289 l 661 1109 l 567 1109 l 454 1230 l 342 1109 l 248 1109 l 391 1289 z "},"Ë":{"ha":878,"x_min":136,"x_max":789,"o":"m 136 1013 l 777 1013 l 777 897 l 273 897 l 273 597 l 755 597 l 755 482 l 273 482 l 273 115 l 789 115 l 789 0 l 136 0 l 136 1013 m 518 1268 l 656 1268 l 656 1131 l 518 1131 l 518 1268 m 253 1268 l 391 1268 l 391 1131 l 253 1131 l 253 1268 z "},"Ì":{"ha":410,"x_min":40,"x_max":300,"o":"m 136 1013 l 273 1013 l 273 0 l 136 0 l 136 1013 m 167 1288 l 300 1109 l 196 1109 l 40 1288 l 167 1288 z "},"Í":{"ha":410,"x_min":110,"x_max":368,"o":"m 136 1013 l 273 1013 l 273 0 l 136 0 l 136 1013 m 243 1288 l 368 1288 l 214 1109 l 110 1109 l 243 1288 z "},"Î":{"ha":410,"x_min":-1,"x_max":412,"o":"m 136 1013 l 273 1013 l 273 0 l 136 0 l 136 1013 m 142 1289 l 269 1289 l 412 1109 l 318 1109 l 205 1230 l 93 1109 l -1 1109 l 142 1289 z "},"Ï":{"ha":410,"x_min":4,"x_max":407,"o":"m 136 1013 l 273 1013 l 273 0 l 136 0 l 136 1013 m 269 1268 l 407 1268 l 407 1131 l 269 1131 l 269 1268 m 4 1268 l 142 1268 l 142 1131 l 4 1131 l 4 1268 z "},"Ð":{"ha":1076,"x_min":7,"x_max":994,"o":"m 143 1013 l 425 1013 q 857 890 719 1013 q 994 507 994 768 q 856 123 994 245 q 425 0 718 0 l 143 0 l 143 475 l 7 475 l 7 572 l 143 572 l 143 1013 m 281 900 l 281 572 l 509 572 l 509 475 l 281 475 l 281 113 l 446 113 q 752 208 655 113 q 850 507 850 302 q 752 805 850 711 q 446 900 655 900 l 281 900 z "},"Ñ":{"ha":1039,"x_min":136,"x_max":903,"o":"m 136 1013 l 321 1013 l 770 165 l 770 1013 l 903 1013 l 903 0 l 718 0 l 269 847 l 269 0 l 136 0 l 136 1013 m 517 1160 l 478 1182 q 451 1195 461 1192 q 432 1199 440 1199 q 394 1182 408 1199 q 380 1135 380 1165 l 380 1131 l 296 1131 q 331 1239 296 1199 q 424 1279 366 1279 q 469 1274 448 1279 q 522 1250 490 1268 l 561 1230 q 588 1217 576 1221 q 610 1213 600 1213 q 645 1230 631 1213 q 659 1275 659 1247 l 659 1279 l 743 1279 q 707 1171 742 1211 q 615 1131 672 1131 q 572 1136 592 1131 q 517 1160 552 1141 z "},"Ò":{"ha":1093,"x_min":78,"x_max":1015,"o":"m 547 920 q 310 808 398 920 q 222 505 222 697 q 310 203 222 314 q 547 92 398 92 q 784 203 696 92 q 871 505 871 314 q 784 808 871 697 q 547 920 696 920 m 547 1031 q 888 888 760 1031 q 1015 505 1015 745 q 888 123 1015 266 q 547 -20 760 -20 q 206 123 334 -20 q 78 505 78 265 q 206 888 78 745 q 547 1031 334 1031 m 509 1288 l 642 1109 l 538 1109 l 382 1288 l 509 1288 z "},"Ó":{"ha":1093,"x_min":78,"x_max":1015,"o":"m 547 920 q 310 808 398 920 q 222 505 222 697 q 310 203 222 314 q 547 92 398 92 q 784 203 696 92 q 871 505 871 314 q 784 808 871 697 q 547 920 696 920 m 547 1031 q 888 888 760 1031 q 1015 505 1015 745 q 888 123 1015 266 q 547 -20 760 -20 q 206 123 334 -20 q 78 505 78 265 q 206 888 78 745 q 547 1031 334 1031 m 585 1288 l 710 1288 l 555 1109 l 452 1109 l 585 1288 z "},"Ô":{"ha":1093,"x_min":78,"x_max":1015,"o":"m 547 920 q 310 808 398 920 q 222 505 222 697 q 310 203 222 314 q 547 92 398 92 q 784 203 696 92 q 871 505 871 314 q 784 808 871 697 q 547 920 696 920 m 547 1031 q 888 888 760 1031 q 1015 505 1015 745 q 888 123 1015 266 q 547 -20 760 -20 q 206 123 334 -20 q 78 505 78 265 q 206 888 78 745 q 547 1031 334 1031 m 484 1289 l 611 1289 l 754 1109 l 660 1109 l 547 1230 l 435 1109 l 340 1109 l 484 1289 z "},"Õ":{"ha":1093,"x_min":78,"x_max":1015,"o":"m 547 920 q 310 808 398 920 q 222 505 222 697 q 310 203 222 314 q 547 92 398 92 q 784 203 696 92 q 871 505 871 314 q 784 808 871 697 q 547 920 696 920 m 547 1031 q 888 888 760 1031 q 1015 505 1015 745 q 888 123 1015 266 q 547 -20 760 -20 q 206 123 334 -20 q 78 505 78 265 q 206 888 78 745 q 547 1031 334 1031 m 545 1160 l 506 1182 q 478 1195 489 1192 q 460 1199 468 1199 q 422 1182 435 1199 q 408 1135 408 1165 l 408 1131 l 323 1131 q 358 1239 323 1199 q 452 1279 393 1279 q 497 1274 476 1279 q 550 1250 517 1268 l 589 1230 q 616 1217 604 1221 q 637 1213 627 1213 q 673 1230 659 1213 q 686 1275 686 1247 l 686 1279 l 771 1279 q 735 1171 770 1211 q 643 1131 700 1131 q 600 1136 620 1131 q 545 1160 580 1141 z "},"Ö":{"ha":1093,"x_min":78,"x_max":1015,"o":"m 547 920 q 310 808 398 920 q 222 505 222 697 q 310 203 222 314 q 547 92 398 92 q 784 203 696 92 q 871 505 871 314 q 784 808 871 697 q 547 920 696 920 m 547 1031 q 888 888 760 1031 q 1015 505 1015 745 q 888 123 1015 266 q 547 -20 760 -20 q 206 123 334 -20 q 78 505 78 265 q 206 888 78 745 q 547 1031 334 1031 m 611 1268 l 749 1268 l 749 1131 l 611 1131 l 611 1268 m 346 1268 l 484 1268 l 484 1131 l 346 1131 l 346 1268 z "},"×":{"ha":1164,"x_min":191,"x_max":974,"o":"m 974 746 l 664 435 l 974 125 l 893 43 l 582 354 l 271 43 l 191 125 l 500 435 l 191 746 l 271 828 l 582 517 l 893 828 l 974 746 z "},"Ø":{"ha":1093,"x_min":69,"x_max":1023,"o":"m 818 754 l 332 180 q 428 114 374 137 q 547 92 483 92 q 784 203 696 92 q 871 505 871 314 q 858 644 871 581 q 818 754 844 706 m 762 831 q 666 897 721 874 q 547 920 612 920 q 310 808 398 920 q 222 505 222 697 q 236 366 222 429 q 275 256 249 302 l 762 831 m 184 149 q 105 307 132 218 q 78 505 78 397 q 206 888 78 745 q 547 1031 334 1031 q 710 1005 635 1031 q 844 928 785 979 l 954 1057 l 1023 997 l 908 863 q 988 703 961 793 q 1015 505 1015 612 q 888 123 1015 266 q 547 -20 760 -20 q 386 6 460 -20 q 249 82 311 31 l 139 -47 l 69 12 l 184 149 z "},"Ù":{"ha":1017,"x_min":121,"x_max":896,"o":"m 121 1013 l 258 1013 l 258 397 q 317 163 258 235 q 509 92 376 92 q 699 163 640 92 q 758 397 758 235 l 758 1013 l 896 1013 l 896 380 q 798 81 896 182 q 509 -20 700 -20 q 219 81 317 -20 q 121 380 121 182 l 121 1013 m 470 1288 l 603 1109 l 499 1109 l 343 1288 l 470 1288 z "},"Ú":{"ha":1017,"x_min":121,"x_max":896,"o":"m 121 1013 l 258 1013 l 258 397 q 317 163 258 235 q 509 92 376 92 q 699 163 640 92 q 758 397 758 235 l 758 1013 l 896 1013 l 896 380 q 798 81 896 182 q 509 -20 700 -20 q 219 81 317 -20 q 121 380 121 182 l 121 1013 m 546 1288 l 671 1288 l 517 1109 l 413 1109 l 546 1288 z "},"Û":{"ha":1017,"x_min":121,"x_max":896,"o":"m 121 1013 l 258 1013 l 258 397 q 317 163 258 235 q 509 92 376 92 q 699 163 640 92 q 758 397 758 235 l 758 1013 l 896 1013 l 896 380 q 798 81 896 182 q 509 -20 700 -20 q 219 81 317 -20 q 121 380 121 182 l 121 1013 m 445 1289 l 572 1289 l 715 1109 l 621 1109 l 509 1230 l 396 1109 l 302 1109 l 445 1289 z "},"Ü":{"ha":1017,"x_min":121,"x_max":896,"o":"m 121 1013 l 258 1013 l 258 397 q 317 163 258 235 q 509 92 376 92 q 699 163 640 92 q 758 397 758 235 l 758 1013 l 896 1013 l 896 380 q 798 81 896 182 q 509 -20 700 -20 q 219 81 317 -20 q 121 380 121 182 l 121 1013 m 572 1268 l 710 1268 l 710 1131 l 572 1131 l 572 1268 m 307 1268 l 445 1268 l 445 1131 l 307 1131 l 307 1268 z "},"Ý":{"ha":848,"x_min":-3,"x_max":851,"o":"m -3 1013 l 144 1013 l 425 596 l 704 1013 l 851 1013 l 493 482 l 493 0 l 355 0 l 355 482 l -3 1013 m 463 1288 l 588 1288 l 433 1109 l 330 1109 l 463 1288 z "},"Þ":{"ha":840,"x_min":136,"x_max":790,"o":"m 136 1013 l 273 1013 l 273 833 l 446 833 q 703 757 616 833 q 790 532 790 681 q 703 306 790 382 q 446 229 616 229 l 273 229 l 273 0 l 136 0 l 136 1013 m 273 721 l 273 342 l 446 342 q 593 391 541 342 q 646 532 646 441 q 594 672 646 623 q 446 721 542 721 l 273 721 z "},"ß":{"ha":875,"x_min":126,"x_max":811,"o":"m 126 771 q 207 981 126 907 q 436 1055 288 1055 q 651 977 577 1055 q 728 746 726 898 q 568 702 625 741 q 511 597 511 663 q 531 538 511 566 q 595 482 551 511 l 633 457 q 779 337 746 385 q 811 221 811 289 q 735 42 811 104 q 515 -20 659 -20 q 426 -11 472 -20 q 330 14 380 -3 l 330 125 q 432 95 385 104 q 524 85 479 85 q 643 117 602 85 q 684 211 684 149 q 664 282 684 254 q 575 353 644 311 l 513 390 q 418 476 448 430 q 389 583 389 522 q 445 728 389 669 q 604 806 502 786 q 554 913 599 876 q 433 951 510 951 q 299 904 345 951 q 253 768 253 857 l 253 0 l 126 0 l 126 771 z "},"à":{"ha":851,"x_min":83,"x_max":725,"o":"m 476 382 q 267 347 325 382 q 208 229 208 313 q 252 124 208 163 q 371 85 296 85 q 537 158 475 85 q 600 354 600 232 l 600 382 l 476 382 m 725 433 l 725 0 l 600 0 l 600 115 q 494 13 557 46 q 338 -20 430 -20 q 152 46 221 -20 q 83 221 83 111 q 169 414 83 349 q 425 479 255 479 l 600 479 l 600 492 q 544 625 600 578 q 385 672 487 672 q 258 656 319 672 q 139 610 196 641 l 139 725 q 272 765 208 751 q 397 778 336 778 q 644 692 562 778 q 725 433 725 607 m 304 1111 l 496 857 l 392 857 l 171 1111 l 304 1111 z "},"á":{"ha":851,"x_min":83,"x_max":725,"o":"m 476 382 q 267 347 325 382 q 208 229 208 313 q 252 124 208 163 q 371 85 296 85 q 537 158 475 85 q 600 354 600 232 l 600 382 l 476 382 m 725 433 l 725 0 l 600 0 l 600 115 q 494 13 557 46 q 338 -20 430 -20 q 152 46 221 -20 q 83 221 83 111 q 169 414 83 349 q 425 479 255 479 l 600 479 l 600 492 q 544 625 600 578 q 385 672 487 672 q 258 656 319 672 q 139 610 196 641 l 139 725 q 272 765 208 751 q 397 778 336 778 q 644 692 562 778 q 725 433 725 607 m 497 1111 l 632 1111 l 411 856 l 307 856 l 497 1111 z "},"â":{"ha":851,"x_min":83,"x_max":725,"o":"m 476 382 q 267 347 325 382 q 208 229 208 313 q 252 124 208 163 q 371 85 296 85 q 537 158 475 85 q 600 354 600 232 l 600 382 l 476 382 m 725 433 l 725 0 l 600 0 l 600 115 q 494 13 557 46 q 338 -20 430 -20 q 152 46 221 -20 q 83 221 83 111 q 169 414 83 349 q 425 479 255 479 l 600 479 l 600 492 q 544 625 600 578 q 385 672 487 672 q 258 656 319 672 q 139 610 196 641 l 139 725 q 272 765 208 751 q 397 778 336 778 q 644 692 562 778 q 725 433 725 607 m 353 1111 l 453 1111 l 619 856 l 525 856 l 403 1022 l 281 856 l 186 856 l 353 1111 z "},"ã":{"ha":851,"x_min":83,"x_max":725,"o":"m 476 382 q 267 347 325 382 q 208 229 208 313 q 252 124 208 163 q 371 85 296 85 q 537 158 475 85 q 600 354 600 232 l 600 382 l 476 382 m 725 433 l 725 0 l 600 0 l 600 115 q 494 13 557 46 q 338 -20 430 -20 q 152 46 221 -20 q 83 221 83 111 q 169 414 83 349 q 425 479 255 479 l 600 479 l 600 492 q 544 625 600 578 q 385 672 487 672 q 258 656 319 672 q 139 610 196 641 l 139 725 q 272 765 208 751 q 397 778 336 778 q 644 692 562 778 q 725 433 725 607 m 400 929 l 361 966 q 335 986 347 980 q 315 993 324 993 q 277 968 290 993 q 264 888 265 943 l 179 888 q 215 1029 180 979 q 311 1079 250 1079 q 359 1069 337 1079 q 406 1038 380 1060 l 444 1000 q 470 980 459 987 q 490 974 481 974 q 528 999 516 974 q 542 1079 541 1023 l 627 1079 q 591 938 625 987 q 494 888 556 888 q 447 897 469 888 q 400 929 425 907 z "},"ä":{"ha":851,"x_min":83,"x_max":725,"o":"m 476 382 q 267 347 325 382 q 208 229 208 313 q 252 124 208 163 q 371 85 296 85 q 537 158 475 85 q 600 354 600 232 l 600 382 l 476 382 m 725 433 l 725 0 l 600 0 l 600 115 q 494 13 557 46 q 338 -20 430 -20 q 152 46 221 -20 q 83 221 83 111 q 169 414 83 349 q 425 479 255 479 l 600 479 l 600 492 q 544 625 600 578 q 385 672 487 672 q 258 656 319 672 q 139 610 196 641 l 139 725 q 272 765 208 751 q 397 778 336 778 q 644 692 562 778 q 725 433 725 607 m 467 1053 l 604 1053 l 604 916 l 467 916 l 467 1053 m 201 1053 l 339 1053 l 339 916 l 201 916 l 201 1053 z "},"å":{"ha":851,"x_min":83,"x_max":725,"o":"m 476 382 q 267 347 325 382 q 208 229 208 313 q 252 124 208 163 q 371 85 296 85 q 537 158 475 85 q 600 354 600 232 l 600 382 l 476 382 m 725 433 l 725 0 l 600 0 l 600 115 q 494 13 557 46 q 338 -20 430 -20 q 152 46 221 -20 q 83 221 83 111 q 169 414 83 349 q 425 479 255 479 l 600 479 l 600 492 q 544 625 600 578 q 385 672 487 672 q 258 656 319 672 q 139 610 196 641 l 139 725 q 272 765 208 751 q 397 778 336 778 q 644 692 562 778 q 725 433 725 607 m 506 1034 q 476 1106 506 1076 q 403 1136 446 1136 q 329 1106 359 1136 q 300 1034 300 1077 q 329 960 300 989 q 403 930 359 930 q 476 960 446 930 q 506 1034 506 990 m 589 1034 q 535 901 589 956 q 403 847 481 847 q 271 901 325 847 q 217 1034 217 956 q 271 1165 217 1112 q 403 1219 325 1219 q 535 1165 481 1219 q 589 1034 589 1112 z "},"æ":{"ha":1364,"x_min":83,"x_max":1291,"o":"m 1165 448 q 1108 611 1164 550 q 960 672 1053 672 q 793 613 856 672 q 721 447 730 554 l 1165 448 m 675 653 q 797 746 725 714 q 958 778 869 778 q 1201 679 1112 778 q 1291 411 1291 581 l 1291 350 l 717 350 q 794 153 725 220 q 987 85 863 85 q 1126 103 1058 85 q 1261 157 1194 121 l 1261 39 q 1123 -5 1194 10 q 981 -20 1053 -20 q 783 21 867 -20 q 647 143 699 62 q 524 21 597 62 q 354 -20 451 -20 q 155 44 226 -20 q 83 221 83 107 q 169 414 83 349 q 425 479 255 479 l 600 479 l 600 492 q 544 625 600 578 q 385 672 487 672 q 258 656 319 672 q 139 610 196 641 l 139 725 q 272 765 208 751 q 397 778 336 778 q 566 745 494 778 q 675 653 638 713 m 476 382 q 267 347 325 382 q 208 229 208 313 q 252 124 208 163 q 371 85 296 85 q 537 158 475 85 q 600 354 600 232 l 600 382 l 476 382 z "},"ç":{"ha":764,"x_min":77,"x_max":677,"o":"m 677 730 l 677 614 q 571 657 625 643 q 464 672 518 672 q 275 595 342 672 q 208 379 208 518 q 275 163 208 240 q 464 86 342 86 q 571 101 518 86 q 677 144 625 115 l 677 29 q 569 -7 625 5 q 450 -20 513 -20 q 178 88 279 -20 q 77 379 77 196 q 179 671 77 565 q 458 778 281 778 q 571 766 516 778 q 677 730 626 754 m 501 0 q 557 -78 538 -42 q 575 -146 575 -113 q 534 -237 575 -206 q 414 -268 494 -268 q 353 -264 382 -268 q 294 -252 323 -260 l 294 -163 q 342 -179 317 -174 q 399 -184 368 -184 q 460 -168 439 -184 q 480 -121 480 -152 q 466 -71 480 -100 q 420 0 451 -41 l 501 0 z "},"è":{"ha":854,"x_min":77,"x_max":781,"o":"m 781 411 l 781 350 l 207 350 q 284 154 215 221 q 478 86 354 86 q 617 104 550 86 q 751 157 685 121 l 751 39 q 614 -5 684 10 q 471 -20 543 -20 q 183 86 289 -20 q 77 372 77 192 q 177 668 77 559 q 449 778 278 778 q 691 679 602 778 q 781 411 781 581 m 656 448 q 598 611 654 550 q 450 672 543 672 q 283 613 346 672 q 211 447 220 554 l 656 448 m 343 1111 l 534 857 l 431 857 l 210 1111 l 343 1111 z "},"é":{"ha":854,"x_min":77,"x_max":781,"o":"m 781 411 l 781 350 l 207 350 q 284 154 215 221 q 478 86 354 86 q 617 104 550 86 q 751 157 685 121 l 751 39 q 614 -5 684 10 q 471 -20 543 -20 q 183 86 289 -20 q 77 372 77 192 q 177 668 77 559 q 449 778 278 778 q 691 679 602 778 q 781 411 781 581 m 656 448 q 598 611 654 550 q 450 672 543 672 q 283 613 346 672 q 211 447 220 554 l 656 448 m 536 1111 l 671 1111 l 450 856 l 346 856 l 536 1111 z "},"ê":{"ha":854,"x_min":77,"x_max":781,"o":"m 781 411 l 781 350 l 207 350 q 284 154 215 221 q 478 86 354 86 q 617 104 550 86 q 751 157 685 121 l 751 39 q 614 -5 684 10 q 471 -20 543 -20 q 183 86 289 -20 q 77 372 77 192 q 177 668 77 559 q 449 778 278 778 q 691 679 602 778 q 781 411 781 581 m 656 448 q 598 611 654 550 q 450 672 543 672 q 283 613 346 672 q 211 447 220 554 l 656 448 m 391 1111 l 492 1111 l 658 856 l 564 856 l 441 1022 l 319 856 l 225 856 l 391 1111 z "},"ë":{"ha":854,"x_min":77,"x_max":781,"o":"m 781 411 l 781 350 l 207 350 q 284 154 215 221 q 478 86 354 86 q 617 104 550 86 q 751 157 685 121 l 751 39 q 614 -5 684 10 q 471 -20 543 -20 q 183 86 289 -20 q 77 372 77 192 q 177 668 77 559 q 449 778 278 778 q 691 679 602 778 q 781 411 781 581 m 656 448 q 598 611 654 550 q 450 672 543 672 q 283 613 346 672 q 211 447 220 554 l 656 448 m 505 1053 l 643 1053 l 643 916 l 505 916 l 505 1053 m 240 1053 l 378 1053 l 378 916 l 240 916 l 240 1053 z "},"ì":{"ha":386,"x_min":-39,"x_max":286,"o":"m 95 1111 l 286 857 l 182 857 l -39 1111 l 95 1111 m 131 760 l 256 760 l 256 0 l 131 0 l 131 760 m 193 778 z "},"í":{"ha":386,"x_min":98,"x_max":422,"o":"m 288 1111 l 422 1111 l 201 856 l 98 856 l 288 1111 m 131 760 l 256 760 l 256 0 l 131 0 l 131 760 m 193 778 z "},"î":{"ha":386,"x_min":-23,"x_max":410,"o":"m 131 760 l 256 760 l 256 0 l 131 0 l 131 760 m 193 778 m 143 1111 l 243 1111 l 410 856 l 315 856 l 193 1022 l 71 856 l -23 856 l 143 1111 z "},"ï":{"ha":386,"x_min":-8,"x_max":395,"o":"m 131 760 l 256 760 l 256 0 l 131 0 l 131 760 m 193 778 m 257 1053 l 395 1053 l 395 916 l 257 916 l 257 1053 m -8 1053 l 130 1053 l 130 916 l -8 916 l -8 1053 z "},"ð":{"ha":850,"x_min":77,"x_max":774,"o":"m 568 621 q 505 637 534 632 q 447 643 475 643 q 271 570 334 643 q 208 364 208 496 q 267 161 208 237 q 425 86 326 86 q 583 161 524 86 q 642 364 642 237 q 623 511 642 447 q 568 621 605 574 m 611 774 q 735 579 696 677 q 774 364 774 481 q 677 86 774 191 q 425 -20 581 -20 q 173 86 269 -20 q 77 364 77 191 q 170 639 77 534 q 414 745 264 745 q 444 743 426 745 q 490 738 461 741 l 382 860 l 165 787 l 143 854 l 334 917 l 211 1055 l 366 1055 l 452 957 l 677 1032 l 700 966 l 500 900 l 611 774 z "},"ñ":{"ha":880,"x_min":126,"x_max":762,"o":"m 762 458 l 762 0 l 637 0 l 637 454 q 595 616 637 562 q 469 669 553 669 q 310 605 368 669 q 252 429 252 541 l 252 0 l 126 0 l 126 760 l 252 760 l 252 642 q 357 744 296 710 q 497 778 418 778 q 695 697 628 778 q 762 458 762 616 m 448 929 l 409 966 q 383 986 394 980 q 363 993 372 993 q 325 968 337 993 q 311 888 313 943 l 227 888 q 262 1029 228 979 q 359 1079 297 1079 q 406 1069 385 1079 q 453 1038 428 1060 l 492 1000 q 518 980 507 987 q 538 974 529 974 q 576 999 564 974 q 589 1079 588 1023 l 674 1079 q 638 938 673 987 q 542 888 604 888 q 494 897 516 888 q 448 929 473 907 z "},"ò":{"ha":850,"x_min":77,"x_max":774,"o":"m 425 672 q 267 594 325 672 q 208 379 208 515 q 266 164 208 243 q 425 86 324 86 q 583 165 525 86 q 642 379 642 243 q 583 593 642 514 q 425 672 525 672 m 425 778 q 681 672 588 778 q 774 379 774 566 q 681 86 774 193 q 425 -20 588 -20 q 169 86 262 -20 q 77 379 77 193 q 169 672 77 566 q 425 778 262 778 m 327 1111 l 518 857 l 414 857 l 193 1111 l 327 1111 z "},"ó":{"ha":850,"x_min":77,"x_max":774,"o":"m 425 672 q 267 594 325 672 q 208 379 208 515 q 266 164 208 243 q 425 86 324 86 q 583 165 525 86 q 642 379 642 243 q 583 593 642 514 q 425 672 525 672 m 425 778 q 681 672 588 778 q 774 379 774 566 q 681 86 774 193 q 425 -20 588 -20 q 169 86 262 -20 q 77 379 77 193 q 169 672 77 566 q 425 778 262 778 m 519 1111 l 654 1111 l 433 856 l 330 856 l 519 1111 z "},"ô":{"ha":850,"x_min":77,"x_max":774,"o":"m 425 672 q 267 594 325 672 q 208 379 208 515 q 266 164 208 243 q 425 86 324 86 q 583 165 525 86 q 642 379 642 243 q 583 593 642 514 q 425 672 525 672 m 425 778 q 681 672 588 778 q 774 379 774 566 q 681 86 774 193 q 425 -20 588 -20 q 169 86 262 -20 q 77 379 77 193 q 169 672 77 566 q 425 778 262 778 m 375 1111 l 475 1111 l 642 856 l 547 856 l 425 1022 l 303 856 l 209 856 l 375 1111 z "},"õ":{"ha":850,"x_min":77,"x_max":774,"o":"m 425 672 q 267 594 325 672 q 208 379 208 515 q 266 164 208 243 q 425 86 324 86 q 583 165 525 86 q 642 379 642 243 q 583 593 642 514 q 425 672 525 672 m 425 778 q 681 672 588 778 q 774 379 774 566 q 681 86 774 193 q 425 -20 588 -20 q 169 86 262 -20 q 77 379 77 193 q 169 672 77 566 q 425 778 262 778 m 422 929 l 384 966 q 358 986 369 980 q 338 993 347 993 q 300 968 312 993 q 286 888 288 943 l 201 888 q 237 1029 203 979 q 334 1079 272 1079 q 381 1069 359 1079 q 428 1038 403 1060 l 467 1000 q 493 980 481 987 q 513 974 504 974 q 551 999 538 974 q 564 1079 563 1023 l 649 1079 q 613 938 648 987 q 517 888 578 888 q 469 897 491 888 q 422 929 448 907 z "},"ö":{"ha":850,"x_min":77,"x_max":774,"o":"m 425 672 q 267 594 325 672 q 208 379 208 515 q 266 164 208 243 q 425 86 324 86 q 583 165 525 86 q 642 379 642 243 q 583 593 642 514 q 425 672 525 672 m 425 778 q 681 672 588 778 q 774 379 774 566 q 681 86 774 193 q 425 -20 588 -20 q 169 86 262 -20 q 77 379 77 193 q 169 672 77 566 q 425 778 262 778 m 489 1053 l 627 1053 l 627 916 l 489 916 l 489 1053 m 224 1053 l 361 1053 l 361 916 l 224 916 l 224 1053 z "},"÷":{"ha":1164,"x_min":147,"x_max":1017,"o":"m 498 770 l 665 770 l 665 603 l 498 603 l 498 770 m 498 268 l 665 268 l 665 102 l 498 102 l 498 268 m 147 493 l 1017 493 l 1017 378 l 147 378 l 147 493 z "},"ø":{"ha":850,"x_min":49,"x_max":800,"o":"m 614 543 l 283 142 q 346 100 311 113 q 425 86 381 86 q 583 165 525 86 q 642 379 642 243 q 635 472 642 433 q 614 543 628 512 m 566 616 q 502 658 537 644 q 425 672 467 672 q 266 592 323 672 q 208 370 208 513 q 215 283 208 321 q 235 215 221 246 l 566 616 m 150 113 q 95 232 113 165 q 77 379 77 298 q 169 672 77 566 q 425 778 262 778 q 542 761 488 778 q 642 708 596 743 l 736 822 l 800 768 l 701 647 q 755 528 737 595 q 774 379 774 460 q 681 86 774 193 q 425 -20 588 -20 q 306 -2 360 -20 q 208 50 251 16 l 114 -64 l 49 -11 l 150 113 z "},"ù":{"ha":880,"x_min":118,"x_max":754,"o":"m 118 300 l 118 760 l 243 760 l 243 304 q 285 143 243 197 q 411 89 327 89 q 571 153 512 89 q 629 329 629 218 l 629 760 l 754 760 l 754 0 l 629 0 l 629 117 q 524 14 584 47 q 385 -20 464 -20 q 186 62 254 -20 q 118 300 118 143 m 432 778 m 332 1111 l 524 857 l 420 857 l 199 1111 l 332 1111 z "},"ú":{"ha":880,"x_min":118,"x_max":754,"o":"m 118 300 l 118 760 l 243 760 l 243 304 q 285 143 243 197 q 411 89 327 89 q 571 153 512 89 q 629 329 629 218 l 629 760 l 754 760 l 754 0 l 629 0 l 629 117 q 524 14 584 47 q 385 -20 464 -20 q 186 62 254 -20 q 118 300 118 143 m 432 778 m 525 1111 l 660 1111 l 439 856 l 335 856 l 525 1111 z "},"û":{"ha":880,"x_min":118,"x_max":754,"o":"m 118 300 l 118 760 l 243 760 l 243 304 q 285 143 243 197 q 411 89 327 89 q 571 153 512 89 q 629 329 629 218 l 629 760 l 754 760 l 754 0 l 629 0 l 629 117 q 524 14 584 47 q 385 -20 464 -20 q 186 62 254 -20 q 118 300 118 143 m 432 778 m 380 1111 l 481 1111 l 647 856 l 553 856 l 431 1022 l 309 856 l 214 856 l 380 1111 z "},"ü":{"ha":880,"x_min":118,"x_max":754,"o":"m 118 300 l 118 760 l 243 760 l 243 304 q 285 143 243 197 q 411 89 327 89 q 571 153 512 89 q 629 329 629 218 l 629 760 l 754 760 l 754 0 l 629 0 l 629 117 q 524 14 584 47 q 385 -20 464 -20 q 186 62 254 -20 q 118 300 118 143 m 432 778 m 494 1053 l 632 1053 l 632 916 l 494 916 l 494 1053 m 229 1053 l 367 1053 l 367 916 l 229 916 l 229 1053 z "},"ý":{"ha":822,"x_min":41,"x_max":781,"o":"m 447 -71 q 344 -248 394 -206 q 210 -289 294 -289 l 110 -289 l 110 -184 l 183 -184 q 263 -160 235 -184 q 326 -45 292 -136 l 349 12 l 41 760 l 174 760 l 411 165 l 648 760 l 781 760 l 447 -71 m 505 1111 l 640 1111 l 419 856 l 315 856 l 505 1111 z "},"þ":{"ha":882,"x_min":126,"x_max":806,"o":"m 252 114 l 252 -289 l 126 -289 l 126 1055 l 252 1055 l 252 644 q 351 745 291 712 q 494 778 411 778 q 719 668 633 778 q 806 379 806 558 q 719 90 806 200 q 494 -20 633 -20 q 351 13 411 -20 q 252 114 291 46 m 676 379 q 620 595 676 517 q 464 673 563 673 q 308 595 365 673 q 252 379 252 517 q 308 163 252 241 q 464 85 365 85 q 620 163 563 85 q 676 379 676 241 z "},"ÿ":{"ha":822,"x_min":41,"x_max":781,"o":"m 447 -71 q 344 -248 394 -206 q 210 -289 294 -289 l 110 -289 l 110 -184 l 183 -184 q 263 -160 235 -184 q 326 -45 292 -136 l 349 12 l 41 760 l 174 760 l 411 165 l 648 760 l 781 760 l 447 -71 m 475 1053 l 612 1053 l 612 916 l 475 916 l 475 1053 m 210 1053 l 347 1053 l 347 916 l 210 916 l 210 1053 z "},"Ā":{"ha":950,"x_min":11,"x_max":939,"o":"m 272 1249 l 677 1249 l 677 1148 l 272 1148 l 272 1249 m 475 878 l 289 374 l 661 374 l 475 878 m 397 1013 l 553 1013 l 939 0 l 796 0 l 704 260 l 248 260 l 155 0 l 11 0 l 397 1013 z "},"ā":{"ha":851,"x_min":83,"x_max":725,"o":"m 195 1035 l 600 1035 l 600 935 l 195 935 l 195 1035 m 476 382 q 267 347 325 382 q 208 229 208 313 q 252 124 208 163 q 371 85 296 85 q 537 158 475 85 q 600 354 600 232 l 600 382 l 476 382 m 725 433 l 725 0 l 600 0 l 600 115 q 494 13 557 46 q 338 -20 430 -20 q 152 46 221 -20 q 83 221 83 111 q 169 414 83 349 q 425 479 255 479 l 600 479 l 600 492 q 544 625 600 578 q 385 672 487 672 q 258 656 319 672 q 139 610 196 641 l 139 725 q 272 765 208 751 q 397 778 336 778 q 644 692 562 778 q 725 433 725 607 z "},"Ă":{"ha":950,"x_min":11,"x_max":939,"o":"m 275 1314 l 355 1314 q 395 1238 362 1263 q 487 1213 428 1213 q 578 1238 545 1213 q 619 1314 610 1263 l 699 1314 q 639 1168 692 1217 q 487 1120 585 1120 q 335 1168 389 1120 q 275 1314 281 1217 m 475 878 l 289 374 l 661 374 l 475 878 m 397 1013 l 553 1013 l 939 0 l 796 0 l 704 260 l 248 260 l 155 0 l 11 0 l 397 1013 z "},"ă":{"ha":851,"x_min":83,"x_max":725,"o":"m 189 1063 l 269 1063 q 309 986 276 1012 q 401 961 342 961 q 492 986 459 961 q 533 1063 524 1011 l 613 1063 q 553 917 606 966 q 401 868 499 868 q 249 917 302 868 q 189 1063 195 966 m 476 382 q 267 347 325 382 q 208 229 208 313 q 252 124 208 163 q 371 85 296 85 q 537 158 475 85 q 600 354 600 232 l 600 382 l 476 382 m 725 433 l 725 0 l 600 0 l 600 115 q 494 13 557 46 q 338 -20 430 -20 q 152 46 221 -20 q 83 221 83 111 q 169 414 83 349 q 425 479 255 479 l 600 479 l 600 492 q 544 625 600 578 q 385 672 487 672 q 258 656 319 672 q 139 610 196 641 l 139 725 q 272 765 208 751 q 397 778 336 778 q 644 692 562 778 q 725 433 725 607 z "},"Ą":{"ha":950,"x_min":11,"x_max":980,"o":"m 475 878 l 289 374 l 661 374 l 475 878 m 397 1013 l 553 1013 l 939 0 l 796 0 l 704 260 l 248 260 l 155 0 l 11 0 l 397 1013 m 800 0 l 881 0 q 836 -71 850 -41 q 821 -122 821 -101 q 840 -169 821 -153 q 895 -184 859 -184 q 938 -179 917 -184 q 980 -164 959 -174 l 980 -254 q 931 -264 954 -261 q 888 -268 908 -268 q 766 -238 805 -268 q 727 -146 727 -209 q 745 -78 727 -113 q 800 0 763 -42 z "},"ą":{"ha":851,"x_min":83,"x_max":781,"o":"m 476 382 q 267 347 325 382 q 208 229 208 313 q 252 124 208 163 q 371 85 296 85 q 537 158 475 85 q 600 354 600 232 l 600 382 l 476 382 m 725 433 l 725 0 l 600 0 l 600 115 q 494 13 557 46 q 338 -20 430 -20 q 152 46 221 -20 q 83 221 83 111 q 169 414 83 349 q 425 479 255 479 l 600 479 l 600 492 q 544 625 600 578 q 385 672 487 672 q 258 656 319 672 q 139 610 196 641 l 139 725 q 272 765 208 751 q 397 778 336 778 q 644 692 562 778 q 725 433 725 607 m 602 0 l 682 0 q 637 -71 652 -41 q 623 -122 623 -101 q 641 -169 623 -153 q 696 -184 660 -184 q 739 -179 718 -184 q 781 -164 760 -174 l 781 -254 q 732 -264 755 -261 q 689 -268 709 -268 q 567 -238 606 -268 q 528 -146 528 -209 q 546 -78 528 -113 q 602 0 564 -42 z "},"Ć":{"ha":970,"x_min":78,"x_max":895,"o":"m 895 935 l 895 790 q 747 886 825 854 q 581 918 669 918 q 315 812 407 918 q 222 505 222 706 q 315 199 222 305 q 581 93 407 93 q 747 125 669 93 q 895 221 825 157 l 895 78 q 742 5 823 29 q 572 -20 662 -20 q 210 121 342 -20 q 78 505 78 262 q 210 890 78 749 q 572 1031 342 1031 q 744 1007 663 1031 q 895 935 824 983 m 589 1288 l 714 1288 l 559 1109 l 456 1109 l 589 1288 z "},"ć":{"ha":764,"x_min":77,"x_max":677,"o":"m 677 730 l 677 614 q 571 657 625 643 q 464 672 518 672 q 275 595 342 672 q 208 379 208 518 q 275 163 208 240 q 464 86 342 86 q 571 101 518 86 q 677 144 625 115 l 677 29 q 569 -7 625 5 q 450 -20 513 -20 q 178 88 279 -20 q 77 379 77 196 q 179 671 77 565 q 458 778 281 778 q 571 766 516 778 q 677 730 626 754 m 534 1111 l 669 1111 l 448 856 l 345 856 l 534 1111 z "},"Ĉ":{"ha":970,"x_min":78,"x_max":895,"o":"m 509 1289 l 636 1289 l 779 1109 l 685 1109 l 572 1230 l 460 1109 l 366 1109 l 509 1289 m 895 935 l 895 790 q 747 886 825 854 q 581 918 669 918 q 315 812 407 918 q 222 505 222 706 q 315 199 222 305 q 581 93 407 93 q 747 125 669 93 q 895 221 825 157 l 895 78 q 742 5 823 29 q 572 -20 662 -20 q 210 121 342 -20 q 78 505 78 262 q 210 890 78 749 q 572 1031 342 1031 q 744 1007 663 1031 q 895 935 824 983 z "},"ĉ":{"ha":764,"x_min":77,"x_max":677,"o":"m 677 730 l 677 614 q 571 657 625 643 q 464 672 518 672 q 275 595 342 672 q 208 379 208 518 q 275 163 208 240 q 464 86 342 86 q 571 101 518 86 q 677 144 625 115 l 677 29 q 569 -7 625 5 q 450 -20 513 -20 q 178 88 279 -20 q 77 379 77 196 q 179 671 77 565 q 458 778 281 778 q 571 766 516 778 q 677 730 626 754 m 408 1111 l 509 1111 l 675 856 l 581 856 l 458 1022 l 336 856 l 242 856 l 408 1111 z "},"Ċ":{"ha":970,"x_min":78,"x_max":895,"o":"m 503 1270 l 642 1270 l 642 1131 l 503 1131 l 503 1270 m 895 935 l 895 790 q 747 886 825 854 q 581 918 669 918 q 315 812 407 918 q 222 505 222 706 q 315 199 222 305 q 581 93 407 93 q 747 125 669 93 q 895 221 825 157 l 895 78 q 742 5 823 29 q 572 -20 662 -20 q 210 121 342 -20 q 78 505 78 262 q 210 890 78 749 q 572 1031 342 1031 q 744 1007 663 1031 q 895 935 824 983 z "},"ċ":{"ha":764,"x_min":77,"x_max":677,"o":"m 395 1055 l 519 1055 l 519 897 l 395 897 l 395 1055 m 458 778 m 677 730 l 677 614 q 571 657 625 643 q 464 672 518 672 q 275 595 342 672 q 208 379 208 518 q 275 163 208 240 q 464 86 342 86 q 571 101 518 86 q 677 144 625 115 l 677 29 q 569 -7 625 5 q 450 -20 513 -20 q 178 88 279 -20 q 77 379 77 196 q 179 671 77 565 q 458 778 281 778 q 571 766 516 778 q 677 730 626 754 z "},"Č":{"ha":970,"x_min":78,"x_max":895,"o":"m 895 935 l 895 790 q 747 886 825 854 q 581 918 669 918 q 315 812 407 918 q 222 505 222 706 q 315 199 222 305 q 581 93 407 93 q 747 125 669 93 q 895 221 825 157 l 895 78 q 742 5 823 29 q 572 -20 662 -20 q 210 121 342 -20 q 78 505 78 262 q 210 890 78 749 q 572 1031 342 1031 q 744 1007 663 1031 q 895 935 824 983 m 488 1109 l 345 1289 l 439 1289 l 551 1168 l 664 1289 l 758 1289 l 615 1109 l 488 1109 z "},"č":{"ha":764,"x_min":77,"x_max":677,"o":"m 677 730 l 677 614 q 571 657 625 643 q 464 672 518 672 q 275 595 342 672 q 208 379 208 518 q 275 163 208 240 q 464 86 342 86 q 571 101 518 86 q 677 144 625 115 l 677 29 q 569 -7 625 5 q 450 -20 513 -20 q 178 88 279 -20 q 77 379 77 196 q 179 671 77 565 q 458 778 281 778 q 571 766 516 778 q 677 730 626 754 m 390 856 l 224 1111 l 318 1111 l 440 945 l 562 1111 l 656 1111 l 490 856 l 390 856 z "},"Ď":{"ha":1069,"x_min":136,"x_max":987,"o":"m 444 1109 l 300 1289 l 395 1289 l 507 1168 l 620 1289 l 714 1289 l 571 1109 l 444 1109 m 273 900 l 273 113 l 439 113 q 746 208 648 113 q 843 507 843 302 q 746 805 843 711 q 439 900 648 900 l 273 900 m 136 1013 l 418 1013 q 850 890 712 1013 q 987 507 987 768 q 849 123 987 245 q 418 0 711 0 l 136 0 l 136 1013 z "},"ď":{"ha":882,"x_min":77,"x_max":1017,"o":"m 631 644 l 631 1055 l 755 1055 l 755 0 l 631 0 l 631 114 q 531 13 591 46 q 387 -20 471 -20 q 163 90 250 -20 q 77 379 77 200 q 163 668 77 558 q 387 778 250 778 q 531 745 471 778 q 631 644 591 712 m 205 379 q 262 163 205 241 q 418 85 319 85 q 574 163 517 85 q 631 379 631 241 q 574 595 631 517 q 418 673 517 673 q 262 595 319 673 q 205 379 205 517 m 882 1054 l 1017 1054 l 937 799 l 833 799 l 882 1054 z "},"Đ":{"ha":1076,"x_min":7,"x_max":994,"o":"m 143 1013 l 425 1013 q 857 890 719 1013 q 994 507 994 768 q 856 123 994 245 q 425 0 718 0 l 143 0 l 143 475 l 7 475 l 7 572 l 143 572 l 143 1013 m 281 900 l 281 572 l 509 572 l 509 475 l 281 475 l 281 113 l 446 113 q 752 208 655 113 q 850 507 850 302 q 752 805 850 711 q 446 900 655 900 l 281 900 z "},"đ":{"ha":882,"x_min":77,"x_max":860,"o":"m 631 644 l 631 871 l 410 871 l 410 956 l 631 956 l 631 1055 l 755 1055 l 755 956 l 860 956 l 860 871 l 755 871 l 755 0 l 631 0 l 631 114 q 531 13 591 46 q 387 -20 471 -20 q 163 90 250 -20 q 77 379 77 200 q 163 668 77 558 q 387 778 250 778 q 531 745 471 778 q 631 644 591 712 m 205 379 q 262 163 205 241 q 418 85 319 85 q 574 163 517 85 q 631 379 631 241 q 574 595 631 517 q 418 673 517 673 q 262 595 319 673 q 205 379 205 517 z "},"Ē":{"ha":878,"x_min":136,"x_max":789,"o":"m 136 1013 l 777 1013 l 777 897 l 273 897 l 273 597 l 755 597 l 755 482 l 273 482 l 273 115 l 789 115 l 789 0 l 136 0 l 136 1013 m 254 1250 l 659 1250 l 659 1149 l 254 1149 l 254 1250 z "},"ē":{"ha":854,"x_min":77,"x_max":781,"o":"m 246 1035 l 652 1035 l 652 935 l 246 935 l 246 1035 m 781 411 l 781 350 l 207 350 q 284 154 215 221 q 478 86 354 86 q 617 104 550 86 q 751 157 685 121 l 751 39 q 614 -5 684 10 q 471 -20 543 -20 q 183 86 289 -20 q 77 372 77 192 q 177 668 77 559 q 449 778 278 778 q 691 679 602 778 q 781 411 781 581 m 656 448 q 598 611 654 550 q 450 672 543 672 q 283 613 346 672 q 211 447 220 554 l 656 448 z "},"Ĕ":{"ha":878,"x_min":136,"x_max":789,"o":"m 244 1289 l 324 1289 q 367 1233 333 1253 q 456 1214 400 1214 q 545 1233 512 1214 q 589 1289 578 1251 l 669 1289 q 608 1167 662 1208 q 456 1125 553 1125 q 305 1166 359 1125 q 244 1289 251 1208 m 136 1013 l 777 1013 l 777 897 l 273 897 l 273 597 l 755 597 l 755 482 l 273 482 l 273 115 l 789 115 l 789 0 l 136 0 l 136 1013 z "},"ĕ":{"ha":854,"x_min":77,"x_max":781,"o":"m 237 1090 l 317 1090 q 357 1014 324 1040 q 449 989 390 989 q 540 1014 507 989 q 581 1090 572 1039 l 661 1090 q 601 945 654 994 q 449 896 547 896 q 297 945 351 896 q 237 1090 243 994 m 781 411 l 781 350 l 207 350 q 284 154 215 221 q 478 86 354 86 q 617 104 550 86 q 751 157 685 121 l 751 39 q 614 -5 684 10 q 471 -20 543 -20 q 183 86 289 -20 q 77 372 77 192 q 177 668 77 559 q 449 778 278 778 q 691 679 602 778 q 781 411 781 581 m 656 448 q 598 611 654 550 q 450 672 543 672 q 283 613 346 672 q 211 447 220 554 l 656 448 z "},"Ė":{"ha":878,"x_min":136,"x_max":789,"o":"m 385 1270 l 524 1270 l 524 1131 l 385 1131 l 385 1270 m 136 1013 l 777 1013 l 777 897 l 273 897 l 273 597 l 755 597 l 755 482 l 273 482 l 273 115 l 789 115 l 789 0 l 136 0 l 136 1013 z "},"ė":{"ha":854,"x_min":77,"x_max":781,"o":"m 385 1055 l 510 1055 l 510 897 l 385 897 l 385 1055 m 449 778 m 781 411 l 781 350 l 207 350 q 284 154 215 221 q 478 86 354 86 q 617 104 550 86 q 751 157 685 121 l 751 39 q 614 -5 684 10 q 471 -20 543 -20 q 183 86 289 -20 q 77 372 77 192 q 177 668 77 559 q 449 778 278 778 q 691 679 602 778 q 781 411 781 581 m 656 448 q 598 611 654 550 q 450 672 543 672 q 283 613 346 672 q 211 447 220 554 l 656 448 z "},"Ę":{"ha":878,"x_min":136,"x_max":790,"o":"m 136 1013 l 777 1013 l 777 897 l 273 897 l 273 597 l 755 597 l 755 482 l 273 482 l 273 115 l 789 115 l 789 0 l 136 0 l 136 1013 m 610 0 l 691 0 q 646 -71 661 -41 q 631 -122 631 -101 q 650 -169 631 -153 q 705 -184 669 -184 q 748 -179 727 -184 q 790 -164 769 -174 l 790 -254 q 741 -264 764 -261 q 698 -268 718 -268 q 576 -238 615 -268 q 537 -146 537 -209 q 555 -78 537 -113 q 610 0 573 -42 z "},"ę":{"ha":854,"x_min":77,"x_max":781,"o":"m 781 411 l 781 350 l 207 350 q 284 154 215 221 q 478 86 354 86 q 617 104 550 86 q 751 157 685 121 l 751 39 q 614 -5 684 10 q 471 -20 543 -20 q 183 86 289 -20 q 77 372 77 192 q 177 668 77 559 q 449 778 278 778 q 691 679 602 778 q 781 411 781 581 m 656 448 q 598 611 654 550 q 450 672 543 672 q 283 613 346 672 q 211 447 220 554 l 656 448 m 553 0 l 634 0 q 589 -71 604 -41 q 574 -122 574 -101 q 593 -169 574 -153 q 648 -184 612 -184 q 691 -179 670 -184 q 733 -164 712 -174 l 733 -254 q 684 -264 707 -261 q 641 -268 661 -268 q 519 -238 558 -268 q 480 -146 480 -209 q 498 -78 480 -113 q 553 0 516 -42 z "},"Ě":{"ha":878,"x_min":136,"x_max":789,"o":"m 136 1013 l 777 1013 l 777 897 l 273 897 l 273 597 l 755 597 l 755 482 l 273 482 l 273 115 l 789 115 l 789 0 l 136 0 l 136 1013 m 396 1105 l 253 1285 l 347 1285 l 460 1164 l 572 1285 l 667 1285 l 524 1105 l 396 1105 z "},"ě":{"ha":854,"x_min":77,"x_max":781,"o":"m 781 411 l 781 350 l 207 350 q 284 154 215 221 q 478 86 354 86 q 617 104 550 86 q 751 157 685 121 l 751 39 q 614 -5 684 10 q 471 -20 543 -20 q 183 86 289 -20 q 77 372 77 192 q 177 668 77 559 q 449 778 278 778 q 691 679 602 778 q 781 411 781 581 m 656 448 q 598 611 654 550 q 450 672 543 672 q 283 613 346 672 q 211 447 220 554 l 656 448 m 397 852 l 231 1107 l 326 1107 l 448 941 l 570 1107 l 664 1107 l 498 852 l 397 852 z "},"Ĝ":{"ha":1076,"x_min":78,"x_max":962,"o":"m 519 1289 l 647 1289 l 790 1109 l 696 1109 l 583 1230 l 471 1109 l 376 1109 l 519 1289 m 827 144 l 827 416 l 603 416 l 603 529 l 962 529 l 962 94 q 787 9 883 38 q 583 -20 692 -20 q 212 119 346 -20 q 78 505 78 258 q 212 892 78 753 q 583 1031 346 1031 q 771 1006 682 1031 q 936 935 861 982 l 936 789 q 774 886 860 853 q 595 918 689 918 q 316 814 409 918 q 222 505 222 711 q 316 197 222 300 q 595 93 409 93 q 724 105 667 93 q 827 144 781 118 z "},"ĝ":{"ha":882,"x_min":77,"x_max":755,"o":"m 368 1111 l 468 1111 l 634 856 l 540 856 l 418 1022 l 296 856 l 201 856 l 368 1111 m 631 389 q 575 599 631 524 q 418 673 519 673 q 261 599 317 673 q 205 389 205 524 q 261 179 205 254 q 418 104 317 104 q 575 179 519 104 q 631 389 631 254 m 755 94 q 669 -194 755 -100 q 406 -289 583 -289 q 281 -279 340 -289 q 168 -249 223 -269 l 168 -127 q 277 -172 223 -157 q 386 -186 330 -186 q 570 -122 509 -186 q 631 72 631 -58 l 631 134 q 532 33 592 66 q 387 0 471 0 q 162 106 248 0 q 77 389 77 213 q 162 671 77 565 q 387 778 248 778 q 532 745 471 778 q 631 644 592 711 l 631 760 l 755 760 l 755 94 z "},"Ğ":{"ha":1076,"x_min":78,"x_max":962,"o":"m 827 144 l 827 416 l 603 416 l 603 529 l 962 529 l 962 94 q 787 9 883 38 q 583 -20 692 -20 q 212 119 346 -20 q 78 505 78 258 q 212 892 78 753 q 583 1031 346 1031 q 771 1006 682 1031 q 936 935 861 982 l 936 789 q 774 886 860 853 q 595 918 689 918 q 316 814 409 918 q 222 505 222 711 q 316 197 222 300 q 595 93 409 93 q 724 105 667 93 q 827 144 781 118 m 327 1289 l 407 1289 q 449 1233 416 1253 q 539 1214 483 1214 q 628 1233 595 1214 q 671 1289 661 1251 l 751 1289 q 690 1167 745 1208 q 539 1125 636 1125 q 388 1166 441 1125 q 327 1289 334 1208 z "},"ğ":{"ha":882,"x_min":77,"x_max":755,"o":"m 631 389 q 575 599 631 524 q 418 673 519 673 q 261 599 317 673 q 205 389 205 524 q 261 179 205 254 q 418 104 317 104 q 575 179 519 104 q 631 389 631 254 m 755 94 q 669 -194 755 -100 q 406 -289 583 -289 q 281 -279 340 -289 q 168 -249 223 -269 l 168 -127 q 277 -172 223 -157 q 386 -186 330 -186 q 570 -122 509 -186 q 631 72 631 -58 l 631 134 q 532 33 592 66 q 387 0 471 0 q 162 106 248 0 q 77 389 77 213 q 162 671 77 565 q 387 778 248 778 q 532 745 471 778 q 631 644 592 711 l 631 760 l 755 760 l 755 94 m 229 1090 l 309 1090 q 350 1014 317 1040 q 441 989 382 989 q 532 1014 500 989 q 574 1090 565 1039 l 654 1090 q 593 945 647 994 q 441 896 540 896 q 290 945 343 896 q 229 1090 236 994 z "},"Ġ":{"ha":1076,"x_min":78,"x_max":962,"o":"m 514 1270 l 652 1270 l 652 1131 l 514 1131 l 514 1270 m 827 144 l 827 416 l 603 416 l 603 529 l 962 529 l 962 94 q 787 9 883 38 q 583 -20 692 -20 q 212 119 346 -20 q 78 505 78 258 q 212 892 78 753 q 583 1031 346 1031 q 771 1006 682 1031 q 936 935 861 982 l 936 789 q 774 886 860 853 q 595 918 689 918 q 316 814 409 918 q 222 505 222 711 q 316 197 222 300 q 595 93 409 93 q 724 105 667 93 q 827 144 781 118 z "},"ġ":{"ha":882,"x_min":77,"x_max":755,"o":"m 355 1055 l 480 1055 l 480 897 l 355 897 l 355 1055 m 419 778 m 631 389 q 575 599 631 524 q 418 673 519 673 q 261 599 317 673 q 205 389 205 524 q 261 179 205 254 q 418 104 317 104 q 575 179 519 104 q 631 389 631 254 m 755 94 q 669 -194 755 -100 q 406 -289 583 -289 q 281 -279 340 -289 q 168 -249 223 -269 l 168 -127 q 277 -172 223 -157 q 386 -186 330 -186 q 570 -122 509 -186 q 631 72 631 -58 l 631 134 q 532 33 592 66 q 387 0 471 0 q 162 106 248 0 q 77 389 77 213 q 162 671 77 565 q 387 778 248 778 q 532 745 471 778 q 631 644 592 711 l 631 760 l 755 760 l 755 94 z "},"Ģ":{"ha":1076,"x_min":78,"x_max":962,"o":"m 538 -130 l 682 -130 l 570 -347 l 483 -347 l 538 -130 m 827 144 l 827 416 l 603 416 l 603 529 l 962 529 l 962 94 q 787 9 883 38 q 583 -20 692 -20 q 212 119 346 -20 q 78 505 78 258 q 212 892 78 753 q 583 1031 346 1031 q 771 1006 682 1031 q 936 935 861 982 l 936 789 q 774 886 860 853 q 595 918 689 918 q 316 814 409 918 q 222 505 222 711 q 316 197 222 300 q 595 93 409 93 q 724 105 667 93 q 827 144 781 118 z "},"ģ":{"ha":882,"x_min":77,"x_max":755,"o":"m 490 861 l 347 861 l 458 1077 l 545 1077 l 490 861 m 631 389 q 575 599 631 524 q 418 673 519 673 q 261 599 317 673 q 205 389 205 524 q 261 179 205 254 q 418 104 317 104 q 575 179 519 104 q 631 389 631 254 m 755 94 q 669 -194 755 -100 q 406 -289 583 -289 q 281 -279 340 -289 q 168 -249 223 -269 l 168 -127 q 277 -172 223 -157 q 386 -186 330 -186 q 570 -122 509 -186 q 631 72 631 -58 l 631 134 q 532 33 592 66 q 387 0 471 0 q 162 106 248 0 q 77 389 77 213 q 162 671 77 565 q 387 778 248 778 q 532 745 471 778 q 631 644 592 711 l 631 760 l 755 760 l 755 94 z "},"Ĥ":{"ha":1044,"x_min":136,"x_max":908,"o":"m 458 1289 l 586 1289 l 729 1109 l 635 1109 l 522 1230 l 410 1109 l 315 1109 l 458 1289 m 136 1013 l 273 1013 l 273 597 l 771 597 l 771 1013 l 908 1013 l 908 0 l 771 0 l 771 482 l 273 482 l 273 0 l 136 0 l 136 1013 z "},"ĥ":{"ha":880,"x_min":-18,"x_max":762,"o":"m 125 1289 l 252 1289 l 395 1109 l 301 1109 l 189 1230 l 76 1109 l -18 1109 l 125 1289 m 762 458 l 762 0 l 637 0 l 637 454 q 595 616 637 562 q 469 669 553 669 q 310 605 368 669 q 252 429 252 541 l 252 0 l 126 0 l 126 1055 l 252 1055 l 252 642 q 357 744 296 710 q 497 778 418 778 q 695 697 628 778 q 762 458 762 616 z "},"Ħ":{"ha":1272,"x_min":136,"x_max":1136,"o":"m 250 1013 l 387 1013 l 387 861 l 885 861 l 885 1013 l 1022 1013 l 1022 861 l 1136 861 l 1136 749 l 1022 749 l 1022 0 l 885 0 l 885 482 l 387 482 l 387 0 l 250 0 l 250 749 l 136 749 l 136 861 l 250 861 l 250 1013 m 387 749 l 387 597 l 885 597 l 885 749 l 387 749 z "},"ħ":{"ha":965,"x_min":81,"x_max":802,"o":"m 802 458 l 802 0 l 677 0 l 677 454 q 635 616 677 562 q 509 669 593 669 q 350 605 408 669 q 292 429 292 541 l 292 0 l 166 0 l 166 861 l 81 861 l 81 972 l 166 972 l 166 1055 l 292 1055 l 292 972 l 530 972 l 530 861 l 292 861 l 292 642 q 397 744 336 710 q 537 778 458 778 q 735 697 668 778 q 802 458 802 616 z "},"Ĩ":{"ha":410,"x_min":-19,"x_max":429,"o":"m 202 1160 l 163 1182 q 136 1195 146 1192 q 117 1199 125 1199 q 79 1182 93 1199 q 66 1135 66 1165 l 66 1131 l -19 1131 q 16 1239 -19 1199 q 109 1279 51 1279 q 154 1274 134 1279 q 208 1250 175 1268 l 246 1230 q 273 1217 262 1221 q 295 1213 285 1213 q 330 1230 317 1213 q 344 1275 344 1247 l 344 1279 l 429 1279 q 392 1171 427 1211 q 300 1131 357 1131 q 257 1136 277 1131 q 202 1160 237 1141 m 136 1013 l 273 1013 l 273 0 l 136 0 l 136 1013 z "},"ĩ":{"ha":386,"x_min":-31,"x_max":417,"o":"m 191 929 l 152 966 q 126 986 137 980 q 106 993 115 993 q 68 968 80 993 q 54 888 56 943 l -31 888 q 5 1029 -29 979 q 102 1079 40 1079 q 149 1069 127 1079 q 196 1038 171 1060 l 235 1000 q 261 980 250 987 q 281 974 272 974 q 319 999 307 974 q 332 1079 331 1023 l 417 1079 q 381 938 416 987 q 285 888 347 888 q 237 897 259 888 q 191 929 216 907 m 131 760 l 256 760 l 256 0 l 131 0 l 131 760 m 193 778 z "},"Ī":{"ha":410,"x_min":2,"x_max":408,"o":"m 2 1249 l 408 1249 l 408 1148 l 2 1148 l 2 1249 m 136 1013 l 273 1013 l 273 0 l 136 0 l 136 1013 z "},"ī":{"ha":386,"x_min":-9,"x_max":396,"o":"m -9 1034 l 396 1034 l 396 934 l -9 934 l -9 1034 m 131 760 l 256 760 l 256 0 l 131 0 l 131 760 m 193 778 z "},"Ĭ":{"ha":410,"x_min":-7,"x_max":417,"o":"m -7 1289 l 73 1289 q 115 1233 81 1253 q 205 1214 149 1214 q 293 1233 260 1214 q 337 1289 326 1251 l 417 1289 q 356 1167 410 1208 q 205 1125 302 1125 q 53 1166 107 1125 q -7 1289 -1 1208 m 136 1013 l 273 1013 l 273 0 l 136 0 l 136 1013 z "},"ĭ":{"ha":386,"x_min":-19,"x_max":406,"o":"m -19 1090 l 61 1090 q 101 1014 68 1040 q 193 989 134 989 q 284 1014 252 989 q 326 1090 317 1039 l 406 1090 q 345 945 399 994 q 193 896 292 896 q 41 945 95 896 q -19 1090 -12 994 m 131 760 l 256 760 l 256 0 l 131 0 l 131 760 m 193 778 z "},"Į":{"ha":410,"x_min":119,"x_max":372,"o":"m 193 0 l 273 0 q 228 -71 243 -41 q 214 -122 214 -101 q 232 -169 214 -153 q 288 -184 251 -184 q 330 -179 309 -184 q 372 -164 351 -174 l 372 -254 q 323 -264 347 -261 q 280 -268 300 -268 q 158 -238 197 -268 q 119 -146 119 -209 q 137 -78 119 -113 q 193 0 155 -42 m 136 1013 l 273 1013 l 273 0 l 136 0 l 136 1013 z "},"į":{"ha":386,"x_min":102,"x_max":355,"o":"m 175 0 l 256 0 q 211 -71 225 -41 q 196 -122 196 -101 q 215 -169 196 -153 q 270 -184 233 -184 q 313 -179 292 -184 q 355 -164 334 -174 l 355 -254 q 306 -264 329 -261 q 262 -268 283 -268 q 141 -238 180 -268 q 102 -146 102 -209 q 120 -78 102 -113 q 175 0 138 -42 m 131 760 l 256 760 l 256 0 l 131 0 l 131 760 m 131 1055 l 256 1055 l 256 897 l 131 897 l 131 1055 z "},"İ":{"ha":410,"x_min":136,"x_max":275,"o":"m 136 1013 l 273 1013 l 273 0 l 136 0 l 136 1013 m 136 1270 l 275 1270 l 275 1131 l 136 1131 l 136 1270 z "},"ı":{"ha":386,"x_min":131,"x_max":256,"o":"m 131 760 l 256 760 l 256 0 l 131 0 l 131 760 m 193 778 z "},"Ĳ":{"ha":819,"x_min":136,"x_max":683,"o":"m 546 1013 l 683 1013 l 683 71 q 613 -195 683 -113 q 390 -278 544 -278 l 338 -278 l 338 -163 l 380 -163 q 509 -112 471 -163 q 546 71 546 -61 l 546 1013 m 136 1013 l 273 1013 l 273 0 l 136 0 l 136 1013 z "},"ĳ":{"ha":772,"x_min":131,"x_max":641,"o":"m 516 760 l 641 760 l 641 -14 q 586 -224 641 -159 q 408 -289 530 -289 l 360 -289 l 360 -183 l 393 -183 q 490 -150 465 -183 q 516 -14 516 -117 l 516 760 m 516 1055 l 641 1055 l 641 897 l 516 897 l 516 1055 m 131 760 l 256 760 l 256 0 l 131 0 l 131 760 m 131 1055 l 256 1055 l 256 897 l 131 897 l 131 1055 z "},"Ĵ":{"ha":410,"x_min":-72,"x_max":412,"o":"m 141 1289 l 269 1289 l 412 1109 l 317 1109 l 205 1230 l 92 1109 l -2 1109 l 141 1289 m 136 1013 l 273 1013 l 273 71 q 204 -195 273 -113 q -20 -278 134 -278 l -72 -278 l -72 -163 l -29 -163 q 99 -112 62 -163 q 136 71 136 -61 l 136 1013 z "},"ĵ":{"ha":386,"x_min":-25,"x_max":410,"o":"m 143 1111 l 243 1111 l 410 856 l 315 856 l 193 1022 l 71 856 l -23 856 l 143 1111 m 131 760 l 256 760 l 256 -14 q 200 -224 256 -159 q 22 -289 145 -289 l -25 -289 l -25 -183 l 8 -183 q 105 -150 79 -183 q 131 -14 131 -117 l 131 760 z "},"Ķ":{"ha":911,"x_min":136,"x_max":940,"o":"m 493 -110 l 636 -110 l 525 -327 l 437 -327 l 493 -110 m 136 1013 l 273 1013 l 273 585 l 728 1013 l 904 1013 l 401 541 l 940 0 l 760 0 l 273 488 l 273 0 l 136 0 l 136 1013 z "},"ķ":{"ha":804,"x_min":126,"x_max":800,"o":"m 418 -110 l 561 -110 l 450 -327 l 362 -327 l 418 -110 m 126 1055 l 252 1055 l 252 432 l 624 760 l 783 760 l 380 404 l 800 0 l 637 0 l 252 371 l 252 0 l 126 0 l 126 1055 z "},"ĸ":{"ha":804,"x_min":126,"x_max":800,"o":"m 126 760 l 252 760 l 252 431 l 624 760 l 783 760 l 380 403 l 800 0 l 637 0 l 252 370 l 252 0 l 126 0 l 126 760 z "},"Ĺ":{"ha":774,"x_min":136,"x_max":766,"o":"m 286 1289 l 411 1289 l 256 1109 l 153 1109 l 286 1289 m 136 1013 l 273 1013 l 273 115 l 766 115 l 766 0 l 136 0 l 136 1013 z "},"ĺ":{"ha":386,"x_min":131,"x_max":397,"o":"m 272 1289 l 397 1289 l 243 1109 l 139 1109 l 272 1289 m 131 1055 l 256 1055 l 256 0 l 131 0 l 131 1055 z "},"Ļ":{"ha":774,"x_min":136,"x_max":766,"o":"m 406 -110 l 549 -110 l 438 -327 l 351 -327 l 406 -110 m 136 1013 l 273 1013 l 273 115 l 766 115 l 766 0 l 136 0 l 136 1013 z "},"ļ":{"ha":386,"x_min":92,"x_max":291,"o":"m 148 -110 l 291 -110 l 180 -327 l 92 -327 l 148 -110 m 131 1055 l 256 1055 l 256 0 l 131 0 l 131 1055 z "},"Ľ":{"ha":774,"x_min":136,"x_max":766,"o":"m 455 1013 l 590 1013 l 511 758 l 407 758 l 455 1013 m 136 1013 l 273 1013 l 273 115 l 766 115 l 766 0 l 136 0 l 136 1013 z "},"ľ":{"ha":521,"x_min":131,"x_max":521,"o":"m 386 1055 l 521 1055 l 441 800 l 338 800 l 386 1055 m 131 1055 l 256 1055 l 256 0 l 131 0 l 131 1055 z "},"Ŀ":{"ha":774,"x_min":136,"x_max":766,"o":"m 529 649 l 672 649 l 672 477 l 529 477 l 529 649 m 136 1013 l 273 1013 l 273 115 l 766 115 l 766 0 l 136 0 l 136 1013 z "},"ŀ":{"ha":475,"x_min":131,"x_max":437,"o":"m 294 646 l 437 646 l 437 474 l 294 474 l 294 646 m 131 1055 l 256 1055 l 256 0 l 131 0 l 131 1055 z "},"Ł":{"ha":781,"x_min":-9,"x_max":774,"o":"m 143 1013 l 281 1013 l 281 595 l 493 743 l 547 668 l 281 482 l 281 115 l 774 115 l 774 0 l 143 0 l 143 387 l 43 315 l -9 390 l 143 497 l 143 1013 z "},"ł":{"ha":395,"x_min":1,"x_max":396,"o":"m 135 1055 l 260 1055 l 260 647 l 345 708 l 396 636 l 260 541 l 260 0 l 135 0 l 135 452 l 52 392 l 1 464 l 135 559 l 135 1055 z "},"Ń":{"ha":1039,"x_min":136,"x_max":903,"o":"m 518 1289 l 644 1289 l 489 1109 l 385 1109 l 518 1289 m 136 1013 l 321 1013 l 770 165 l 770 1013 l 903 1013 l 903 0 l 718 0 l 269 847 l 269 0 l 136 0 l 136 1013 z "},"ń":{"ha":880,"x_min":126,"x_max":762,"o":"m 486 1116 l 621 1116 l 400 861 l 296 861 l 486 1116 m 762 458 l 762 0 l 637 0 l 637 454 q 595 616 637 562 q 469 669 553 669 q 310 605 368 669 q 252 429 252 541 l 252 0 l 126 0 l 126 760 l 252 760 l 252 642 q 357 744 296 710 q 497 778 418 778 q 695 697 628 778 q 762 458 762 616 z "},"Ņ":{"ha":1039,"x_min":136,"x_max":903,"o":"m 475 -110 l 618 -110 l 507 -327 l 419 -327 l 475 -110 m 136 1013 l 321 1013 l 770 165 l 770 1013 l 903 1013 l 903 0 l 718 0 l 269 847 l 269 0 l 136 0 l 136 1013 z "},"ņ":{"ha":880,"x_min":126,"x_max":762,"o":"m 399 -110 l 542 -110 l 431 -327 l 343 -327 l 399 -110 m 762 458 l 762 0 l 637 0 l 637 454 q 595 616 637 562 q 469 669 553 669 q 310 605 368 669 q 252 429 252 541 l 252 0 l 126 0 l 126 760 l 252 760 l 252 642 q 357 744 296 710 q 497 778 418 778 q 695 697 628 778 q 762 458 762 616 z "},"Ň":{"ha":1039,"x_min":136,"x_max":903,"o":"m 136 1013 l 321 1013 l 770 165 l 770 1013 l 903 1013 l 903 0 l 718 0 l 269 847 l 269 0 l 136 0 l 136 1013 m 450 1099 l 307 1280 l 401 1280 l 513 1159 l 626 1280 l 720 1280 l 577 1099 l 450 1099 z "},"ň":{"ha":880,"x_min":126,"x_max":762,"o":"m 762 458 l 762 0 l 637 0 l 637 454 q 595 616 637 562 q 469 669 553 669 q 310 605 368 669 q 252 429 252 541 l 252 0 l 126 0 l 126 760 l 252 760 l 252 642 q 357 744 296 710 q 497 778 418 778 q 695 697 628 778 q 762 458 762 616 m 393 856 l 227 1111 l 321 1111 l 443 945 l 565 1111 l 659 1111 l 493 856 l 393 856 z "},"ŉ":{"ha":1130,"x_min":139,"x_max":994,"o":"m 994 458 l 994 0 l 869 0 l 869 454 q 827 616 869 562 q 701 669 785 669 q 541 605 600 669 q 483 429 483 541 l 483 0 l 357 0 l 357 760 l 483 760 l 483 642 q 588 744 528 710 q 728 778 649 778 q 926 697 859 778 q 994 458 994 616 z "},"Ŋ":{"ha":1039,"x_min":136,"x_max":885,"o":"m 749 607 q 541 897 749 897 q 346 811 419 897 q 273 574 273 724 l 273 0 l 136 0 l 136 1013 l 273 1013 l 273 849 q 397 985 326 940 q 573 1031 469 1031 q 806 923 727 1031 q 885 606 885 814 l 885 -14 q 830 -224 885 -158 q 652 -289 774 -289 l 593 -289 l 593 -183 l 626 -183 q 722 -153 695 -183 q 749 -14 749 -122 l 749 607 z "},"ŋ":{"ha":880,"x_min":126,"x_max":762,"o":"m 762 458 l 762 -14 q 707 -224 762 -159 q 529 -289 652 -289 l 357 -289 l 357 -183 l 515 -183 q 612 -151 586 -183 q 637 -14 637 -117 l 637 454 q 595 616 637 562 q 469 669 553 669 q 310 605 368 669 q 252 429 252 541 l 252 0 l 126 0 l 126 760 l 252 760 l 252 642 q 357 744 296 710 q 497 778 418 778 q 695 697 628 778 q 762 458 762 616 z "},"Ō":{"ha":1093,"x_min":78,"x_max":1015,"o":"m 345 1249 l 750 1249 l 750 1148 l 345 1148 l 345 1249 m 547 920 q 310 808 398 920 q 222 505 222 697 q 310 203 222 314 q 547 92 398 92 q 784 203 696 92 q 871 505 871 314 q 784 808 871 697 q 547 920 696 920 m 547 1031 q 888 888 760 1031 q 1015 505 1015 745 q 888 123 1015 266 q 547 -20 760 -20 q 206 123 334 -20 q 78 505 78 265 q 206 888 78 745 q 547 1031 334 1031 z "},"ō":{"ha":850,"x_min":77,"x_max":774,"o":"m 222 1034 l 628 1034 l 628 934 l 222 934 l 222 1034 m 425 672 q 267 594 325 672 q 208 379 208 515 q 266 164 208 243 q 425 86 324 86 q 583 165 525 86 q 642 379 642 243 q 583 593 642 514 q 425 672 525 672 m 425 778 q 681 672 588 778 q 774 379 774 566 q 681 86 774 193 q 425 -20 588 -20 q 169 86 262 -20 q 77 379 77 193 q 169 672 77 566 q 425 778 262 778 z "},"Ŏ":{"ha":1093,"x_min":78,"x_max":1015,"o":"m 335 1289 l 415 1289 q 457 1233 424 1253 q 547 1214 491 1214 q 636 1233 603 1214 q 680 1289 669 1251 l 760 1289 q 699 1167 753 1208 q 547 1125 644 1125 q 396 1166 450 1125 q 335 1289 342 1208 m 547 920 q 310 808 398 920 q 222 505 222 697 q 310 203 222 314 q 547 92 398 92 q 784 203 696 92 q 871 505 871 314 q 784 808 871 697 q 547 920 696 920 m 547 1031 q 888 888 760 1031 q 1015 505 1015 745 q 888 123 1015 266 q 547 -20 760 -20 q 206 123 334 -20 q 78 505 78 265 q 206 888 78 745 q 547 1031 334 1031 z "},"ŏ":{"ha":850,"x_min":77,"x_max":774,"o":"m 213 1090 l 293 1090 q 333 1014 300 1040 q 425 989 366 989 q 516 1014 484 989 q 557 1090 549 1039 l 637 1090 q 577 945 631 994 q 425 896 524 896 q 273 945 327 896 q 213 1090 220 994 m 425 672 q 267 594 325 672 q 208 379 208 515 q 266 164 208 243 q 425 86 324 86 q 583 165 525 86 q 642 379 642 243 q 583 593 642 514 q 425 672 525 672 m 425 778 q 681 672 588 778 q 774 379 774 566 q 681 86 774 193 q 425 -20 588 -20 q 169 86 262 -20 q 77 379 77 193 q 169 672 77 566 q 425 778 262 778 z "},"Ő":{"ha":1093,"x_min":78,"x_max":1015,"o":"m 716 1288 l 842 1288 l 687 1109 l 583 1109 l 716 1288 m 489 1288 l 614 1288 l 460 1109 l 356 1109 l 489 1288 m 547 920 q 310 808 398 920 q 222 505 222 697 q 310 203 222 314 q 547 92 398 92 q 784 203 696 92 q 871 505 871 314 q 784 808 871 697 q 547 920 696 920 m 547 1031 q 888 888 760 1031 q 1015 505 1015 745 q 888 123 1015 266 q 547 -20 760 -20 q 206 123 334 -20 q 78 505 78 265 q 206 888 78 745 q 547 1031 334 1031 z "},"ő":{"ha":850,"x_min":77,"x_max":774,"o":"m 627 1111 l 747 1111 l 579 856 l 488 856 l 627 1111 m 400 1111 l 515 1111 l 364 856 l 271 856 l 400 1111 m 425 672 q 267 594 325 672 q 208 379 208 515 q 266 164 208 243 q 425 86 324 86 q 583 165 525 86 q 642 379 642 243 q 583 593 642 514 q 425 672 525 672 m 425 778 q 681 672 588 778 q 774 379 774 566 q 681 86 774 193 q 425 -20 588 -20 q 169 86 262 -20 q 77 379 77 193 q 169 672 77 566 q 425 778 262 778 z "},"Œ":{"ha":1486,"x_min":78,"x_max":1397,"o":"m 1385 1013 l 1385 897 l 882 897 l 882 597 l 1364 597 l 1364 482 l 882 482 l 882 115 l 1397 115 l 1397 0 l 675 0 q 230 129 381 0 q 78 507 78 258 q 230 884 78 755 q 675 1013 381 1013 l 1385 1013 m 745 897 l 657 897 q 331 800 439 897 q 222 507 222 703 q 331 213 222 311 q 657 115 439 115 l 745 115 l 745 897 z "},"œ":{"ha":1421,"x_min":77,"x_max":1348,"o":"m 1222 448 q 1165 611 1221 551 q 1017 672 1109 672 q 850 613 913 672 q 778 447 787 554 l 1222 448 m 1348 411 l 1348 350 l 774 350 q 851 154 782 221 q 1044 86 920 86 q 1184 104 1116 86 q 1318 157 1252 121 l 1318 39 q 1180 -5 1251 10 q 1038 -20 1109 -20 q 847 18 929 -20 q 710 129 765 55 q 591 17 662 54 q 425 -20 520 -20 q 169 86 262 -20 q 77 379 77 193 q 169 672 77 566 q 425 778 262 778 q 592 740 520 778 q 708 629 663 703 q 840 740 761 702 q 1015 778 918 778 q 1258 679 1168 778 q 1348 411 1348 581 m 425 672 q 267 594 325 672 q 208 379 208 515 q 266 164 208 243 q 425 86 324 86 q 583 165 525 86 q 642 379 642 243 q 583 593 642 514 q 425 672 525 672 z "},"Ŕ":{"ha":965,"x_min":136,"x_max":925,"o":"m 486 1289 l 611 1289 l 456 1109 l 353 1109 l 486 1289 m 616 475 q 702 411 661 460 q 786 277 744 362 l 925 0 l 778 0 l 648 260 q 551 395 598 361 q 422 428 504 428 l 273 428 l 273 0 l 136 0 l 136 1013 l 446 1013 q 705 940 619 1013 q 790 721 790 867 q 746 562 790 625 q 616 475 701 499 m 273 900 l 273 541 l 446 541 q 595 586 545 541 q 646 721 646 632 q 595 855 646 810 q 446 900 545 900 l 273 900 z "},"ŕ":{"ha":571,"x_min":126,"x_max":621,"o":"m 486 1116 l 621 1116 l 400 861 l 296 861 l 486 1116 m 571 643 q 525 661 550 655 q 471 667 500 667 q 308 598 365 667 q 252 400 252 529 l 252 0 l 126 0 l 126 760 l 252 760 l 252 642 q 354 744 291 711 q 507 778 417 778 q 536 776 520 778 q 570 771 551 774 l 571 643 z "},"Ŗ":{"ha":965,"x_min":136,"x_max":925,"o":"m 486 -110 l 629 -110 l 517 -327 l 430 -327 l 486 -110 m 616 475 q 702 411 661 460 q 786 277 744 362 l 925 0 l 778 0 l 648 260 q 551 395 598 361 q 422 428 504 428 l 273 428 l 273 0 l 136 0 l 136 1013 l 446 1013 q 705 940 619 1013 q 790 721 790 867 q 746 562 790 625 q 616 475 701 499 m 273 900 l 273 541 l 446 541 q 595 586 545 541 q 646 721 646 632 q 595 855 646 810 q 446 900 545 900 l 273 900 z "},"ŗ":{"ha":571,"x_min":88,"x_max":571,"o":"m 144 -110 l 287 -110 l 176 -327 l 88 -327 l 144 -110 m 571 643 q 525 661 550 655 q 471 667 500 667 q 308 598 365 667 q 252 400 252 529 l 252 0 l 126 0 l 126 760 l 252 760 l 252 642 q 354 744 291 711 q 507 778 417 778 q 536 776 520 778 q 570 771 551 774 l 571 643 z "},"Ř":{"ha":965,"x_min":136,"x_max":925,"o":"m 616 475 q 702 411 661 460 q 786 277 744 362 l 925 0 l 778 0 l 648 260 q 551 395 598 361 q 422 428 504 428 l 273 428 l 273 0 l 136 0 l 136 1013 l 446 1013 q 705 940 619 1013 q 790 721 790 867 q 746 562 790 625 q 616 475 701 499 m 273 900 l 273 541 l 446 541 q 595 586 545 541 q 646 721 646 632 q 595 855 646 810 q 446 900 545 900 l 273 900 m 368 1099 l 225 1280 l 319 1280 l 432 1159 l 545 1280 l 639 1280 l 496 1099 l 368 1099 z "},"ř":{"ha":571,"x_min":126,"x_max":582,"o":"m 571 643 q 525 661 550 655 q 471 667 500 667 q 308 598 365 667 q 252 400 252 529 l 252 0 l 126 0 l 126 760 l 252 760 l 252 642 q 354 744 291 711 q 507 778 417 778 q 536 776 520 778 q 570 771 551 774 l 571 643 m 315 856 l 149 1111 l 243 1111 l 366 945 l 488 1111 l 582 1111 l 416 856 l 315 856 z "},"Ś":{"ha":882,"x_min":92,"x_max":804,"o":"m 486 1289 l 611 1289 l 456 1109 l 353 1109 l 486 1289 m 743 979 l 743 846 q 596 901 665 883 q 463 920 527 920 q 290 876 351 920 q 229 753 229 833 q 270 651 229 686 q 422 596 310 617 l 505 579 q 731 476 659 550 q 804 279 804 403 q 706 56 804 132 q 416 -20 607 -20 q 263 -3 345 -20 q 96 45 182 13 l 96 186 q 259 115 179 139 q 416 92 339 92 q 597 138 534 92 q 661 269 661 184 q 615 386 661 344 q 465 449 570 428 l 382 465 q 160 561 229 496 q 92 742 92 626 q 186 954 92 876 q 447 1031 281 1031 q 592 1018 518 1031 q 743 979 666 1005 z "},"ś":{"ha":724,"x_min":75,"x_max":656,"o":"m 486 1116 l 621 1116 l 400 861 l 296 861 l 486 1116 m 615 737 l 615 619 q 505 660 562 646 q 387 673 448 673 q 248 645 294 673 q 201 559 201 616 q 235 491 201 516 q 368 444 268 467 l 411 435 q 600 354 544 406 q 656 210 656 302 q 572 42 656 104 q 342 -20 488 -20 q 215 -8 281 -20 q 75 28 149 4 l 75 157 q 212 103 144 121 q 345 85 279 85 q 480 115 433 85 q 528 200 528 145 q 493 278 528 251 q 343 330 459 305 l 300 340 q 132 415 184 365 q 81 554 81 466 q 157 720 81 661 q 372 778 233 778 q 503 768 441 778 q 615 737 564 758 z "},"Ŝ":{"ha":882,"x_min":92,"x_max":804,"o":"m 383 1289 l 511 1289 l 654 1109 l 559 1109 l 447 1230 l 334 1109 l 240 1109 l 383 1289 m 743 979 l 743 846 q 596 901 665 883 q 463 920 527 920 q 290 876 351 920 q 229 753 229 833 q 270 651 229 686 q 422 596 310 617 l 505 579 q 731 476 659 550 q 804 279 804 403 q 706 56 804 132 q 416 -20 607 -20 q 263 -3 345 -20 q 96 45 182 13 l 96 186 q 259 115 179 139 q 416 92 339 92 q 597 138 534 92 q 661 269 661 184 q 615 386 661 344 q 465 449 570 428 l 382 465 q 160 561 229 496 q 92 742 92 626 q 186 954 92 876 q 447 1031 281 1031 q 592 1018 518 1031 q 743 979 666 1005 z "},"ŝ":{"ha":724,"x_min":75,"x_max":656,"o":"m 322 1111 l 422 1111 l 589 856 l 494 856 l 372 1022 l 250 856 l 156 856 l 322 1111 m 615 737 l 615 619 q 505 660 562 646 q 387 673 448 673 q 248 645 294 673 q 201 559 201 616 q 235 491 201 516 q 368 444 268 467 l 411 435 q 600 354 544 406 q 656 210 656 302 q 572 42 656 104 q 342 -20 488 -20 q 215 -8 281 -20 q 75 28 149 4 l 75 157 q 212 103 144 121 q 345 85 279 85 q 480 115 433 85 q 528 200 528 145 q 493 278 528 251 q 343 330 459 305 l 300 340 q 132 415 184 365 q 81 554 81 466 q 157 720 81 661 q 372 778 233 778 q 503 768 441 778 q 615 737 564 758 z "},"Ş":{"ha":882,"x_min":92,"x_max":804,"o":"m 743 979 l 743 846 q 596 901 665 883 q 463 920 527 920 q 290 876 351 920 q 229 753 229 833 q 270 651 229 686 q 422 596 310 617 l 505 579 q 731 476 659 550 q 804 279 804 403 q 706 56 804 132 q 416 -20 607 -20 q 263 -3 345 -20 q 96 45 182 13 l 96 186 q 259 115 179 139 q 416 92 339 92 q 597 138 534 92 q 661 269 661 184 q 615 386 661 344 q 465 449 570 428 l 382 465 q 160 561 229 496 q 92 742 92 626 q 186 954 92 876 q 447 1031 281 1031 q 592 1018 518 1031 q 743 979 666 1005 m 498 0 q 554 -78 536 -42 q 572 -146 572 -113 q 532 -237 572 -206 q 411 -268 491 -268 q 350 -264 380 -268 q 292 -252 321 -260 l 292 -163 q 340 -179 315 -174 q 397 -184 365 -184 q 457 -168 437 -184 q 477 -121 477 -152 q 463 -71 477 -100 q 418 0 448 -41 l 498 0 z "},"ş":{"ha":724,"x_min":75,"x_max":656,"o":"m 615 737 l 615 619 q 505 660 562 646 q 387 673 448 673 q 248 645 294 673 q 201 559 201 616 q 235 491 201 516 q 368 444 268 467 l 411 435 q 600 354 544 406 q 656 210 656 302 q 572 42 656 104 q 342 -20 488 -20 q 215 -8 281 -20 q 75 28 149 4 l 75 157 q 212 103 144 121 q 345 85 279 85 q 480 115 433 85 q 528 200 528 145 q 493 278 528 251 q 343 330 459 305 l 300 340 q 132 415 184 365 q 81 554 81 466 q 157 720 81 661 q 372 778 233 778 q 503 768 441 778 q 615 737 564 758 m 420 0 q 475 -78 457 -42 q 494 -146 494 -113 q 453 -237 494 -206 q 332 -268 412 -268 q 272 -264 301 -268 q 213 -252 242 -260 l 213 -163 q 261 -179 236 -174 q 318 -184 286 -184 q 378 -168 358 -184 q 399 -121 399 -152 q 384 -71 399 -100 q 339 0 370 -41 l 420 0 z "},"Š":{"ha":882,"x_min":92,"x_max":804,"o":"m 743 979 l 743 846 q 596 901 665 883 q 463 920 527 920 q 290 876 351 920 q 229 753 229 833 q 270 651 229 686 q 422 596 310 617 l 505 579 q 731 476 659 550 q 804 279 804 403 q 706 56 804 132 q 416 -20 607 -20 q 263 -3 345 -20 q 96 45 182 13 l 96 186 q 259 115 179 139 q 416 92 339 92 q 597 138 534 92 q 661 269 661 184 q 615 386 661 344 q 465 449 570 428 l 382 465 q 160 561 229 496 q 92 742 92 626 q 186 954 92 876 q 447 1031 281 1031 q 592 1018 518 1031 q 743 979 666 1005 m 378 1109 l 235 1289 l 329 1289 l 441 1168 l 554 1289 l 648 1289 l 505 1109 l 378 1109 z "},"š":{"ha":724,"x_min":75,"x_max":656,"o":"m 615 737 l 615 619 q 505 660 562 646 q 387 673 448 673 q 248 645 294 673 q 201 559 201 616 q 235 491 201 516 q 368 444 268 467 l 411 435 q 600 354 544 406 q 656 210 656 302 q 572 42 656 104 q 342 -20 488 -20 q 215 -8 281 -20 q 75 28 149 4 l 75 157 q 212 103 144 121 q 345 85 279 85 q 480 115 433 85 q 528 200 528 145 q 493 278 528 251 q 343 330 459 305 l 300 340 q 132 415 184 365 q 81 554 81 466 q 157 720 81 661 q 372 778 233 778 q 503 768 441 778 q 615 737 564 758 m 326 856 l 160 1111 l 254 1111 l 376 945 l 498 1111 l 593 1111 l 427 856 l 326 856 m 374 778 z "},"Ţ":{"ha":848,"x_min":-4,"x_max":852,"o":"m 458 0 q 514 -78 496 -42 q 532 -146 532 -113 q 492 -237 532 -206 q 371 -268 451 -268 q 310 -264 340 -268 q 252 -252 281 -260 l 252 -163 q 300 -179 275 -174 q 357 -184 325 -184 q 417 -168 397 -184 q 437 -121 437 -152 q 423 -71 437 -100 q 378 0 408 -41 l 458 0 m -4 1013 l 852 1013 l 852 897 l 493 897 l 493 0 l 355 0 l 355 897 l -4 897 l -4 1013 z "},"ţ":{"ha":545,"x_min":37,"x_max":511,"o":"m 383 0 q 439 -78 420 -42 q 457 -146 457 -113 q 416 -237 457 -206 q 296 -268 376 -268 q 235 -264 264 -268 q 176 -252 205 -260 l 176 -163 q 224 -179 199 -174 q 281 -184 250 -184 q 342 -168 321 -184 q 362 -121 362 -152 q 348 -71 362 -100 q 302 0 333 -41 l 383 0 m 254 975 l 254 760 l 511 760 l 511 663 l 254 663 l 254 250 q 280 131 254 157 q 383 104 305 104 l 511 104 l 511 0 l 383 0 q 184 54 239 0 q 129 250 129 108 l 129 663 l 37 663 l 37 760 l 129 760 l 129 975 l 254 975 z "},"Ť":{"ha":848,"x_min":-4,"x_max":852,"o":"m -4 1013 l 852 1013 l 852 897 l 493 897 l 493 0 l 355 0 l 355 897 l -4 897 l -4 1013 m 361 1099 l 218 1280 l 313 1280 l 425 1159 l 538 1280 l 632 1280 l 489 1099 l 361 1099 z "},"ť":{"ha":545,"x_min":37,"x_max":519,"o":"m 254 975 l 254 760 l 511 760 l 511 663 l 254 663 l 254 250 q 280 131 254 157 q 383 104 305 104 l 511 104 l 511 0 l 383 0 q 184 54 239 0 q 129 250 129 108 l 129 663 l 37 663 l 37 760 l 129 760 l 129 975 l 254 975 m 385 1130 l 519 1130 l 440 875 l 336 875 l 385 1130 z "},"Ŧ":{"ha":848,"x_min":-4,"x_max":852,"o":"m -4 1013 l 852 1013 l 852 897 l 493 897 l 493 507 l 673 507 l 673 391 l 493 391 l 493 0 l 355 0 l 355 391 l 176 391 l 176 507 l 355 507 l 355 897 l -4 897 l -4 1013 z "},"ŧ":{"ha":545,"x_min":37,"x_max":511,"o":"m 254 975 l 254 760 l 511 760 l 511 663 l 254 663 l 254 505 l 511 505 l 511 408 l 254 408 l 254 250 q 279 131 254 157 q 383 104 305 104 l 511 104 l 511 0 l 383 0 q 184 54 239 0 q 129 250 129 108 l 129 408 l 37 408 l 37 505 l 129 505 l 129 663 l 37 663 l 37 760 l 129 760 l 129 975 l 254 975 z "},"Ũ":{"ha":1017,"x_min":121,"x_max":896,"o":"m 506 1160 l 467 1182 q 440 1195 450 1192 q 421 1199 429 1199 q 383 1182 397 1199 q 370 1135 370 1165 l 370 1131 l 285 1131 q 320 1239 285 1199 q 413 1279 355 1279 q 458 1274 437 1279 q 511 1250 479 1268 l 550 1230 q 577 1217 566 1221 q 599 1213 589 1213 q 634 1230 621 1213 q 648 1275 648 1247 l 648 1279 l 732 1279 q 696 1171 731 1211 q 604 1131 661 1131 q 561 1136 581 1131 q 506 1160 541 1141 m 121 1013 l 258 1013 l 258 397 q 317 163 258 235 q 509 92 376 92 q 699 163 640 92 q 758 397 758 235 l 758 1013 l 896 1013 l 896 380 q 798 81 896 182 q 509 -20 700 -20 q 219 81 317 -20 q 121 380 121 182 l 121 1013 z "},"ũ":{"ha":880,"x_min":118,"x_max":754,"o":"m 433 929 l 395 966 q 369 986 380 980 q 349 993 357 993 q 311 968 323 993 q 297 888 298 943 l 212 888 q 248 1029 214 979 q 345 1079 283 1079 q 392 1069 370 1079 q 439 1038 414 1060 l 477 1000 q 504 980 492 987 q 524 974 515 974 q 562 999 549 974 q 575 1079 574 1023 l 660 1079 q 624 938 659 987 q 528 888 589 888 q 480 897 502 888 q 433 929 458 907 m 118 300 l 118 760 l 243 760 l 243 304 q 285 143 243 197 q 411 89 327 89 q 571 153 512 89 q 629 329 629 218 l 629 760 l 754 760 l 754 0 l 629 0 l 629 117 q 524 14 584 47 q 385 -20 464 -20 q 186 62 254 -20 q 118 300 118 143 m 432 778 z "},"Ū":{"ha":1017,"x_min":121,"x_max":896,"o":"m 306 1249 l 711 1249 l 711 1148 l 306 1148 l 306 1249 m 121 1013 l 258 1013 l 258 397 q 317 163 258 235 q 509 92 376 92 q 699 163 640 92 q 758 397 758 235 l 758 1013 l 896 1013 l 896 380 q 798 81 896 182 q 509 -20 700 -20 q 219 81 317 -20 q 121 380 121 182 l 121 1013 z "},"ū":{"ha":880,"x_min":118,"x_max":754,"o":"m 233 1034 l 639 1034 l 639 934 l 233 934 l 233 1034 m 118 300 l 118 760 l 243 760 l 243 304 q 285 143 243 197 q 411 89 327 89 q 571 153 512 89 q 629 329 629 218 l 629 760 l 754 760 l 754 0 l 629 0 l 629 117 q 524 14 584 47 q 385 -20 464 -20 q 186 62 254 -20 q 118 300 118 143 m 432 778 z "},"Ŭ":{"ha":1017,"x_min":121,"x_max":896,"o":"m 296 1289 l 376 1289 q 419 1233 385 1253 q 509 1214 452 1214 q 597 1233 564 1214 q 641 1289 630 1251 l 721 1289 q 660 1167 714 1208 q 509 1125 606 1125 q 357 1166 411 1125 q 296 1289 303 1208 m 121 1013 l 258 1013 l 258 397 q 317 163 258 235 q 509 92 376 92 q 699 163 640 92 q 758 397 758 235 l 758 1013 l 896 1013 l 896 380 q 798 81 896 182 q 509 -20 700 -20 q 219 81 317 -20 q 121 380 121 182 l 121 1013 z "},"ŭ":{"ha":880,"x_min":118,"x_max":754,"o":"m 224 1090 l 304 1090 q 344 1014 311 1040 q 436 989 377 989 q 527 1014 494 989 q 568 1090 559 1039 l 648 1090 q 588 945 642 994 q 436 896 534 896 q 284 945 338 896 q 224 1090 231 994 m 118 300 l 118 760 l 243 760 l 243 304 q 285 143 243 197 q 411 89 327 89 q 571 153 512 89 q 629 329 629 218 l 629 760 l 754 760 l 754 0 l 629 0 l 629 117 q 524 14 584 47 q 385 -20 464 -20 q 186 62 254 -20 q 118 300 118 143 m 432 778 z "},"Ů":{"ha":1017,"x_min":121,"x_max":896,"o":"m 121 1013 l 258 1013 l 258 397 q 317 163 258 235 q 509 92 376 92 q 699 163 640 92 q 758 397 758 235 l 758 1013 l 896 1013 l 896 380 q 798 81 896 182 q 509 -20 700 -20 q 219 81 317 -20 q 121 380 121 182 l 121 1013 m 613 1105 q 583 1177 613 1147 q 510 1207 553 1207 q 436 1178 466 1207 q 407 1105 407 1148 q 436 1031 407 1061 q 510 1002 466 1002 q 583 1031 553 1002 q 613 1105 613 1061 m 696 1105 q 642 972 696 1027 q 510 918 588 918 q 378 972 432 918 q 324 1105 324 1027 q 378 1237 324 1183 q 510 1291 432 1291 q 642 1237 588 1291 q 696 1105 696 1183 z "},"ů":{"ha":880,"x_min":118,"x_max":754,"o":"m 118 300 l 118 760 l 243 760 l 243 304 q 285 143 243 197 q 411 89 327 89 q 571 153 512 89 q 629 329 629 218 l 629 760 l 754 760 l 754 0 l 629 0 l 629 117 q 524 14 584 47 q 385 -20 464 -20 q 186 62 254 -20 q 118 300 118 143 m 432 778 m 534 993 q 505 1065 534 1036 q 431 1095 475 1095 q 358 1066 387 1095 q 328 993 328 1036 q 358 919 328 949 q 431 890 387 890 q 505 920 475 890 q 534 993 534 949 m 617 993 q 563 861 617 915 q 431 806 509 806 q 299 861 353 806 q 245 993 245 915 q 299 1125 245 1071 q 431 1179 353 1179 q 563 1125 509 1179 q 617 993 617 1071 z "},"Ű":{"ha":1017,"x_min":121,"x_max":896,"o":"m 677 1288 l 803 1288 l 648 1109 l 545 1109 l 677 1288 m 450 1288 l 576 1288 l 421 1109 l 317 1109 l 450 1288 m 121 1013 l 258 1013 l 258 397 q 317 163 258 235 q 509 92 376 92 q 699 163 640 92 q 758 397 758 235 l 758 1013 l 896 1013 l 896 380 q 798 81 896 182 q 509 -20 700 -20 q 219 81 317 -20 q 121 380 121 182 l 121 1013 z "},"ű":{"ha":880,"x_min":118,"x_max":758,"o":"m 637 1111 l 758 1111 l 590 856 l 498 856 l 637 1111 m 411 1111 l 526 1111 l 375 856 l 282 856 l 411 1111 m 118 300 l 118 760 l 243 760 l 243 304 q 285 143 243 197 q 411 89 327 89 q 571 153 512 89 q 629 329 629 218 l 629 760 l 754 760 l 754 0 l 629 0 l 629 117 q 524 14 584 47 q 385 -20 464 -20 q 186 62 254 -20 q 118 300 118 143 m 432 778 z "},"Ų":{"ha":1017,"x_min":121,"x_max":896,"o":"m 121 1013 l 258 1013 l 258 397 q 317 163 258 235 q 509 92 376 92 q 699 163 640 92 q 758 397 758 235 l 758 1013 l 896 1013 l 896 380 q 798 81 896 182 q 509 -20 700 -20 q 219 81 317 -20 q 121 380 121 182 l 121 1013 m 468 0 l 549 0 q 504 -71 518 -41 q 489 -122 489 -101 q 508 -169 489 -153 q 563 -184 526 -184 q 606 -179 585 -184 q 648 -164 627 -174 l 648 -254 q 599 -264 622 -261 q 555 -268 576 -268 q 434 -238 473 -268 q 395 -146 395 -209 q 413 -78 395 -113 q 468 0 431 -42 z "},"ų":{"ha":880,"x_min":118,"x_max":852,"o":"m 118 300 l 118 760 l 243 760 l 243 304 q 285 143 243 197 q 411 89 327 89 q 571 153 512 89 q 629 329 629 218 l 629 760 l 754 760 l 754 0 l 629 0 l 629 117 q 524 14 584 47 q 385 -20 464 -20 q 186 62 254 -20 q 118 300 118 143 m 432 778 m 672 0 l 753 0 q 708 -71 722 -41 q 693 -122 693 -101 q 712 -169 693 -153 q 767 -184 730 -184 q 810 -179 789 -184 q 852 -164 831 -174 l 852 -254 q 803 -264 826 -261 q 760 -268 780 -268 q 638 -238 677 -268 q 599 -146 599 -209 q 617 -78 599 -113 q 672 0 635 -42 z "},"Ŵ":{"ha":1373,"x_min":46,"x_max":1328,"o":"m 623 1294 l 751 1294 l 894 1114 l 800 1114 l 687 1234 l 574 1114 l 480 1114 l 623 1294 m 46 1013 l 184 1013 l 397 157 l 610 1013 l 764 1013 l 977 157 l 1189 1013 l 1328 1013 l 1074 0 l 901 0 l 688 879 l 472 0 l 300 0 l 46 1013 z "},"ŵ":{"ha":1136,"x_min":58,"x_max":1078,"o":"m 517 1116 l 618 1116 l 784 861 l 690 861 l 568 1027 l 446 861 l 351 861 l 517 1116 m 58 760 l 183 760 l 339 167 l 494 760 l 642 760 l 798 167 l 953 760 l 1078 760 l 879 0 l 732 0 l 568 623 l 404 0 l 257 0 l 58 760 z "},"Ŷ":{"ha":848,"x_min":-3,"x_max":851,"o":"m 361 1294 l 488 1294 l 631 1114 l 537 1114 l 425 1234 l 312 1114 l 218 1114 l 361 1294 m -3 1013 l 144 1013 l 425 596 l 704 1013 l 851 1013 l 493 482 l 493 0 l 355 0 l 355 482 l -3 1013 z "},"ŷ":{"ha":822,"x_min":41,"x_max":781,"o":"m 361 1116 l 461 1116 l 627 861 l 533 861 l 411 1027 l 289 861 l 195 861 l 361 1116 m 447 -71 q 344 -248 394 -206 q 210 -289 294 -289 l 110 -289 l 110 -184 l 183 -184 q 263 -160 235 -184 q 326 -45 292 -136 l 349 12 l 41 760 l 174 760 l 411 165 l 648 760 l 781 760 l 447 -71 z "},"Ÿ":{"ha":848,"x_min":-3,"x_max":851,"o":"m -3 1013 l 144 1013 l 425 596 l 704 1013 l 851 1013 l 493 482 l 493 0 l 355 0 l 355 482 l -3 1013 m 489 1268 l 627 1268 l 627 1131 l 489 1131 l 489 1268 m 224 1268 l 361 1268 l 361 1131 l 224 1131 l 224 1268 z "},"Ź":{"ha":951,"x_min":62,"x_max":889,"o":"m 486 1289 l 611 1289 l 456 1109 l 353 1109 l 486 1289 m 78 1013 l 873 1013 l 873 908 l 233 115 l 889 115 l 889 0 l 62 0 l 62 104 l 703 897 l 78 897 l 78 1013 z "},"ź":{"ha":729,"x_min":60,"x_max":669,"o":"m 486 1116 l 621 1116 l 400 861 l 296 861 l 486 1116 m 77 760 l 669 760 l 669 646 l 200 100 l 669 100 l 669 0 l 60 0 l 60 114 l 529 660 l 77 660 l 77 760 z "},"Ż":{"ha":951,"x_min":62,"x_max":889,"o":"m 407 1270 l 545 1270 l 545 1131 l 407 1131 l 407 1270 m 78 1013 l 873 1013 l 873 908 l 233 115 l 889 115 l 889 0 l 62 0 l 62 104 l 703 897 l 78 897 l 78 1013 z "},"ż":{"ha":729,"x_min":60,"x_max":669,"o":"m 299 1055 l 424 1055 l 424 897 l 299 897 l 299 1055 m 363 778 m 77 760 l 669 760 l 669 646 l 200 100 l 669 100 l 669 0 l 60 0 l 60 114 l 529 660 l 77 660 l 77 760 z "},"Ž":{"ha":951,"x_min":62,"x_max":889,"o":"m 78 1013 l 873 1013 l 873 908 l 233 115 l 889 115 l 889 0 l 62 0 l 62 104 l 703 897 l 78 897 l 78 1013 m 412 1109 l 269 1289 l 363 1289 l 476 1168 l 589 1289 l 683 1289 l 540 1109 l 412 1109 z "},"ž":{"ha":729,"x_min":60,"x_max":669,"o":"m 77 760 l 669 760 l 669 646 l 200 100 l 669 100 l 669 0 l 60 0 l 60 114 l 529 660 l 77 660 l 77 760 m 315 856 l 149 1111 l 243 1111 l 366 945 l 488 1111 l 582 1111 l 416 856 l 315 856 z "},"ſ":{"ha":489,"x_min":32,"x_max":515,"o":"m 277 0 l 151 0 l 151 663 l 32 663 l 32 760 l 151 760 l 151 812 q 210 997 151 939 q 397 1055 269 1055 l 515 1055 l 515 951 l 396 951 q 302 924 329 951 q 277 827 277 897 l 277 0 z "},"ƀ":{"ha":882,"x_min":22,"x_max":806,"o":"m 676 379 q 620 595 676 517 q 464 673 563 673 q 308 595 365 673 q 252 379 252 517 q 308 163 252 241 q 464 85 365 85 q 620 163 563 85 q 676 379 676 241 m 252 644 q 351 745 291 712 q 494 778 411 778 q 719 668 633 778 q 806 379 806 558 q 719 90 806 200 q 494 -20 633 -20 q 351 14 411 -20 q 252 114 291 46 l 252 0 l 126 0 l 126 871 l 22 871 l 22 956 l 126 956 l 126 1055 l 252 1055 l 252 956 l 472 956 l 472 871 l 252 871 l 252 644 z "},"Ɓ":{"ha":1021,"x_min":-71,"x_max":922,"o":"m 341 484 l 341 113 l 561 113 q 725 158 671 113 q 778 298 778 204 q 725 438 778 393 q 561 484 671 484 l 341 484 m 341 900 l 341 595 l 544 595 q 693 632 644 595 q 743 747 743 670 q 693 862 743 824 q 544 900 644 900 l 341 900 m 204 1013 l 554 1013 q 795 947 711 1013 q 880 762 880 882 q 837 614 880 669 q 709 546 793 559 q 866 455 810 524 q 922 283 922 387 q 830 74 922 148 q 568 0 738 0 l 204 0 l 204 901 q 75 868 115 901 q 35 765 35 836 l 35 732 l -71 732 l -71 779 q -6 957 -71 902 q 204 1013 59 1013 z "},"Ƃ":{"ha":953,"x_min":136,"x_max":854,"o":"m 710 298 q 657 438 710 392 q 493 484 604 484 l 273 484 l 273 113 l 493 113 q 657 158 604 113 q 710 298 710 204 m 783 1013 l 783 900 l 273 900 l 273 596 l 500 596 q 762 522 670 596 q 854 298 854 448 q 765 74 854 148 q 500 0 676 0 l 136 0 l 136 1013 l 783 1013 z "},"ƃ":{"ha":882,"x_min":126,"x_max":806,"o":"m 252 644 q 351 745 291 712 q 494 778 411 778 q 719 668 633 778 q 806 379 806 558 q 719 90 806 200 q 494 -20 633 -20 q 351 14 411 -20 q 252 114 291 46 l 252 0 l 126 0 l 126 1055 l 700 1055 l 700 943 l 252 943 l 252 644 m 676 379 q 620 595 676 517 q 464 673 563 673 q 308 595 365 673 q 252 379 252 517 q 308 163 252 241 q 464 85 365 85 q 620 163 563 85 q 676 379 676 241 z "},"Ƅ":{"ha":953,"x_min":0,"x_max":854,"o":"m 710 298 q 656 438 710 392 q 493 484 604 484 l 273 484 l 273 113 l 493 113 q 656 159 604 113 q 710 298 710 204 m 273 1013 l 273 596 l 500 596 q 762 522 670 596 q 854 298 854 448 q 762 74 854 148 q 500 0 670 0 l 136 0 l 136 741 l 0 741 l 212 1013 l 273 1013 z "},"ƅ":{"ha":882,"x_min":0,"x_max":806,"o":"m 252 644 q 351 745 291 712 q 494 778 411 778 q 719 668 633 778 q 806 379 806 558 q 719 90 806 200 q 494 -20 633 -20 q 351 13 411 -20 q 252 114 291 46 l 252 0 l 126 0 l 126 741 l 0 741 l 197 1056 l 252 1056 l 252 644 m 676 379 q 620 595 676 517 q 464 673 563 673 q 308 595 365 673 q 252 379 252 517 q 308 163 252 241 q 464 85 365 85 q 620 163 563 85 q 676 379 676 241 z "},"Ɔ":{"ha":977,"x_min":78,"x_max":895,"o":"m 78 935 q 229 1007 149 983 q 400 1031 309 1031 q 762 890 630 1031 q 895 505 895 749 q 762 121 895 262 q 400 -20 630 -20 q 230 5 311 -20 q 78 78 150 29 l 78 221 q 225 125 147 157 q 392 93 304 93 q 658 199 566 93 q 750 505 750 305 q 658 812 750 706 q 392 918 566 918 q 225 886 304 918 q 78 790 147 854 l 78 935 z "},"Ƈ":{"ha":970,"x_min":78,"x_max":1103,"o":"m 895 935 l 895 790 q 747 886 825 854 q 581 918 669 918 q 315 812 407 918 q 222 505 222 706 q 315 199 222 305 q 581 93 407 93 q 747 125 669 93 q 895 221 825 157 l 895 78 q 742 5 823 29 q 572 -20 662 -20 q 210 121 342 -20 q 78 505 78 262 q 210 890 78 749 q 572 1031 342 1031 q 743 1006 637 1031 q 760 1002 752 1004 q 827 1200 771 1134 q 1050 1283 897 1283 l 1103 1283 l 1103 1168 l 1060 1168 q 932 1117 969 1168 q 895 935 895 1066 z "},"ƈ":{"ha":764,"x_min":77,"x_max":833,"o":"m 677 780 l 677 614 q 571 657 625 643 q 464 672 518 672 q 275 595 342 672 q 208 379 208 518 q 275 163 208 240 q 464 86 342 86 q 571 101 518 86 q 677 144 625 115 l 677 29 q 569 -7 625 5 q 450 -20 513 -20 q 178 88 279 -20 q 77 379 77 196 q 179 671 77 565 q 458 778 281 778 q 554 770 507 778 l 554 780 q 609 990 554 925 q 786 1055 663 1055 l 833 1055 l 833 949 l 800 949 q 703 917 729 949 q 677 780 677 884 z "},"Ɖ":{"ha":1076,"x_min":7,"x_max":994,"o":"m 143 1013 l 425 1013 q 857 890 719 1013 q 994 507 994 768 q 856 123 994 245 q 425 0 718 0 l 143 0 l 143 475 l 7 475 l 7 572 l 143 572 l 143 1013 m 281 900 l 281 572 l 509 572 l 509 475 l 281 475 l 281 113 l 446 113 q 752 208 655 113 q 850 507 850 302 q 752 805 850 711 q 446 900 655 900 l 281 900 z "},"Ɗ":{"ha":1137,"x_min":-71,"x_max":1055,"o":"m 341 900 l 341 113 l 507 113 q 813 208 716 113 q 911 507 911 302 q 813 805 911 711 q 507 900 716 900 l 341 900 m 204 1013 l 486 1013 q 918 890 780 1013 q 1055 507 1055 768 q 917 123 1055 245 q 486 0 779 0 l 204 0 l 204 901 q 75 868 115 901 q 35 765 35 836 l 35 732 l -71 732 l -71 779 q -6 957 -71 902 q 204 1013 59 1013 z "},"Ƌ":{"ha":953,"x_min":136,"x_max":854,"o":"m 281 298 q 498 113 281 113 l 718 113 l 718 484 l 498 484 q 334 438 387 484 q 281 298 281 392 m 281 1013 l 854 1013 l 854 0 l 491 0 q 229 74 321 0 q 136 298 136 148 q 229 522 136 448 q 491 596 321 596 l 718 596 l 718 900 l 281 900 l 281 1013 z "},"ƌ":{"ha":882,"x_min":77,"x_max":755,"o":"m 182 943 l 182 1055 l 755 1055 l 755 0 l 631 0 l 631 114 q 531 13 591 46 q 387 -20 471 -20 q 163 90 250 -20 q 77 379 77 200 q 163 668 77 558 q 387 778 250 778 q 531 745 471 778 q 631 644 591 712 l 631 943 l 182 943 m 205 379 q 262 163 205 241 q 418 85 319 85 q 574 163 517 85 q 631 379 631 241 q 574 595 631 517 q 418 673 517 673 q 262 595 319 673 q 205 379 205 517 z "},"ƍ":{"ha":850,"x_min":77,"x_max":773,"o":"m 593 45 q 700 -104 700 -9 q 401 -289 700 -289 q 170 -241 251 -289 l 170 -138 q 406 -185 239 -185 q 572 -106 572 -185 q 393 -11 572 -43 q 173 90 252 14 q 77 366 77 182 q 170 655 77 549 q 425 762 262 762 q 681 655 587 762 q 773 363 774 549 q 721 169 773 257 q 593 45 668 81 m 642 363 q 584 578 642 500 q 426 656 526 656 q 267 577 326 656 q 209 366 209 498 q 273 167 209 235 q 422 92 336 100 q 500 79 465 88 q 604 182 567 107 q 642 363 642 256 z "},"Ǝ":{"ha":878,"x_min":89,"x_max":741,"o":"m 741 1013 l 741 0 l 89 0 l 89 115 l 604 115 l 604 482 l 122 482 l 122 597 l 604 597 l 604 897 l 101 897 l 101 1013 l 741 1013 z "},"Ə":{"ha":1093,"x_min":79,"x_max":1015,"o":"m 79 529 l 871 529 q 778 814 871 711 q 498 918 684 918 q 319 886 404 918 q 157 789 233 853 l 157 935 q 322 1006 233 982 q 510 1031 411 1031 q 881 892 747 1031 q 1015 505 1015 753 q 888 123 1015 266 q 547 -20 760 -20 q 202 129 324 -20 q 79 529 79 278 m 229 416 q 324 188 237 284 q 547 92 410 92 q 771 188 684 92 q 866 416 857 284 l 229 416 z "},"Ɛ":{"ha":853,"x_min":111,"x_max":778,"o":"m 320 546 q 183 626 231 568 q 135 768 135 684 q 226 960 135 889 q 473 1031 317 1031 q 601 1020 533 1031 q 747 987 669 1009 l 747 865 q 606 903 670 891 q 485 916 541 916 q 327 874 382 916 q 271 754 271 832 q 325 638 271 678 q 479 597 378 597 l 603 597 l 603 485 l 485 485 q 310 434 373 485 q 248 294 248 384 q 315 146 248 197 q 511 96 382 96 q 653 113 585 96 q 778 163 721 130 l 778 31 q 638 -7 706 5 q 507 -20 571 -20 q 214 62 317 -20 q 111 294 111 144 q 166 458 111 392 q 320 546 222 525 z "},"Ƒ":{"ha":799,"x_min":-72,"x_max":718,"o":"m 136 1013 l 718 1013 l 718 897 l 273 897 l 273 599 l 675 599 l 675 484 l 273 484 l 273 71 q 204 -195 273 -113 q -20 -278 134 -278 l -72 -278 l -72 -163 l -29 -163 q 99 -112 62 -163 q 136 71 136 -61 l 136 1013 z "},"ƒ":{"ha":489,"x_min":-87,"x_max":515,"o":"m 515 1055 l 515 951 l 396 951 q 303 924 329 951 q 277 827 277 897 l 277 760 l 482 760 l 482 663 l 277 663 l 277 -46 q 218 -231 277 -173 q 31 -289 159 -289 l -87 -289 l -87 -185 l 32 -185 q 125 -158 99 -185 q 151 -60 151 -131 l 151 663 l 32 663 l 32 760 l 151 760 l 151 812 q 210 997 151 939 q 397 1055 269 1055 l 515 1055 z "},"Ɠ":{"ha":1076,"x_min":78,"x_max":1144,"o":"m 827 144 l 827 416 l 603 416 l 603 529 l 962 529 l 962 94 q 787 9 883 38 q 583 -20 692 -20 q 212 119 346 -20 q 78 505 78 258 q 212 892 78 753 q 583 1031 346 1031 q 700 1022 645 1031 q 802 997 755 1014 q 870 1204 802 1124 q 1092 1283 938 1283 l 1144 1283 l 1144 1168 l 1101 1168 q 973 1117 1010 1168 q 936 935 936 1066 l 936 789 q 774 886 860 853 q 595 918 689 918 q 316 814 409 918 q 222 505 222 711 q 316 197 222 300 q 595 93 409 93 q 724 105 667 93 q 827 144 781 118 z "},"Ɣ":{"ha":954,"x_min":5,"x_max":948,"o":"m 477 -176 q 543 -154 513 -176 q 562 -96 562 -140 q 541 -7 562 -57 q 477 137 507 75 q 412 -7 447 75 q 391 -96 391 -57 q 410 -154 391 -140 q 477 -176 440 -176 m 477 428 l 798 1013 l 948 1013 l 553 285 q 669 31 624 149 q 701 -94 701 -50 q 650 -233 701 -189 q 477 -292 582 -292 q 304 -233 372 -292 q 253 -94 253 -189 q 284 31 253 -50 q 400 285 330 149 l 5 1013 l 156 1013 l 477 428 z "},"ƕ":{"ha":1367,"x_min":126,"x_max":1263,"o":"m 920 106 q 1078 172 1021 106 q 1137 346 1137 241 q 1086 572 1137 496 q 962 659 1044 637 l 962 760 q 1188 643 1114 740 q 1263 357 1263 545 q 1166 96 1263 191 q 918 0 1068 0 l 871 0 q 691 68 744 0 q 637 275 637 136 l 637 454 q 595 616 637 562 q 469 669 553 669 q 310 605 368 669 q 252 429 252 541 l 252 0 l 126 0 l 126 1055 l 252 1055 l 252 642 q 357 744 296 710 q 497 778 418 778 q 695 697 628 778 q 762 458 762 616 l 762 275 q 788 141 762 176 q 885 106 814 106 l 920 106 z "},"Ɩ":{"ha":491,"x_min":136,"x_max":481,"o":"m 136 1013 l 273 1013 l 273 349 q 311 166 273 217 q 439 115 348 115 l 481 115 l 481 0 l 429 0 q 206 83 275 0 q 136 349 136 165 l 136 1013 z "},"Ɨ":{"ha":410,"x_min":7,"x_max":403,"o":"m 136 1013 l 273 1013 l 273 507 l 403 507 l 403 391 l 273 391 l 273 0 l 136 0 l 136 391 l 7 391 l 7 507 l 136 507 l 136 1013 z "},"Ƙ":{"ha":1036,"x_min":136,"x_max":1036,"o":"m 1036 743 l 920 743 l 920 825 q 896 889 920 862 q 845 916 871 916 q 772 892 798 916 l 401 541 l 940 0 l 760 0 l 273 488 l 273 0 l 136 0 l 136 1013 l 273 1013 l 273 585 l 694 977 q 828 1031 751 1031 q 978 968 920 1031 q 1036 832 1036 907 l 1036 743 z "},"ƙ":{"ha":804,"x_min":125,"x_max":800,"o":"m 125 780 q 181 990 125 925 q 359 1055 236 1055 l 488 1055 l 488 949 l 374 949 q 277 917 303 949 q 252 780 252 884 l 252 432 l 624 760 l 783 760 l 380 404 l 800 0 l 637 0 l 252 371 l 252 0 l 126 0 l 125 780 z "},"ƚ":{"ha":386,"x_min":7,"x_max":376,"o":"m 131 1055 l 256 1055 l 256 572 l 376 572 l 376 475 l 256 475 l 256 0 l 131 0 l 131 475 l 7 475 l 7 572 l 131 572 l 131 1055 z "},"ƛ":{"ha":822,"x_min":41,"x_max":781,"o":"m 41 0 l 374 728 l 326 856 l 123 787 l 100 854 l 302 922 l 251 1055 l 387 1055 l 422 962 l 635 1032 l 657 966 l 446 896 l 781 0 l 648 0 l 435 562 l 174 0 l 41 0 z "},"Ɯ":{"ha":1353,"x_min":121,"x_max":1242,"o":"m 633 144 q 522 20 587 60 q 368 -20 456 -20 q 185 64 250 -20 q 121 300 121 146 l 121 1013 l 258 1013 l 258 307 q 285 144 258 180 q 403 92 323 92 q 556 156 500 92 q 612 332 612 220 l 612 1013 l 750 1013 l 750 307 q 789 144 750 197 q 908 92 827 92 q 1048 156 991 92 q 1104 332 1104 221 l 1104 1013 l 1242 1013 l 1242 -1 l 1104 -1 l 1104 117 q 1002 14 1061 47 q 860 -20 942 -20 q 719 22 777 -20 q 633 144 661 64 z "},"Ɲ":{"ha":1039,"x_min":-72,"x_max":903,"o":"m 136 1013 l 321 1013 l 770 165 l 770 1013 l 903 1013 l 903 0 l 718 0 l 269 847 l 269 71 q 200 -195 269 -113 q -24 -278 130 -278 l -72 -278 l -72 -163 l -29 -163 q 99 -112 62 -163 q 136 71 136 -61 l 136 1013 z "},"ƞ":{"ha":880,"x_min":126,"x_max":762,"o":"m 762 458 l 762 -289 l 637 -289 l 637 454 q 595 616 637 562 q 469 669 553 669 q 310 605 368 669 q 252 429 252 541 l 252 0 l 126 0 l 126 760 l 252 760 l 252 642 q 357 744 296 710 q 497 778 418 778 q 695 697 628 778 q 762 458 762 616 z "},"Ɵ":{"ha":1093,"x_min":78,"x_max":1015,"o":"m 78 505 q 206 888 78 745 q 547 1031 334 1031 q 888 888 760 1031 q 1015 506 1015 745 q 888 123 1015 266 q 547 -20 760 -20 q 206 123 334 -20 q 78 505 78 265 m 548 920 q 324 823 411 920 q 229 595 237 727 l 867 595 q 771 823 857 727 q 548 920 685 920 m 222 481 q 313 199 228 307 q 547 92 398 92 q 781 199 696 92 q 870 481 865 307 l 222 481 z "},"Ơ":{"ha":1268,"x_min":70,"x_max":1061,"o":"m 539 920 q 302 808 390 920 q 214 505 214 697 q 302 203 214 314 q 539 92 390 92 q 775 203 688 92 q 863 505 863 314 q 775 808 863 697 q 539 920 688 920 m 539 1031 q 880 888 752 1031 q 1007 505 1007 745 q 880 123 1007 266 q 539 -20 752 -20 q 198 123 326 -20 q 70 505 70 265 q 198 888 70 745 q 539 1031 326 1031 m 793 876 l 793 956 q 865 911 835 926 q 916 897 895 897 q 962 915 947 897 q 978 970 978 934 q 973 1013 978 992 q 958 1055 968 1034 l 1048 1055 q 1058 1006 1055 1029 q 1061 963 1061 983 q 1032 841 1061 880 q 939 802 1002 802 q 871 820 907 802 q 793 876 836 838 z "},"ơ":{"ha":850,"x_min":80,"x_max":838,"o":"m 570 674 l 570 755 q 641 710 611 724 q 692 695 671 695 q 739 714 723 695 q 754 769 754 732 q 749 812 754 791 q 734 854 744 833 l 824 854 q 834 805 831 828 q 838 762 838 782 q 808 640 838 679 q 715 601 779 601 q 647 619 683 601 q 570 674 612 637 m 429 672 q 270 594 328 672 q 212 379 212 515 q 270 164 212 243 q 429 86 328 86 q 587 165 528 86 q 645 379 645 243 q 587 593 645 514 q 429 672 528 672 m 429 778 q 684 672 591 778 q 777 379 777 566 q 684 86 777 193 q 429 -20 591 -20 q 173 86 265 -20 q 80 379 80 193 q 173 672 80 566 q 429 778 265 778 z "},"Ƣ":{"ha":1318,"x_min":78,"x_max":1182,"o":"m 1045 0 l 1045 664 q 1008 846 1045 795 q 888 897 970 897 l 888 123 q 547 -20 760 -20 q 206 123 334 -20 q 78 505 78 265 q 206 888 78 745 q 547 1031 334 1031 q 689 1013 623 1031 l 889 1013 q 1113 930 1043 1013 q 1182 664 1182 847 l 1182 0 l 1045 0 m 547 920 q 310 808 398 920 q 222 506 222 697 q 310 203 222 314 q 547 92 398 92 q 753 161 666 92 l 753 872 q 547 920 659 920 z "},"ƣ":{"ha":1055,"x_min":77,"x_max":928,"o":"m 804 -289 l 804 484 q 778 621 804 588 q 681 654 752 654 l 681 87 q 425 -20 588 -20 q 169 86 262 -20 q 77 379 77 193 q 169 672 77 566 q 425 778 262 778 q 549 760 493 778 l 695 760 q 873 694 818 760 q 928 484 928 629 l 928 -289 l 804 -289 m 425 672 q 267 594 325 672 q 208 379 208 515 q 266 164 208 243 q 425 86 324 86 q 556 125 513 86 l 556 635 q 425 672 499 672 z "},"Ƥ":{"ha":905,"x_min":-71,"x_max":858,"o":"m 341 900 l 341 519 l 513 519 q 661 569 609 519 q 713 710 713 618 q 661 850 713 801 q 513 900 609 900 l 341 900 m 204 1013 l 513 1013 q 771 936 684 1013 q 858 710 858 859 q 771 484 858 560 q 513 407 684 407 l 341 407 l 341 0 l 204 0 l 204 901 q 75 868 115 901 q 35 765 35 836 l 35 732 l -71 732 l -71 779 q -6 957 -71 902 q 204 1013 59 1013 z "},"ƥ":{"ha":882,"x_min":125,"x_max":806,"o":"m 252 114 l 252 -289 l 125 -289 l 125 780 q 181 990 125 925 q 359 1055 236 1055 l 531 1055 l 531 949 l 374 949 q 277 917 303 949 q 252 780 252 884 l 252 644 q 351 745 291 712 q 494 778 411 778 q 719 668 633 778 q 806 379 806 558 q 719 90 806 200 q 494 -20 633 -20 q 351 13 411 -20 q 252 114 291 46 m 676 379 q 620 595 676 517 q 464 673 563 673 q 308 595 365 673 q 252 379 252 517 q 308 163 252 241 q 464 85 365 85 q 620 163 563 85 q 676 379 676 241 z "},"Ʀ":{"ha":965,"x_min":136,"x_max":925,"o":"m 616 296 q 702 232 661 281 q 786 98 744 183 l 925 -179 l 778 -179 l 648 81 q 551 216 598 182 q 422 249 504 249 l 273 249 l 273 0 l 136 0 l 136 1013 l 273 1013 l 273 833 l 446 833 q 705 761 619 833 q 790 542 790 688 q 746 383 790 446 q 616 296 701 320 m 273 721 l 273 342 l 446 342 q 593 391 541 342 q 646 532 646 441 q 594 672 646 623 q 446 721 542 721 l 273 721 z "},"Ƨ":{"ha":882,"x_min":77,"x_max":790,"o":"m 138 979 q 447 1031 293 1031 q 695 954 601 1031 q 790 751 790 876 q 722 561 790 626 q 500 465 653 496 l 416 449 q 266 386 312 428 q 220 264 220 344 q 284 138 220 184 q 465 92 348 92 q 786 186 618 92 l 786 45 q 465 -20 610 -20 q 176 56 275 -20 q 77 279 77 132 q 150 476 77 403 q 376 579 223 550 l 459 596 q 612 651 572 617 q 652 759 652 686 q 592 876 652 833 q 412 920 531 920 q 138 846 293 920 l 138 979 z "},"ƨ":{"ha":724,"x_min":68,"x_max":648,"o":"m 109 737 q 221 768 160 758 q 351 778 282 778 q 567 720 491 778 q 643 554 643 661 q 591 415 643 466 q 424 340 540 365 l 380 330 q 230 278 264 305 q 196 200 196 251 q 243 115 196 145 q 379 85 291 85 q 512 103 445 85 q 648 157 579 121 l 648 28 q 509 -8 575 4 q 382 -20 443 -20 q 152 42 235 -20 q 68 210 68 104 q 124 354 68 302 q 313 435 180 406 l 355 444 q 489 491 456 467 q 522 559 522 516 q 476 645 522 616 q 336 673 429 673 q 218 660 275 673 q 109 619 161 646 l 109 737 z "},"Ʃ":{"ha":878,"x_min":136,"x_max":789,"o":"m 294 115 l 789 115 l 789 0 l 136 0 l 136 115 l 461 538 l 136 897 l 136 1013 l 777 1013 l 777 897 l 294 897 l 618 541 l 294 115 z "},"ƪ":{"ha":467,"x_min":-183,"x_max":493,"o":"m 254 766 l 254 -60 q 280 -158 254 -131 q 374 -185 307 -185 l 493 -185 l 493 -289 l 375 -289 q 188 -231 247 -289 q 129 -46 129 -173 l 129 766 l 0 766 q -183 909 -183 766 q 22 1055 -183 1055 q 201 990 145 1055 q 249 871 237 947 l 378 871 l 378 766 l 254 766 m 122 871 q 105 917 117 901 q 8 949 83 949 q -78 905 -76 949 q 1 871 -80 871 l 122 871 z "},"ƫ":{"ha":545,"x_min":37,"x_max":511,"o":"m 254 975 l 254 760 l 511 760 l 511 663 l 254 663 l 254 250 q 280 131 254 157 q 383 104 305 104 l 511 104 l 511 -14 q 456 -224 511 -159 q 278 -289 400 -289 l 231 -289 l 231 -183 l 263 -183 q 361 -151 335 -183 q 387 -14 387 -117 l 387 0 q 185 54 242 0 q 129 250 129 108 l 129 663 l 37 663 l 37 760 l 129 760 l 129 975 l 254 975 z "},"Ƭ":{"ha":848,"x_min":16,"x_max":852,"o":"m 292 1013 l 852 1013 l 852 897 l 493 897 l 493 0 l 355 0 l 355 897 l 292 897 q 162 867 202 897 q 122 765 122 836 l 122 732 l 16 732 l 16 779 q 81 957 16 902 q 292 1013 146 1013 z "},"ƭ":{"ha":545,"x_min":37,"x_max":511,"o":"m 254 827 l 254 760 l 511 760 l 511 663 l 254 663 l 254 250 q 280 131 254 157 q 383 104 305 104 l 511 104 l 511 0 l 383 0 q 184 54 239 0 q 129 250 129 108 l 129 663 l 37 663 l 37 760 l 129 760 l 129 812 q 188 997 129 939 q 375 1055 247 1055 l 493 1055 l 493 951 l 374 951 q 280 924 307 951 q 254 827 254 897 z "},"Ʈ":{"ha":848,"x_min":-4,"x_max":852,"o":"m -4 1013 l 852 1013 l 852 897 l 493 897 l 493 71 q 530 -112 493 -61 q 659 -163 568 -163 l 701 -163 l 701 -278 l 648 -278 q 425 -195 494 -278 q 355 71 355 -113 l 355 897 l -4 897 l -4 1013 z "},"Ư":{"ha":1192,"x_min":117,"x_max":1106,"o":"m 117 1026 l 255 1026 l 255 411 q 314 177 255 248 q 505 105 373 105 q 696 177 637 105 q 755 411 755 248 l 755 1026 l 892 1026 l 892 394 q 794 95 892 196 q 505 -6 696 -6 q 215 95 313 -6 q 117 394 117 196 l 117 1026 m 838 876 l 838 956 q 909 911 880 926 q 960 897 939 897 q 1007 915 991 897 q 1023 970 1023 934 q 1018 1013 1023 992 q 1002 1055 1013 1034 l 1093 1055 q 1103 1006 1099 1029 q 1106 963 1106 983 q 1077 841 1106 880 q 984 802 1047 802 q 916 820 951 802 q 838 876 880 838 z "},"ư":{"ha":880,"x_min":119,"x_max":939,"o":"m 671 674 l 671 755 q 743 710 713 724 q 793 695 772 695 q 840 714 825 695 q 856 769 856 732 q 851 812 856 791 q 836 854 846 833 l 926 854 q 936 805 932 828 q 939 762 939 782 q 910 640 939 679 q 817 601 880 601 q 749 619 785 601 q 671 674 713 637 m 119 300 l 119 760 l 244 760 l 244 304 q 286 143 244 197 q 412 89 328 89 q 572 153 513 89 q 631 329 631 218 l 631 760 l 755 760 l 755 0 l 631 0 l 631 117 q 525 14 585 47 q 386 -20 465 -20 q 187 62 255 -20 q 119 300 119 143 m 433 778 z "},"Ʊ":{"ha":1061,"x_min":53,"x_max":1008,"o":"m 1008 884 l 791 884 q 949 688 901 789 q 997 456 997 588 q 866 114 997 247 q 530 -20 736 -20 q 194 114 323 -20 q 64 463 64 248 q 113 689 64 588 q 269 884 162 790 l 53 884 l 53 1005 l 460 1005 l 460 884 q 272 706 339 819 q 204 456 204 593 q 294 196 204 294 q 530 97 384 97 q 766 195 677 97 q 856 456 856 294 q 789 706 856 593 q 602 884 722 819 l 602 1005 l 1008 1005 l 1008 884 z "},"Ʋ":{"ha":1001,"x_min":136,"x_max":948,"o":"m 481 96 q 718 194 628 96 q 807 455 807 292 q 740 705 807 592 q 621 838 696 779 l 621 884 l 743 883 q 900 687 852 787 q 948 455 948 587 q 818 112 948 245 q 481 -21 688 -21 l 429 -20 q 206 63 272 -16 q 136 329 136 146 l 136 1013 l 273 1013 l 273 329 q 311 146 273 197 q 439 96 348 96 l 481 96 z "},"Ƴ":{"ha":1033,"x_min":-3,"x_max":1031,"o":"m 840 916 q 787 907 802 916 q 751 873 762 890 l 493 482 l 493 0 l 355 0 l 355 482 l -3 1013 l 144 1013 l 425 596 l 652 939 q 823 1031 713 1031 q 973 968 916 1031 q 1031 832 1031 907 l 1031 743 l 916 743 l 916 825 q 891 889 916 862 q 840 916 866 916 z "},"ƴ":{"ha":1015,"x_min":41,"x_max":1015,"o":"m 447 -71 q 344 -248 394 -206 q 210 -289 294 -289 l 110 -289 l 110 -184 l 183 -184 q 263 -160 235 -184 q 326 -45 292 -136 l 349 12 l 41 760 l 174 760 l 411 165 l 602 643 q 649 713 616 678 q 800 778 709 778 q 952 713 889 778 q 1015 557 1015 648 l 1015 480 l 894 480 l 894 557 q 866 625 894 597 q 800 654 839 654 q 734 625 762 654 q 713 595 720 612 l 447 -71 z "},"Ƶ":{"ha":951,"x_min":62,"x_max":889,"o":"m 78 1013 l 873 1013 l 873 908 l 602 572 l 793 572 l 793 475 l 524 475 l 233 115 l 889 115 l 889 0 l 62 0 l 62 104 l 361 475 l 159 475 l 159 572 l 440 572 l 703 897 l 78 897 l 78 1013 z "},"ƶ":{"ha":729,"x_min":60,"x_max":669,"o":"m 77 760 l 669 760 l 669 646 l 499 448 l 631 448 l 631 350 l 415 350 l 200 100 l 669 100 l 669 0 l 60 0 l 60 114 l 262 350 l 119 350 l 119 448 l 347 448 l 529 660 l 77 660 l 77 760 z "},"Ʒ":{"ha":925,"x_min":109,"x_max":863,"o":"m 461 73 q 659 123 591 73 q 726 271 726 174 q 664 412 726 362 q 489 462 601 462 l 371 462 l 371 565 l 632 897 l 109 897 l 109 1013 l 803 1013 l 803 908 l 524 576 q 683 538 596 576 q 808 435 749 509 q 863 271 863 365 q 760 39 863 122 q 467 -43 656 -43 q 301 -30 386 -43 q 125 7 216 -18 l 125 140 q 283 90 197 106 q 461 73 368 73 z "},"Ƹ":{"ha":925,"x_min":62,"x_max":817,"o":"m 464 73 q 642 90 557 73 q 800 140 728 106 l 800 7 q 624 -30 709 -18 q 458 -43 539 -43 q 165 39 269 -43 q 62 271 62 122 q 117 435 62 365 q 242 538 176 509 q 401 576 329 576 l 122 908 l 122 1013 l 817 1013 l 817 897 l 293 897 l 554 565 l 554 462 l 436 462 q 261 412 324 462 q 199 271 199 362 q 267 123 199 174 q 464 73 334 73 z "},"ƹ":{"ha":802,"x_min":71,"x_max":737,"o":"m 409 323 l 130 646 l 130 760 l 723 760 l 723 660 l 271 660 l 562 321 l 562 209 l 444 209 q 269 159 332 209 q 207 18 207 108 q 275 -130 207 -79 q 471 -180 342 -180 q 612 -163 545 -180 q 737 -113 680 -146 l 737 -245 q 597 -283 665 -271 q 467 -296 530 -296 q 174 -214 277 -296 q 71 18 71 -132 q 125 182 71 112 q 250 285 184 256 q 409 323 337 323 z "},"ƺ":{"ha":729,"x_min":77,"x_max":678,"o":"m 433 -186 q 543 -172 490 -186 q 651 -127 596 -157 l 651 -249 q 538 -279 592 -271 q 414 -289 479 -289 q 88 -98 88 -289 q 363 99 88 63 q 556 191 556 124 q 397 275 556 275 q 200 275 397 275 l 529 660 l 77 660 l 77 760 l 669 760 l 669 646 l 429 366 q 678 211 678 366 q 363 -9 678 24 q 210 -92 210 -26 q 433 -186 210 -186 z "},"ƻ":{"ha":884,"x_min":102,"x_max":745,"o":"m 267 115 l 745 115 l 745 0 l 102 0 l 102 115 l 315 332 l 393 412 l 159 412 l 159 509 l 486 509 q 575 632 550 583 q 602 733 602 684 q 545 865 602 814 q 397 916 488 916 q 262 893 333 916 q 109 825 190 871 l 109 964 q 263 1014 191 997 q 395 1031 335 1031 q 646 952 552 1031 q 739 742 739 873 q 716 624 739 680 q 645 509 695 574 l 715 509 l 715 412 l 555 412 l 523 378 l 267 115 z "},"Ƽ":{"ha":925,"x_min":63,"x_max":863,"o":"m 199 271 q 463 73 199 73 q 727 271 727 73 q 664 412 727 362 q 490 462 602 462 l 136 462 l 136 1013 l 766 1013 l 766 897 l 273 897 l 273 575 l 525 576 q 808 435 699 576 q 863 267 863 365 q 823 111 863 170 l 804 83 q 760 39 791 64 q 463 -43 657 -43 q 166 39 269 -43 q 63 271 63 121 l 199 271 z "},"ƽ":{"ha":802,"x_min":71,"x_max":737,"o":"m 71 -113 q 326 -180 186 -180 q 601 18 601 -180 q 538 159 601 109 q 363 209 475 209 l 124 209 l 124 760 l 662 760 l 662 644 l 249 644 l 249 323 l 399 323 q 547 289 470 323 q 681 184 625 256 q 737 14 737 112 q 697 -142 737 -83 l 678 -170 q 634 -214 665 -189 q 341 -296 531 -296 q 71 -245 214 -296 l 71 -113 z "},"ƾ":{"ha":709,"x_min":60,"x_max":633,"o":"m 370 677 l 368 592 q 559 491 484 572 q 633 298 633 413 q 558 87 633 172 q 279 -20 465 -20 q 166 -7 221 -20 q 60 28 111 4 l 60 144 q 166 101 109 117 q 273 86 219 86 q 462 163 395 86 q 501 298 500 208 q 462 416 501 364 q 273 493 404 493 l 231 493 l 233 677 l 77 677 l 77 788 l 233 788 l 233 975 l 370 975 l 370 788 l 526 788 l 526 677 l 370 677 z "},"ƿ":{"ha":882,"x_min":126,"x_max":806,"o":"m 252 -83 l 252 -289 l 126 -289 l 126 760 l 252 760 l 252 644 q 378 745 287 689 q 576 778 433 778 q 753 702 701 778 q 806 522 806 625 q 252 -83 806 233 m 252 41 q 676 481 676 312 q 637 616 676 571 q 518 660 600 660 q 252 498 369 660 l 252 41 z "},"ǀ":{"ha":410,"x_min":136,"x_max":273,"o":"m 136 1013 l 273 1013 l 273 -289 l 136 -289 l 136 1013 z "},"ǁ":{"ha":684,"x_min":136,"x_max":547,"o":"m 410 1013 l 547 1013 l 547 -289 l 410 -289 l 410 1013 m 136 1013 l 273 1013 l 273 -289 l 136 -289 l 136 1013 z "},"ǂ":{"ha":637,"x_min":14,"x_max":627,"o":"m 252 1013 l 389 1013 l 389 594 l 627 594 l 627 480 l 389 480 l 389 317 l 627 317 l 627 202 l 389 202 l 389 -289 l 252 -289 l 252 202 l 14 202 l 14 317 l 252 317 l 252 480 l 14 480 l 14 594 l 252 594 l 252 1013 z "},"ǃ":{"ha":410,"x_min":136,"x_max":274,"o":"m 136 172 l 274 172 l 274 0 l 136 0 l 136 172 m 136 1013 l 274 1013 l 274 568 l 260 326 l 151 326 l 136 568 l 136 1013 z "},"Ǆ":{"ha":1975,"x_min":136,"x_max":1877,"o":"m 1066 1013 l 1862 1013 l 1862 908 l 1221 115 l 1877 115 l 1877 0 l 1050 0 l 1050 104 l 1691 897 l 1066 897 l 1066 1013 m 1400 1109 l 1257 1289 l 1352 1289 l 1464 1168 l 1577 1289 l 1671 1289 l 1528 1109 l 1400 1109 m 273 900 l 273 113 l 439 113 q 746 208 648 113 q 843 507 843 302 q 746 805 843 711 q 439 900 648 900 l 273 900 m 136 1013 l 418 1013 q 850 890 712 1013 q 987 507 987 768 q 849 123 987 245 q 418 0 711 0 l 136 0 l 136 1013 z "},"ǅ":{"ha":1804,"x_min":136,"x_max":1682,"o":"m 1089 760 l 1682 760 l 1682 646 l 1213 100 l 1682 100 l 1682 0 l 1072 0 l 1072 114 l 1541 660 l 1089 660 l 1089 760 m 1328 856 l 1162 1111 l 1256 1111 l 1378 945 l 1500 1111 l 1594 1111 l 1428 856 l 1328 856 m 273 900 l 273 113 l 439 113 q 746 208 648 113 q 843 507 843 302 q 746 805 843 711 q 439 900 648 900 l 273 900 m 136 1013 l 418 1013 q 850 890 712 1013 q 987 507 987 768 q 849 123 987 245 q 418 0 711 0 l 136 0 l 136 1013 z "},"ǆ":{"ha":1603,"x_min":77,"x_max":1487,"o":"m 895 760 l 1487 760 l 1487 646 l 1018 100 l 1487 100 l 1487 0 l 878 0 l 878 114 l 1347 660 l 895 660 l 895 760 m 1133 856 l 967 1111 l 1061 1111 l 1183 945 l 1305 1111 l 1400 1111 l 1234 856 l 1133 856 m 631 644 l 631 1055 l 755 1055 l 755 0 l 631 0 l 631 114 q 531 13 591 46 q 387 -20 471 -20 q 163 90 250 -20 q 77 379 77 200 q 163 668 77 558 q 387 778 250 778 q 531 745 471 778 q 631 644 591 712 m 205 379 q 262 163 205 241 q 418 85 319 85 q 574 163 517 85 q 631 379 631 241 q 574 595 631 517 q 418 673 517 673 q 262 595 319 673 q 205 379 205 517 z "},"Ǉ":{"ha":1160,"x_min":136,"x_max":1066,"o":"m 929 1013 l 1066 1013 l 1066 71 q 997 -195 1066 -113 q 773 -278 927 -278 l 721 -278 l 721 -163 l 764 -163 q 892 -112 854 -163 q 929 71 929 -61 l 929 1013 m 136 1013 l 273 1013 l 273 115 l 766 115 l 766 0 l 136 0 l 136 1013 z "},"ǈ":{"ha":1093,"x_min":136,"x_max":1019,"o":"m 894 760 l 1019 760 l 1019 -14 q 963 -224 1019 -159 q 785 -289 908 -289 l 738 -289 l 738 -183 l 771 -183 q 868 -150 842 -183 q 894 -14 894 -117 l 894 760 m 894 1055 l 1019 1055 l 1019 897 l 894 897 l 894 1055 m 136 1013 l 273 1013 l 273 115 l 766 115 l 766 0 l 136 0 l 136 1013 z "},"ǉ":{"ha":634,"x_min":131,"x_max":509,"o":"m 385 760 l 509 760 l 509 -14 q 454 -224 509 -159 q 276 -289 399 -289 l 229 -289 l 229 -183 l 262 -183 q 359 -150 333 -183 q 385 -14 385 -117 l 385 760 m 385 1055 l 509 1055 l 509 897 l 385 897 l 385 1055 m 131 1055 l 256 1055 l 256 0 l 131 0 l 131 1055 z "},"Ǌ":{"ha":1293,"x_min":136,"x_max":1206,"o":"m 1069 1013 l 1206 1013 l 1206 71 q 1136 -195 1206 -113 q 913 -278 1067 -278 l 861 -278 l 861 -163 l 903 -163 q 1031 -112 994 -163 q 1069 71 1069 -61 l 1069 1013 m 136 1013 l 321 1013 l 770 165 l 770 1013 l 903 1013 l 903 0 l 718 0 l 269 847 l 269 0 l 136 0 l 136 1013 z "},"ǋ":{"ha":1283,"x_min":136,"x_max":1166,"o":"m 1041 760 l 1166 760 l 1166 -14 q 1111 -224 1166 -159 q 932 -289 1055 -289 l 885 -289 l 885 -183 l 918 -183 q 1015 -150 989 -183 q 1041 -14 1041 -117 l 1041 760 m 1041 1055 l 1166 1055 l 1166 897 l 1041 897 l 1041 1055 m 136 1013 l 321 1013 l 770 165 l 770 1013 l 903 1013 l 903 0 l 718 0 l 269 847 l 269 0 l 136 0 l 136 1013 z "},"ǌ":{"ha":1107,"x_min":126,"x_max":1019,"o":"m 894 760 l 1019 760 l 1019 -14 q 963 -224 1019 -159 q 785 -289 908 -289 l 738 -289 l 738 -183 l 771 -183 q 868 -150 842 -183 q 894 -14 894 -117 l 894 760 m 894 1055 l 1019 1055 l 1019 897 l 894 897 l 894 1055 m 762 458 l 762 0 l 637 0 l 637 454 q 595 616 637 562 q 469 669 553 669 q 310 605 368 669 q 252 429 252 541 l 252 0 l 126 0 l 126 760 l 252 760 l 252 642 q 357 744 296 710 q 497 778 418 778 q 695 697 628 778 q 762 458 762 616 z "},"Ǎ":{"ha":950,"x_min":11,"x_max":939,"o":"m 475 878 l 289 374 l 661 374 l 475 878 m 397 1013 l 553 1013 l 939 0 l 796 0 l 704 260 l 248 260 l 155 0 l 11 0 l 397 1013 m 412 1109 l 269 1289 l 363 1289 l 476 1168 l 589 1289 l 683 1289 l 540 1109 l 412 1109 z "},"ǎ":{"ha":851,"x_min":83,"x_max":725,"o":"m 476 382 q 267 347 325 382 q 208 229 208 313 q 252 124 208 163 q 371 85 296 85 q 537 158 475 85 q 600 354 600 232 l 600 382 l 476 382 m 725 433 l 725 0 l 600 0 l 600 115 q 494 13 557 46 q 338 -20 430 -20 q 152 46 221 -20 q 83 221 83 111 q 169 414 83 349 q 425 479 255 479 l 600 479 l 600 492 q 544 625 600 578 q 385 672 487 672 q 258 656 319 672 q 139 610 196 641 l 139 725 q 272 765 208 751 q 397 778 336 778 q 644 692 562 778 q 725 433 725 607 m 358 856 l 192 1111 l 286 1111 l 408 945 l 530 1111 l 625 1111 l 458 856 l 358 856 z "},"Ǐ":{"ha":410,"x_min":-1,"x_max":412,"o":"m 136 1013 l 273 1013 l 273 0 l 136 0 l 136 1013 m 142 1109 l -1 1289 l 93 1289 l 205 1168 l 318 1289 l 412 1289 l 269 1109 l 142 1109 z "},"ǐ":{"ha":386,"x_min":-22,"x_max":411,"o":"m 131 760 l 256 760 l 256 0 l 131 0 l 131 760 m 193 778 m 144 856 l -22 1111 l 73 1111 l 195 945 l 317 1111 l 411 1111 l 245 856 l 144 856 z "},"Ǒ":{"ha":1093,"x_min":78,"x_max":1015,"o":"m 547 920 q 310 808 398 920 q 222 505 222 697 q 310 203 222 314 q 547 92 398 92 q 784 203 696 92 q 871 505 871 314 q 784 808 871 697 q 547 920 696 920 m 547 1031 q 888 888 760 1031 q 1015 505 1015 745 q 888 123 1015 266 q 547 -20 760 -20 q 206 123 334 -20 q 78 505 78 265 q 206 888 78 745 q 547 1031 334 1031 m 484 1109 l 340 1289 l 435 1289 l 547 1168 l 660 1289 l 754 1289 l 611 1109 l 484 1109 z "},"ǒ":{"ha":850,"x_min":77,"x_max":774,"o":"m 425 672 q 267 594 325 672 q 208 379 208 515 q 266 164 208 243 q 425 86 324 86 q 583 165 525 86 q 642 379 642 243 q 583 593 642 514 q 425 672 525 672 m 425 778 q 681 672 588 778 q 774 379 774 566 q 681 86 774 193 q 425 -20 588 -20 q 169 86 262 -20 q 77 379 77 193 q 169 672 77 566 q 425 778 262 778 m 377 856 l 211 1111 l 305 1111 l 427 945 l 549 1111 l 644 1111 l 477 856 l 377 856 z "},"Ǔ":{"ha":1017,"x_min":121,"x_max":896,"o":"m 121 1013 l 258 1013 l 258 397 q 317 163 258 235 q 509 92 376 92 q 699 163 640 92 q 758 397 758 235 l 758 1013 l 896 1013 l 896 380 q 798 81 896 182 q 509 -20 700 -20 q 219 81 317 -20 q 121 380 121 182 l 121 1013 m 450 1109 l 307 1289 l 401 1289 l 514 1168 l 627 1289 l 721 1289 l 578 1109 l 450 1109 z "},"ǔ":{"ha":880,"x_min":118,"x_max":754,"o":"m 118 300 l 118 760 l 243 760 l 243 304 q 285 143 243 197 q 411 89 327 89 q 571 153 512 89 q 629 329 629 218 l 629 760 l 754 760 l 754 0 l 629 0 l 629 117 q 524 14 584 47 q 385 -20 464 -20 q 186 62 254 -20 q 118 300 118 143 m 432 778 m 377 856 l 211 1111 l 305 1111 l 427 945 l 549 1111 l 644 1111 l 477 856 l 377 856 z "},"Ǖ":{"ha":1017,"x_min":121,"x_max":896,"o":"m 121 1013 l 258 1013 l 258 397 q 317 163 258 235 q 509 92 376 92 q 699 163 640 92 q 758 397 758 235 l 758 1013 l 896 1013 l 896 380 q 798 81 896 182 q 509 -20 700 -20 q 219 81 317 -20 q 121 380 121 182 l 121 1013 z "},"ǖ":{"ha":880,"x_min":118,"x_max":754,"o":"m 228 1249 l 633 1249 l 633 1148 l 228 1148 l 228 1249 m 118 300 l 118 760 l 243 760 l 243 304 q 285 143 243 197 q 411 89 327 89 q 571 153 512 89 q 629 329 629 218 l 629 760 l 754 760 l 754 0 l 629 0 l 629 117 q 524 14 584 47 q 385 -20 464 -20 q 186 62 254 -20 q 118 300 118 143 m 432 778 m 494 1053 l 632 1053 l 632 916 l 494 916 l 494 1053 m 229 1053 l 367 1053 l 367 916 l 229 916 l 229 1053 z "},"Ǘ":{"ha":1017,"x_min":121,"x_max":896,"o":"m 121 1013 l 258 1013 l 258 397 q 317 163 258 235 q 509 92 376 92 q 699 163 640 92 q 758 397 758 235 l 758 1013 l 896 1013 l 896 380 q 798 81 896 182 q 509 -20 700 -20 q 219 81 317 -20 q 121 380 121 182 l 121 1013 z "},"ǘ":{"ha":880,"x_min":118,"x_max":754,"o":"m 118 300 l 118 760 l 243 760 l 243 304 q 285 143 243 197 q 411 89 327 89 q 571 153 512 89 q 629 329 629 218 l 629 760 l 754 760 l 754 0 l 629 0 l 629 117 q 524 14 584 47 q 385 -20 464 -20 q 186 62 254 -20 q 118 300 118 143 m 432 778 z "},"Ǚ":{"ha":1017,"x_min":121,"x_max":896,"o":"m 121 1013 l 258 1013 l 258 397 q 317 163 258 235 q 509 92 376 92 q 699 163 640 92 q 758 397 758 235 l 758 1013 l 896 1013 l 896 380 q 798 81 896 182 q 509 -20 700 -20 q 219 81 317 -20 q 121 380 121 182 l 121 1013 z "},"ǚ":{"ha":880,"x_min":118,"x_max":754,"o":"m 118 300 l 118 760 l 243 760 l 243 304 q 285 143 243 197 q 411 89 327 89 q 571 153 512 89 q 629 329 629 218 l 629 760 l 754 760 l 754 0 l 629 0 l 629 117 q 524 14 584 47 q 385 -20 464 -20 q 186 62 254 -20 q 118 300 118 143 m 432 778 z "},"Ǜ":{"ha":1017,"x_min":121,"x_max":896,"o":"m 121 1013 l 258 1013 l 258 397 q 317 163 258 235 q 509 92 376 92 q 699 163 640 92 q 758 397 758 235 l 758 1013 l 896 1013 l 896 380 q 798 81 896 182 q 509 -20 700 -20 q 219 81 317 -20 q 121 380 121 182 l 121 1013 z "},"ǜ":{"ha":880,"x_min":118,"x_max":754,"o":"m 118 300 l 118 760 l 243 760 l 243 304 q 285 143 243 197 q 411 89 327 89 q 571 153 512 89 q 629 329 629 218 l 629 760 l 754 760 l 754 0 l 629 0 l 629 117 q 524 14 584 47 q 385 -20 464 -20 q 186 62 254 -20 q 118 300 118 143 m 432 778 z "},"ǝ":{"ha":854,"x_min":77,"x_max":781,"o":"m 77 347 l 77 408 l 650 408 q 573 605 642 537 q 379 672 503 672 q 240 654 307 672 q 106 602 172 637 l 106 720 q 243 763 173 748 q 387 778 314 778 q 674 672 568 778 q 781 386 781 566 q 680 90 781 199 q 408 -20 579 -20 q 166 79 255 -20 q 77 347 77 178 m 201 311 q 259 147 203 208 q 407 86 315 86 q 574 145 511 86 q 646 311 637 204 l 201 311 z "},"Ǟ":{"ha":950,"x_min":11,"x_max":939,"o":"m 475 878 l 289 374 l 661 374 l 475 878 m 397 1013 l 553 1013 l 939 0 l 796 0 l 704 260 l 248 260 l 155 0 l 11 0 l 397 1013 z "},"ǟ":{"ha":851,"x_min":83,"x_max":725,"o":"m 476 382 q 267 347 325 382 q 208 229 208 313 q 252 124 208 163 q 371 85 296 85 q 537 158 475 85 q 600 354 600 232 l 600 382 l 476 382 m 725 433 l 725 0 l 600 0 l 600 115 q 494 13 557 46 q 338 -20 430 -20 q 152 46 221 -20 q 83 221 83 111 q 169 414 83 349 q 425 479 255 479 l 600 479 l 600 492 q 544 625 600 578 q 385 672 487 672 q 258 656 319 672 q 139 610 196 641 l 139 725 q 272 765 208 751 q 397 778 336 778 q 644 692 562 778 q 725 433 725 607 m 467 1053 l 604 1053 l 604 916 l 467 916 l 467 1053 m 201 1053 l 339 1053 l 339 916 l 201 916 l 201 1053 m 200 1249 l 606 1249 l 606 1148 l 200 1148 l 200 1249 z "},"Ǡ":{"ha":950,"x_min":11,"x_max":939,"o":"m 475 878 l 289 374 l 661 374 l 475 878 m 397 1013 l 553 1013 l 939 0 l 796 0 l 704 260 l 248 260 l 155 0 l 11 0 l 397 1013 z "},"ǡ":{"ha":851,"x_min":83,"x_max":725,"o":"m 476 382 q 267 347 325 382 q 208 229 208 313 q 252 124 208 163 q 371 85 296 85 q 537 158 475 85 q 600 354 600 232 l 600 382 l 476 382 m 725 433 l 725 0 l 600 0 l 600 115 q 494 13 557 46 q 338 -20 430 -20 q 152 46 221 -20 q 83 221 83 111 q 169 414 83 349 q 425 479 255 479 l 600 479 l 600 492 q 544 625 600 578 q 385 672 487 672 q 258 656 319 672 q 139 610 196 641 l 139 725 q 272 765 208 751 q 397 778 336 778 q 644 692 562 778 q 725 433 725 607 z "},"Ǣ":{"ha":1353,"x_min":5,"x_max":1264,"o":"m 637 1251 l 1043 1251 l 1043 1150 l 637 1150 l 637 1251 m 1251 1013 l 1251 897 l 749 897 l 749 597 l 1231 597 l 1231 482 l 749 482 l 749 115 l 1264 115 l 1264 0 l 611 0 l 611 260 l 253 260 l 144 0 l 5 0 l 429 1013 l 1251 1013 m 524 905 l 300 374 l 611 374 l 611 905 l 524 905 z "},"ǣ":{"ha":1364,"x_min":83,"x_max":1291,"o":"m 475 1032 l 881 1032 l 881 932 l 475 932 l 475 1032 m 1165 448 q 1108 611 1164 550 q 960 672 1053 672 q 793 613 856 672 q 721 447 730 554 l 1165 448 m 675 653 q 797 746 725 714 q 958 778 869 778 q 1201 679 1112 778 q 1291 411 1291 581 l 1291 350 l 717 350 q 794 153 725 220 q 987 85 863 85 q 1126 103 1058 85 q 1261 157 1194 121 l 1261 39 q 1123 -5 1194 10 q 981 -20 1053 -20 q 783 21 867 -20 q 647 143 699 62 q 524 21 597 62 q 354 -20 451 -20 q 155 44 226 -20 q 83 221 83 107 q 169 414 83 349 q 425 479 255 479 l 600 479 l 600 492 q 544 625 600 578 q 385 672 487 672 q 258 656 319 672 q 139 610 196 641 l 139 725 q 272 765 208 751 q 397 778 336 778 q 566 745 494 778 q 675 653 638 713 m 476 382 q 267 347 325 382 q 208 229 208 313 q 252 124 208 163 q 371 85 296 85 q 537 158 475 85 q 600 354 600 232 l 600 382 l 476 382 z "},"Ǥ":{"ha":1076,"x_min":78,"x_max":1044,"o":"m 962 529 l 962 327 l 1044 327 l 1044 267 l 962 267 l 962 94 q 787 9 883 38 q 583 -20 692 -20 q 212 119 346 -20 q 78 505 78 258 q 212 892 78 753 q 583 1031 346 1031 q 771 1006 682 1031 q 936 935 861 982 l 936 789 q 774 886 860 853 q 595 918 689 918 q 316 814 409 918 q 222 505 222 711 q 316 197 222 300 q 595 93 409 93 q 724 105 667 93 q 827 144 781 118 l 827 267 l 655 267 l 655 327 l 827 327 l 827 416 l 603 416 l 603 529 l 962 529 z "},"ǥ":{"ha":882,"x_min":77,"x_max":864,"o":"m 631 389 q 575 599 631 524 q 418 673 519 673 q 261 599 317 673 q 205 389 205 524 q 261 179 205 254 q 418 104 317 104 q 575 179 519 104 q 631 389 631 254 m 755 94 q 743 -40 755 20 l 864 -40 l 864 -87 l 730 -87 q 669 -194 709 -151 q 406 -289 583 -289 q 281 -279 340 -289 q 168 -249 223 -269 l 168 -127 q 277 -172 223 -157 q 386 -186 330 -186 q 570 -121 509 -186 q 595 -87 584 -106 l 164 -87 l 164 -40 l 616 -40 q 631 72 631 8 l 631 134 q 532 33 592 66 q 387 0 471 0 q 162 106 248 0 q 77 389 77 213 q 162 671 77 565 q 387 778 248 778 q 532 745 471 778 q 631 644 592 711 l 631 760 l 755 760 l 755 94 z "},"Ǧ":{"ha":1076,"x_min":78,"x_max":962,"o":"m 827 144 l 827 416 l 603 416 l 603 529 l 962 529 l 962 94 q 787 9 883 38 q 583 -20 692 -20 q 212 119 346 -20 q 78 505 78 258 q 212 892 78 753 q 583 1031 346 1031 q 771 1006 682 1031 q 936 935 861 982 l 936 789 q 774 886 860 853 q 595 918 689 918 q 316 814 409 918 q 222 505 222 711 q 316 197 222 300 q 595 93 409 93 q 724 105 667 93 q 827 144 781 118 m 507 1109 l 364 1289 l 458 1289 l 571 1168 l 684 1289 l 778 1289 l 635 1109 l 507 1109 z "},"ǧ":{"ha":882,"x_min":77,"x_max":755,"o":"m 347 854 l 181 1109 l 275 1109 l 397 943 l 519 1109 l 614 1109 l 448 854 l 347 854 m 631 389 q 575 599 631 524 q 418 673 519 673 q 261 599 317 673 q 205 389 205 524 q 261 179 205 254 q 418 104 317 104 q 575 179 519 104 q 631 389 631 254 m 755 94 q 669 -194 755 -100 q 406 -289 583 -289 q 281 -279 340 -289 q 168 -249 223 -269 l 168 -127 q 277 -172 223 -157 q 386 -186 330 -186 q 570 -122 509 -186 q 631 72 631 -58 l 631 134 q 532 33 592 66 q 387 0 471 0 q 162 106 248 0 q 77 389 77 213 q 162 671 77 565 q 387 778 248 778 q 532 745 471 778 q 631 644 592 711 l 631 760 l 755 760 l 755 94 z "},"Ǩ":{"ha":911,"x_min":136,"x_max":940,"o":"m 393 1109 l 250 1289 l 345 1289 l 457 1168 l 570 1289 l 664 1289 l 521 1109 l 393 1109 m 136 1013 l 273 1013 l 273 585 l 728 1013 l 904 1013 l 401 541 l 940 0 l 760 0 l 273 488 l 273 0 l 136 0 l 136 1013 z "},"ǩ":{"ha":804,"x_min":-16,"x_max":800,"o":"m 126 1055 l 252 1055 l 252 432 l 624 760 l 783 760 l 380 404 l 800 0 l 637 0 l 252 371 l 252 0 l 126 0 l 126 1055 m 127 1109 l -16 1289 l 79 1289 l 191 1168 l 304 1289 l 398 1289 l 255 1109 l 127 1109 z "},"Ǫ":{"ha":1093,"x_min":78,"x_max":1015,"o":"m 507 0 l 588 0 q 543 -71 557 -41 q 528 -122 528 -101 q 547 -169 528 -153 q 602 -184 566 -184 q 645 -179 624 -184 q 687 -164 666 -174 l 687 -254 q 638 -264 661 -261 q 595 -268 615 -268 q 473 -238 512 -268 q 434 -146 434 -209 q 452 -78 434 -113 q 507 0 470 -42 m 547 920 q 310 808 398 920 q 222 505 222 697 q 310 203 222 314 q 547 92 398 92 q 784 203 696 92 q 871 505 871 314 q 784 808 871 697 q 547 920 696 920 m 547 1031 q 888 888 760 1031 q 1015 505 1015 745 q 888 123 1015 266 q 547 -20 760 -20 q 206 123 334 -20 q 78 505 78 265 q 206 888 78 745 q 547 1031 334 1031 z "},"ǫ":{"ha":850,"x_min":77,"x_max":774,"o":"m 385 0 l 466 0 q 421 -71 435 -41 q 406 -122 406 -101 q 425 -169 406 -153 q 480 -184 444 -184 q 523 -179 502 -184 q 565 -164 544 -174 l 565 -254 q 516 -264 539 -261 q 473 -268 493 -268 q 351 -238 390 -268 q 312 -146 312 -209 q 330 -78 312 -113 q 385 0 348 -42 m 425 672 q 267 594 325 672 q 208 379 208 515 q 266 164 208 243 q 425 86 324 86 q 583 165 525 86 q 642 379 642 243 q 583 593 642 514 q 425 672 525 672 m 425 778 q 681 672 588 778 q 774 379 774 566 q 681 86 774 193 q 425 -20 588 -20 q 169 86 262 -20 q 77 379 77 193 q 169 672 77 566 q 425 778 262 778 z "},"Ǭ":{"ha":1093,"x_min":78,"x_max":1015,"o":"m 345 1249 l 750 1249 l 750 1148 l 345 1148 l 345 1249 m 507 0 l 588 0 q 543 -71 557 -41 q 528 -122 528 -101 q 547 -169 528 -153 q 602 -184 566 -184 q 645 -179 624 -184 q 687 -164 666 -174 l 687 -254 q 638 -264 661 -261 q 595 -268 615 -268 q 473 -238 512 -268 q 434 -146 434 -209 q 452 -78 434 -113 q 507 0 470 -42 m 547 920 q 310 808 398 920 q 222 505 222 697 q 310 203 222 314 q 547 92 398 92 q 784 203 696 92 q 871 505 871 314 q 784 808 871 697 q 547 920 696 920 m 547 1031 q 888 888 760 1031 q 1015 505 1015 745 q 888 123 1015 266 q 547 -20 760 -20 q 206 123 334 -20 q 78 505 78 265 q 206 888 78 745 q 547 1031 334 1031 z "},"ǭ":{"ha":850,"x_min":77,"x_max":774,"o":"m 222 1034 l 628 1034 l 628 934 l 222 934 l 222 1034 m 385 0 l 466 0 q 421 -71 435 -41 q 406 -122 406 -101 q 425 -169 406 -153 q 480 -184 444 -184 q 523 -179 502 -184 q 565 -164 544 -174 l 565 -254 q 516 -264 539 -261 q 473 -268 493 -268 q 351 -238 390 -268 q 312 -146 312 -209 q 330 -78 312 -113 q 385 0 348 -42 m 425 672 q 267 594 325 672 q 208 379 208 515 q 266 164 208 243 q 425 86 324 86 q 583 165 525 86 q 642 379 642 243 q 583 593 642 514 q 425 672 525 672 m 425 778 q 681 672 588 778 q 774 379 774 566 q 681 86 774 193 q 425 -20 588 -20 q 169 86 262 -20 q 77 379 77 193 q 169 672 77 566 q 425 778 262 778 z "},"Ǯ":{"ha":925,"x_min":109,"x_max":863,"o":"m 412 1109 l 269 1289 l 363 1289 l 476 1168 l 589 1289 l 683 1289 l 540 1109 l 412 1109 m 461 73 q 659 123 591 73 q 726 271 726 174 q 664 412 726 362 q 489 462 601 462 l 371 462 l 371 565 l 632 897 l 109 897 l 109 1013 l 803 1013 l 803 908 l 524 576 q 683 538 596 576 q 808 435 749 509 q 863 271 863 365 q 760 39 863 122 q 467 -43 656 -43 q 301 -30 386 -43 q 125 7 216 -18 l 125 140 q 283 90 197 106 q 461 73 368 73 z "},"ǯ":{"ha":802,"x_min":60,"x_max":726,"o":"m 315 856 l 149 1111 l 243 1111 l 366 945 l 488 1111 l 582 1111 l 416 856 l 315 856 m 388 323 q 547 285 460 323 q 671 182 613 256 q 726 18 726 112 q 623 -214 726 -132 q 330 -296 520 -296 q 199 -283 267 -296 q 60 -245 132 -271 l 60 -113 q 184 -163 117 -146 q 326 -180 252 -180 q 522 -130 455 -180 q 590 18 590 -79 q 528 159 590 108 q 353 209 465 209 l 235 209 l 235 321 l 526 660 l 74 660 l 74 760 l 667 760 l 667 646 l 388 323 z "},"ǰ":{"ha":386,"x_min":-25,"x_max":415,"o":"m 149 856 l -18 1111 l 77 1111 l 199 945 l 321 1111 l 415 1111 l 249 856 l 149 856 m 131 760 l 256 760 l 256 -14 q 200 -224 256 -159 q 22 -289 145 -289 l -25 -289 l -25 -183 l 8 -183 q 105 -150 79 -183 q 131 -14 131 -117 l 131 760 z "},"Ǳ":{"ha":1975,"x_min":136,"x_max":1877,"o":"m 1066 1013 l 1862 1013 l 1862 908 l 1221 115 l 1877 115 l 1877 0 l 1050 0 l 1050 104 l 1691 897 l 1066 897 l 1066 1013 m 273 900 l 273 113 l 439 113 q 746 208 648 113 q 843 507 843 302 q 746 805 843 711 q 439 900 648 900 l 273 900 m 136 1013 l 418 1013 q 850 890 712 1013 q 987 507 987 768 q 849 123 987 245 q 418 0 711 0 l 136 0 l 136 1013 z "},"ǲ":{"ha":1804,"x_min":136,"x_max":1682,"o":"m 1089 760 l 1682 760 l 1682 646 l 1213 100 l 1682 100 l 1682 0 l 1072 0 l 1072 114 l 1541 660 l 1089 660 l 1089 760 m 273 900 l 273 113 l 439 113 q 746 208 648 113 q 843 507 843 302 q 746 805 843 711 q 439 900 648 900 l 273 900 m 136 1013 l 418 1013 q 850 890 712 1013 q 987 507 987 768 q 849 123 987 245 q 418 0 711 0 l 136 0 l 136 1013 z "},"ǳ":{"ha":1603,"x_min":77,"x_max":1487,"o":"m 895 760 l 1487 760 l 1487 646 l 1018 100 l 1487 100 l 1487 0 l 878 0 l 878 114 l 1347 660 l 895 660 l 895 760 m 631 644 l 631 1055 l 755 1055 l 755 0 l 631 0 l 631 114 q 531 13 591 46 q 387 -20 471 -20 q 163 90 250 -20 q 77 379 77 200 q 163 668 77 558 q 387 778 250 778 q 531 745 471 778 q 631 644 591 712 m 205 379 q 262 163 205 241 q 418 85 319 85 q 574 163 517 85 q 631 379 631 241 q 574 595 631 517 q 418 673 517 673 q 262 595 319 673 q 205 379 205 517 z "},"Ǵ":{"ha":1076,"x_min":78,"x_max":962,"o":"m 576 1289 l 702 1289 l 547 1109 l 444 1109 l 576 1289 m 827 144 l 827 416 l 603 416 l 603 529 l 962 529 l 962 94 q 787 9 883 38 q 583 -20 692 -20 q 212 119 346 -20 q 78 505 78 258 q 212 892 78 753 q 583 1031 346 1031 q 771 1006 682 1031 q 936 935 861 982 l 936 789 q 774 886 860 853 q 595 918 689 918 q 316 814 409 918 q 222 505 222 711 q 316 197 222 300 q 595 93 409 93 q 724 105 667 93 q 827 144 781 118 z "},"ǵ":{"ha":882,"x_min":77,"x_max":755,"o":"m 631 389 q 575 599 631 524 q 418 673 519 673 q 261 599 317 673 q 205 389 205 524 q 261 179 205 254 q 418 104 317 104 q 575 179 519 104 q 631 389 631 254 m 755 94 q 669 -194 755 -100 q 406 -289 583 -289 q 281 -279 340 -289 q 168 -249 223 -269 l 168 -127 q 277 -172 223 -157 q 386 -186 330 -186 q 570 -122 509 -186 q 631 72 631 -58 l 631 134 q 532 33 592 66 q 387 0 471 0 q 162 106 248 0 q 77 389 77 213 q 162 671 77 565 q 387 778 248 778 q 532 745 471 778 q 631 644 592 711 l 631 760 l 755 760 l 755 94 m 460 1109 l 595 1109 l 374 854 l 270 854 l 460 1109 z "},"Ƕ":{"ha":1546,"x_min":136,"x_max":1419,"o":"m 136 1013 l 273 1013 l 273 597 l 771 597 l 771 1013 l 908 1013 l 908 304 q 950 142 908 197 q 1095 89 991 90 q 1240 142 1196 89 q 1282 304 1282 193 l 1282 760 l 1419 760 l 1419 300 q 1352 62 1419 149 q 1095 -20 1286 -20 q 839 62 909 -20 q 771 300 771 142 l 771 482 l 273 482 l 273 0 l 136 0 l 136 1013 z "},"Ƿ":{"ha":947,"x_min":136,"x_max":869,"o":"m 273 106 l 273 -289 l 136 -289 l 136 1013 l 273 1013 l 273 887 q 410 995 311 936 q 622 1031 469 1031 q 812 949 756 1031 q 869 755 869 867 q 273 106 869 446 m 273 238 q 730 711 730 530 q 688 857 730 808 q 560 904 648 904 q 273 730 399 904 l 273 238 z "},"Ǹ":{"ha":1039,"x_min":136,"x_max":903,"o":"m 503 1288 l 635 1109 l 532 1109 l 376 1288 l 503 1288 m 136 1013 l 321 1013 l 770 165 l 770 1013 l 903 1013 l 903 0 l 718 0 l 269 847 l 269 0 l 136 0 l 136 1013 z "},"ǹ":{"ha":880,"x_min":126,"x_max":762,"o":"m 762 458 l 762 0 l 637 0 l 637 454 q 595 616 637 562 q 469 669 553 669 q 310 605 368 669 q 252 429 252 541 l 252 0 l 126 0 l 126 760 l 252 760 l 252 642 q 357 744 296 710 q 497 778 418 778 q 695 697 628 778 q 762 458 762 616 m 439 1109 l 630 856 l 526 856 l 305 1109 l 439 1109 z "},"Ǻ":{"ha":950,"x_min":11,"x_max":939,"o":"m 578 1103 q 548 1176 578 1145 q 475 1206 517 1206 q 402 1176 431 1206 q 372 1103 372 1147 q 402 1030 372 1060 q 475 1000 432 1000 q 548 1030 517 1000 q 578 1103 578 1060 m 475 878 l 290 374 l 660 374 l 475 878 m 372 947 q 310 1014 331 975 q 289 1103 289 1053 q 343 1235 289 1181 q 475 1289 397 1289 q 607 1235 552 1289 q 661 1103 661 1180 q 640 1015 661 1055 q 578 947 618 975 l 939 0 l 796 0 l 704 260 l 248 260 l 155 0 l 11 0 l 372 947 m 794 1293 l 920 1293 l 765 1114 l 661 1114 l 794 1293 z "},"ǻ":{"ha":851,"x_min":83,"x_max":844,"o":"m 476 382 q 267 347 325 382 q 208 229 208 313 q 252 124 208 163 q 371 85 296 85 q 537 158 475 85 q 600 354 600 232 l 600 382 l 476 382 m 725 433 l 725 0 l 600 0 l 600 115 q 494 13 557 46 q 338 -20 430 -20 q 152 46 221 -20 q 83 221 83 111 q 169 414 83 349 q 425 479 255 479 l 600 479 l 600 492 q 544 625 600 578 q 385 672 487 672 q 258 656 319 672 q 139 610 196 641 l 139 725 q 272 765 208 751 q 397 778 336 778 q 644 692 562 778 q 725 433 725 607 m 506 1034 q 476 1106 506 1076 q 403 1136 446 1136 q 329 1106 359 1136 q 300 1034 300 1077 q 329 960 300 989 q 403 930 359 930 q 476 960 446 930 q 506 1034 506 990 m 589 1034 q 535 901 589 956 q 403 847 481 847 q 271 901 325 847 q 217 1034 217 956 q 271 1165 217 1112 q 403 1219 325 1219 q 535 1165 481 1219 q 589 1034 589 1112 m 718 1293 l 844 1293 l 689 1114 l 585 1114 l 718 1293 z "},"Ǽ":{"ha":1353,"x_min":5,"x_max":1264,"o":"m 794 1289 l 920 1289 l 765 1109 l 661 1109 l 794 1289 m 1251 1013 l 1251 897 l 749 897 l 749 597 l 1231 597 l 1231 482 l 749 482 l 749 115 l 1264 115 l 1264 0 l 611 0 l 611 260 l 253 260 l 144 0 l 5 0 l 429 1013 l 1251 1013 m 524 905 l 300 374 l 611 374 l 611 905 l 524 905 z "},"ǽ":{"ha":1364,"x_min":83,"x_max":1291,"o":"m 1165 448 q 1108 611 1164 550 q 960 672 1053 672 q 793 613 856 672 q 721 447 730 554 l 1165 448 m 675 653 q 797 746 725 714 q 958 778 869 778 q 1201 679 1112 778 q 1291 411 1291 581 l 1291 350 l 717 350 q 794 153 725 220 q 987 85 863 85 q 1126 103 1058 85 q 1261 157 1194 121 l 1261 39 q 1123 -5 1194 10 q 981 -20 1053 -20 q 783 21 867 -20 q 647 143 699 62 q 524 21 597 62 q 354 -20 451 -20 q 155 44 226 -20 q 83 221 83 107 q 169 414 83 349 q 425 479 255 479 l 600 479 l 600 492 q 544 625 600 578 q 385 672 487 672 q 258 656 319 672 q 139 610 196 641 l 139 725 q 272 765 208 751 q 397 778 336 778 q 566 745 494 778 q 675 653 638 713 m 476 382 q 267 347 325 382 q 208 229 208 313 q 252 124 208 163 q 371 85 296 85 q 537 158 475 85 q 600 354 600 232 l 600 382 l 476 382 m 684 1109 l 819 1109 l 597 854 l 494 854 l 684 1109 z "},"Ǿ":{"ha":1093,"x_min":69,"x_max":1023,"o":"m 557 1289 l 682 1289 l 528 1109 l 424 1109 l 557 1289 m 818 754 l 332 180 q 428 114 374 137 q 547 92 483 92 q 784 203 696 92 q 871 505 871 314 q 858 644 871 581 q 818 754 844 706 m 762 831 q 666 897 721 874 q 547 920 612 920 q 310 808 398 920 q 222 505 222 697 q 236 366 222 429 q 275 256 249 302 l 762 831 m 184 149 q 105 307 132 218 q 78 505 78 397 q 206 888 78 745 q 547 1031 334 1031 q 710 1005 635 1031 q 844 928 785 979 l 954 1057 l 1023 997 l 908 863 q 988 703 961 793 q 1015 505 1015 612 q 888 123 1015 266 q 547 -20 760 -20 q 386 6 460 -20 q 249 82 311 31 l 139 -47 l 69 12 l 184 149 z "},"ǿ":{"ha":850,"x_min":49,"x_max":800,"o":"m 614 543 l 283 142 q 346 100 311 113 q 425 86 381 86 q 583 165 525 86 q 642 379 642 243 q 635 472 642 433 q 614 543 628 512 m 566 616 q 502 658 537 644 q 425 672 467 672 q 266 592 323 672 q 208 370 208 513 q 215 283 208 321 q 235 215 221 246 l 566 616 m 150 113 q 95 232 113 165 q 77 379 77 298 q 169 672 77 566 q 425 778 262 778 q 542 761 488 778 q 642 708 596 743 l 736 822 l 800 768 l 701 647 q 755 528 737 595 q 774 379 774 460 q 681 86 774 193 q 425 -20 588 -20 q 306 -2 360 -20 q 208 50 251 16 l 114 -64 l 49 -11 l 150 113 m 460 1109 l 595 1109 l 374 854 l 271 854 l 460 1109 z "},"Ȁ":{"ha":950,"x_min":11,"x_max":939,"o":"m 475 878 l 289 374 l 661 374 l 475 878 m 397 1013 l 553 1013 l 939 0 l 796 0 l 704 260 l 248 260 l 155 0 l 11 0 l 397 1013 m 334 1291 l 467 1112 l 363 1112 l 208 1291 l 334 1291 m 561 1291 l 694 1112 l 590 1112 l 435 1291 l 561 1291 z "},"ȁ":{"ha":851,"x_min":83,"x_max":725,"o":"m 287 1109 l 426 854 l 334 854 l 166 1109 l 287 1109 m 513 1109 l 642 854 l 549 854 l 398 1109 l 513 1109 m 476 382 q 267 347 325 382 q 208 229 208 313 q 252 124 208 163 q 371 85 296 85 q 537 158 475 85 q 600 354 600 232 l 600 382 l 476 382 m 725 433 l 725 0 l 600 0 l 600 115 q 494 13 557 46 q 338 -20 430 -20 q 152 46 221 -20 q 83 221 83 111 q 169 414 83 349 q 425 479 255 479 l 600 479 l 600 492 q 544 625 600 578 q 385 672 487 672 q 258 656 319 672 q 139 610 196 641 l 139 725 q 272 765 208 751 q 397 778 336 778 q 644 692 562 778 q 725 433 725 607 z "},"Ȃ":{"ha":950,"x_min":11,"x_max":939,"o":"m 475 878 l 289 374 l 661 374 l 475 878 m 397 1013 l 553 1013 l 939 0 l 796 0 l 704 260 l 248 260 l 155 0 l 11 0 l 397 1013 m 687 1088 l 607 1088 q 565 1144 598 1124 q 475 1163 531 1163 q 386 1144 419 1163 q 342 1088 353 1126 l 262 1088 q 323 1210 269 1168 q 475 1252 378 1252 q 626 1211 572 1252 q 687 1088 680 1169 z "},"ȃ":{"ha":851,"x_min":83,"x_max":725,"o":"m 623 896 l 543 896 q 502 972 535 947 q 410 998 469 998 q 319 972 352 998 q 278 896 287 947 l 198 896 q 258 1042 205 993 q 410 1090 312 1090 q 562 1042 509 1090 q 623 896 616 993 m 476 382 q 267 347 325 382 q 208 229 208 313 q 252 124 208 163 q 371 85 296 85 q 537 158 475 85 q 600 354 600 232 l 600 382 l 476 382 m 725 433 l 725 0 l 600 0 l 600 115 q 494 13 557 46 q 338 -20 430 -20 q 152 46 221 -20 q 83 221 83 111 q 169 414 83 349 q 425 479 255 479 l 600 479 l 600 492 q 544 625 600 578 q 385 672 487 672 q 258 656 319 672 q 139 610 196 641 l 139 725 q 272 765 208 751 q 397 778 336 778 q 644 692 562 778 q 725 433 725 607 z "},"Ȅ":{"ha":878,"x_min":136,"x_max":789,"o":"m 136 1013 l 777 1013 l 777 897 l 273 897 l 273 597 l 755 597 l 755 482 l 273 482 l 273 115 l 789 115 l 789 0 l 136 0 l 136 1013 m 290 1291 l 423 1112 l 319 1112 l 165 1291 l 290 1291 m 517 1291 l 650 1112 l 547 1112 l 392 1291 l 517 1291 z "},"ȅ":{"ha":854,"x_min":77,"x_max":781,"o":"m 310 1109 l 449 854 l 357 854 l 189 1109 l 310 1109 m 536 1109 l 665 854 l 572 854 l 421 1109 l 536 1109 m 781 411 l 781 350 l 207 350 q 284 154 215 221 q 478 86 354 86 q 617 104 550 86 q 751 157 685 121 l 751 39 q 614 -5 684 10 q 471 -20 543 -20 q 183 86 289 -20 q 77 372 77 192 q 177 668 77 559 q 449 778 278 778 q 691 679 602 778 q 781 411 781 581 m 656 448 q 598 611 654 550 q 450 672 543 672 q 283 613 346 672 q 211 447 220 554 l 656 448 z "},"Ȇ":{"ha":878,"x_min":136,"x_max":789,"o":"m 136 1013 l 777 1013 l 777 897 l 273 897 l 273 597 l 755 597 l 755 482 l 273 482 l 273 115 l 789 115 l 789 0 l 136 0 l 136 1013 m 672 1088 l 592 1088 q 550 1144 583 1124 q 460 1163 516 1163 q 371 1144 404 1163 q 328 1088 338 1126 l 248 1088 q 309 1210 254 1168 q 460 1252 363 1252 q 611 1211 557 1252 q 672 1088 665 1169 z "},"ȇ":{"ha":854,"x_min":77,"x_max":781,"o":"m 669 896 l 589 896 q 548 972 581 947 q 456 998 515 998 q 366 972 398 998 q 324 896 333 947 l 244 896 q 304 1042 251 993 q 456 1090 358 1090 q 608 1042 555 1090 q 669 896 662 993 m 781 411 l 781 350 l 207 350 q 284 154 215 221 q 478 86 354 86 q 617 104 550 86 q 751 157 685 121 l 751 39 q 614 -5 684 10 q 471 -20 543 -20 q 183 86 289 -20 q 77 372 77 192 q 177 668 77 559 q 449 778 278 778 q 691 679 602 778 q 781 411 781 581 m 656 448 q 598 611 654 550 q 450 672 543 672 q 283 613 346 672 q 211 447 220 554 l 656 448 z "},"Ȉ":{"ha":410,"x_min":-60,"x_max":425,"o":"m 136 1013 l 273 1013 l 273 0 l 136 0 l 136 1013 m 65 1291 l 198 1112 l 94 1112 l -60 1291 l 65 1291 m 292 1291 l 425 1112 l 321 1112 l 167 1291 l 292 1291 z "},"ȉ":{"ha":386,"x_min":-41,"x_max":435,"o":"m 79 1109 l 218 854 l 127 854 l -41 1109 l 79 1109 m 306 1109 l 435 854 l 342 854 l 191 1109 l 306 1109 m 131 760 l 256 760 l 256 0 l 131 0 l 131 760 m 193 778 z "},"Ȋ":{"ha":410,"x_min":3,"x_max":428,"o":"m 136 1013 l 273 1013 l 273 0 l 136 0 l 136 1013 m 428 1088 l 348 1088 q 306 1144 339 1124 q 216 1163 272 1163 q 127 1144 160 1163 q 83 1088 94 1126 l 3 1088 q 64 1210 10 1168 q 216 1252 119 1252 q 367 1211 313 1252 q 428 1088 421 1169 z "},"ȋ":{"ha":386,"x_min":-20,"x_max":405,"o":"m 405 896 l 325 896 q 284 972 317 947 q 193 998 252 998 q 102 972 134 998 q 60 896 69 947 l -20 896 q 41 1042 -13 993 q 193 1090 94 1090 q 345 1042 291 1090 q 405 896 398 993 m 131 760 l 256 760 l 256 0 l 131 0 l 131 760 m 193 778 z "},"Ȍ":{"ha":1093,"x_min":78,"x_max":1015,"o":"m 547 920 q 310 808 398 920 q 222 505 222 697 q 310 203 222 314 q 547 92 398 92 q 784 203 696 92 q 871 505 871 314 q 784 808 871 697 q 547 920 696 920 m 547 1031 q 888 888 760 1031 q 1015 505 1015 745 q 888 123 1015 266 q 547 -20 760 -20 q 206 123 334 -20 q 78 505 78 265 q 206 888 78 745 q 547 1031 334 1031 m 396 1291 l 529 1112 l 425 1112 l 271 1291 l 396 1291 m 623 1291 l 756 1112 l 652 1112 l 498 1291 l 623 1291 z "},"ȍ":{"ha":850,"x_min":77,"x_max":774,"o":"m 292 1109 l 431 854 l 339 854 l 171 1109 l 292 1109 m 518 1109 l 647 854 l 554 854 l 403 1109 l 518 1109 m 425 672 q 267 594 325 672 q 208 379 208 515 q 266 164 208 243 q 425 86 324 86 q 583 165 525 86 q 642 379 642 243 q 583 593 642 514 q 425 672 525 672 m 425 778 q 681 672 588 778 q 774 379 774 566 q 681 86 774 193 q 425 -20 588 -20 q 169 86 262 -20 q 77 379 77 193 q 169 672 77 566 q 425 778 262 778 z "},"Ȏ":{"ha":1093,"x_min":78,"x_max":1015,"o":"m 547 920 q 310 808 398 920 q 222 505 222 697 q 310 203 222 314 q 547 92 398 92 q 784 203 696 92 q 871 505 871 314 q 784 808 871 697 q 547 920 696 920 m 547 1031 q 888 888 760 1031 q 1015 505 1015 745 q 888 123 1015 266 q 547 -20 760 -20 q 206 123 334 -20 q 78 505 78 265 q 206 888 78 745 q 547 1031 334 1031 m 752 1088 l 672 1088 q 630 1144 663 1124 q 540 1163 596 1163 q 451 1144 484 1163 q 408 1088 418 1126 l 328 1088 q 389 1210 334 1168 q 540 1252 443 1252 q 691 1211 637 1252 q 752 1088 745 1169 z "},"ȏ":{"ha":850,"x_min":77,"x_max":774,"o":"m 657 896 l 577 896 q 537 972 570 947 q 445 998 504 998 q 354 972 387 998 q 313 896 321 947 l 233 896 q 293 1042 239 993 q 445 1090 347 1090 q 597 1042 543 1090 q 657 896 650 993 m 425 672 q 267 594 325 672 q 208 379 208 515 q 266 164 208 243 q 425 86 324 86 q 583 165 525 86 q 642 379 642 243 q 583 593 642 514 q 425 672 525 672 m 425 778 q 681 672 588 778 q 774 379 774 566 q 681 86 774 193 q 425 -20 588 -20 q 169 86 262 -20 q 77 379 77 193 q 169 672 77 566 q 425 778 262 778 z "},"Ȑ":{"ha":965,"x_min":135,"x_max":925,"o":"m 616 475 q 702 411 661 460 q 786 277 744 362 l 925 0 l 778 0 l 648 260 q 551 395 598 361 q 422 428 504 428 l 273 428 l 273 0 l 136 0 l 136 1013 l 446 1013 q 705 940 619 1013 q 790 721 790 867 q 746 562 790 625 q 616 475 701 499 m 273 900 l 273 541 l 446 541 q 595 586 545 541 q 646 721 646 632 q 595 855 646 810 q 446 900 545 900 l 273 900 m 260 1291 l 393 1112 l 290 1112 l 135 1291 l 260 1291 m 488 1291 l 621 1112 l 517 1112 l 362 1291 l 488 1291 z "},"ȑ":{"ha":571,"x_min":88,"x_max":571,"o":"m 209 1109 l 348 854 l 256 854 l 88 1109 l 209 1109 m 435 1109 l 564 854 l 471 854 l 320 1109 l 435 1109 m 571 643 q 525 661 550 655 q 471 667 500 667 q 308 598 365 667 q 252 400 252 529 l 252 0 l 126 0 l 126 760 l 252 760 l 252 642 q 354 744 291 711 q 507 778 417 778 q 536 776 520 778 q 570 771 551 774 l 571 643 z "},"Ȓ":{"ha":965,"x_min":136,"x_max":925,"o":"m 616 475 q 702 411 661 460 q 786 277 744 362 l 925 0 l 778 0 l 648 260 q 551 395 598 361 q 422 428 504 428 l 273 428 l 273 0 l 136 0 l 136 1013 l 446 1013 q 705 940 619 1013 q 790 721 790 867 q 746 562 790 625 q 616 475 701 499 m 273 900 l 273 541 l 446 541 q 595 586 545 541 q 646 721 646 632 q 595 855 646 810 q 446 900 545 900 l 273 900 m 646 1088 l 566 1088 q 524 1144 557 1124 q 434 1163 490 1163 q 346 1144 378 1163 q 302 1088 313 1126 l 222 1088 q 283 1210 229 1168 q 434 1252 337 1252 q 586 1211 532 1252 q 646 1088 640 1169 z "},"ȓ":{"ha":571,"x_min":126,"x_max":585,"o":"m 585 896 l 505 896 q 464 972 497 947 q 372 998 431 998 q 281 972 314 998 q 240 896 249 947 l 160 896 q 220 1042 167 993 q 372 1090 274 1090 q 524 1042 471 1090 q 585 896 578 993 m 571 643 q 525 661 550 655 q 471 667 500 667 q 308 598 365 667 q 252 400 252 529 l 252 0 l 126 0 l 126 760 l 252 760 l 252 642 q 354 744 291 711 q 507 778 417 778 q 536 776 520 778 q 570 771 551 774 l 571 643 z "},"Ȕ":{"ha":1017,"x_min":121,"x_max":896,"o":"m 121 1013 l 258 1013 l 258 397 q 317 163 258 235 q 509 92 376 92 q 699 163 640 92 q 758 397 758 235 l 758 1013 l 896 1013 l 896 380 q 798 81 896 182 q 509 -20 700 -20 q 219 81 317 -20 q 121 380 121 182 l 121 1013 m 366 1291 l 499 1112 l 395 1112 l 241 1291 l 366 1291 m 593 1291 l 726 1112 l 623 1112 l 468 1291 l 593 1291 z "},"ȕ":{"ha":880,"x_min":118,"x_max":754,"o":"m 328 1109 l 467 854 l 375 854 l 207 1109 l 328 1109 m 554 1109 l 683 854 l 590 854 l 439 1109 l 554 1109 m 118 300 l 118 760 l 243 760 l 243 304 q 285 143 243 197 q 411 89 327 89 q 571 153 512 89 q 629 329 629 218 l 629 760 l 754 760 l 754 0 l 629 0 l 629 117 q 524 14 584 47 q 385 -20 464 -20 q 186 62 254 -20 q 118 300 118 143 m 432 778 z "},"Ȗ":{"ha":1017,"x_min":121,"x_max":896,"o":"m 121 1013 l 258 1013 l 258 397 q 317 163 258 235 q 509 92 376 92 q 699 163 640 92 q 758 397 758 235 l 758 1013 l 896 1013 l 896 380 q 798 81 896 182 q 509 -20 700 -20 q 219 81 317 -20 q 121 380 121 182 l 121 1013 m 720 1088 l 640 1088 q 597 1144 631 1124 q 507 1163 564 1163 q 419 1144 452 1163 q 375 1088 386 1126 l 295 1088 q 356 1210 302 1168 q 507 1252 410 1252 q 659 1211 605 1252 q 720 1088 713 1169 z "},"ȗ":{"ha":880,"x_min":118,"x_max":754,"o":"m 670 896 l 590 896 q 550 972 583 947 q 458 998 517 998 q 367 972 399 998 q 326 896 334 947 l 245 896 q 306 1042 252 993 q 458 1090 359 1090 q 610 1042 556 1090 q 670 896 663 993 m 118 300 l 118 760 l 243 760 l 243 304 q 285 143 243 197 q 411 89 327 89 q 571 153 512 89 q 629 329 629 218 l 629 760 l 754 760 l 754 0 l 629 0 l 629 117 q 524 14 584 47 q 385 -20 464 -20 q 186 62 254 -20 q 118 300 118 143 m 432 778 z "},"Ș":{"ha":882,"x_min":92,"x_max":804,"o":"m 381 -117 l 524 -117 l 413 -334 l 326 -334 l 381 -117 m 743 979 l 743 846 q 596 901 665 883 q 463 920 527 920 q 290 876 351 920 q 229 753 229 833 q 270 651 229 686 q 422 596 310 617 l 505 579 q 731 476 659 550 q 804 279 804 403 q 706 56 804 132 q 416 -20 607 -20 q 263 -3 345 -20 q 96 45 182 13 l 96 186 q 259 115 179 139 q 416 92 339 92 q 597 138 534 92 q 661 269 661 184 q 615 386 661 344 q 465 449 570 428 l 382 465 q 160 561 229 496 q 92 742 92 626 q 186 954 92 876 q 447 1031 281 1031 q 592 1018 518 1031 q 743 979 666 1005 z "},"ș":{"ha":724,"x_min":75,"x_max":656,"o":"m 331 -117 l 474 -117 l 363 -334 l 275 -334 l 331 -117 m 615 737 l 615 619 q 505 660 562 646 q 387 673 448 673 q 248 645 294 673 q 201 559 201 616 q 235 491 201 516 q 368 444 268 467 l 411 435 q 600 354 544 406 q 656 210 656 302 q 572 42 656 104 q 342 -20 488 -20 q 215 -8 281 -20 q 75 28 149 4 l 75 157 q 212 103 144 121 q 345 85 279 85 q 480 115 433 85 q 528 200 528 145 q 493 278 528 251 q 343 330 459 305 l 300 340 q 132 415 184 365 q 81 554 81 466 q 157 720 81 661 q 372 778 233 778 q 503 768 441 778 q 615 737 564 758 z "},"Ț":{"ha":848,"x_min":-4,"x_max":852,"o":"m 357 -117 l 500 -117 l 389 -334 l 302 -334 l 357 -117 m -4 1013 l 852 1013 l 852 897 l 493 897 l 493 0 l 355 0 l 355 897 l -4 897 l -4 1013 z "},"ț":{"ha":545,"x_min":37,"x_max":511,"o":"m 301 -117 l 444 -117 l 333 -334 l 245 -334 l 301 -117 m 254 975 l 254 760 l 511 760 l 511 663 l 254 663 l 254 250 q 280 131 254 157 q 383 104 305 104 l 511 104 l 511 0 l 383 0 q 184 54 239 0 q 129 250 129 108 l 129 663 l 37 663 l 37 760 l 129 760 l 129 975 l 254 975 z "},"Ȝ":{"ha":871,"x_min":106,"x_max":772,"o":"m 564 457 q 772 213 772 412 q 735 67 772 137 q 634 -57 697 -3 q 485 -157 572 -111 q 304 -236 398 -203 q 106 -292 210 -269 l 106 -183 q 345 -98 241 -146 q 511 1 448 -51 q 605 106 574 53 q 636 213 636 159 q 594 326 636 281 q 475 371 551 371 q 333 336 411 371 l 222 288 l 222 404 l 391 475 q 466 515 431 493 q 536 571 500 537 q 592 651 571 604 q 612 754 612 699 q 601 821 612 791 q 570 867 589 850 q 526 896 551 884 q 476 911 500 907 q 426 916 452 916 q 136 791 301 916 l 136 920 q 438 1031 298 1031 q 596 1002 527 1031 q 707 911 665 972 q 749 762 749 849 q 741 687 749 722 q 713 614 733 652 q 656 536 694 576 q 564 457 619 497 z "},"ȝ":{"ha":724,"x_min":48,"x_max":648,"o":"m 460 313 q 546 284 508 307 q 605 231 584 261 q 637 170 626 200 q 648 115 648 140 q 626 18 648 64 q 567 -66 604 -29 q 479 -135 530 -102 q 374 -192 427 -168 q 260 -236 321 -216 q 149 -270 199 -257 q 48 -294 98 -283 l 48 -205 q 241 -142 158 -174 q 378 -78 324 -109 q 465 -14 431 -47 q 512 50 498 19 q 526 115 526 81 q 486 213 526 175 q 382 251 446 251 q 300 234 342 251 l 153 176 l 153 270 l 304 328 q 350 347 328 336 q 401 378 372 358 q 452 422 431 399 q 489 480 473 446 q 504 553 504 515 q 493 607 504 583 q 466 645 483 631 q 427 668 450 659 q 382 681 404 677 q 336 684 360 684 q 233 664 290 684 q 76 583 176 644 l 76 688 q 347 778 256 778 q 486 754 423 778 q 587 680 548 730 q 627 565 627 631 q 592 438 627 490 q 460 313 557 387 z "},"Ȟ":{"ha":1044,"x_min":136,"x_max":908,"o":"m 460 1109 l 317 1289 l 411 1289 l 524 1168 l 636 1289 l 730 1289 l 587 1109 l 460 1109 m 136 1013 l 273 1013 l 273 597 l 771 597 l 771 1013 l 908 1013 l 908 0 l 771 0 l 771 482 l 273 482 l 273 0 l 136 0 l 136 1013 z "},"ȟ":{"ha":880,"x_min":-11,"x_max":762,"o":"m 132 1109 l -11 1289 l 83 1289 l 196 1168 l 309 1289 l 403 1289 l 260 1109 l 132 1109 m 762 458 l 762 0 l 637 0 l 637 454 q 595 616 637 562 q 469 669 553 669 q 310 605 368 669 q 252 429 252 541 l 252 0 l 126 0 l 126 1055 l 252 1055 l 252 642 q 357 744 296 710 q 497 778 418 778 q 695 697 628 778 q 762 458 762 616 z "},"Ƞ":{"ha":1021,"x_min":136,"x_max":885,"o":"m 749 607 q 696 825 749 753 q 541 897 644 897 q 346 811 419 897 q 273 574 273 724 l 273 0 l 136 0 l 136 1013 l 273 1013 l 273 849 q 397 986 328 941 q 573 1031 467 1031 q 806 923 727 1031 q 885 606 885 814 l 885 -289 l 749 -289 l 749 607 z "},"ȡ":{"ha":1164,"x_min":77,"x_max":1088,"o":"m 818 88 q 854 85 829 85 q 963 203 963 85 q 928 235 963 234 q 818 88 892 235 m 755 213 q 922 338 830 338 q 1088 198 1088 338 q 856 -20 1088 -20 q 770 -9 806 -20 q 731 -98 747 -58 l 598 -98 q 663 49 618 -51 q 631 114 631 90 q 532 14 591 46 q 387 -20 471 -20 q 163 90 250 -20 q 77 379 77 200 q 163 668 77 558 q 387 778 250 778 q 532 745 471 778 q 631 644 591 712 l 631 1055 l 755 1055 l 755 213 m 262 595 q 205 379 205 517 q 262 163 205 241 q 418 85 319 85 q 574 163 517 85 q 631 379 631 241 q 574 595 631 517 q 418 673 517 673 q 262 595 319 673 z "},"Ȣ":{"ha":970,"x_min":77,"x_max":893,"o":"m 485 481 q 288 429 360 481 q 216 285 216 376 q 288 141 216 193 q 485 89 360 89 q 682 141 610 89 q 755 285 755 194 q 683 429 755 376 q 485 481 611 481 m 446 854 q 300 810 357 852 q 242 715 242 768 q 307 619 242 668 q 485 589 347 589 q 663 633 599 589 q 728 769 728 677 q 677 905 728 876 q 515 963 603 958 l 515 1031 q 771 960 669 1031 q 865 768 865 895 q 808 621 865 682 q 647 539 750 561 q 828 449 764 516 q 893 285 893 382 q 787 59 893 138 q 485 -20 682 -20 q 182 59 288 -20 q 77 285 77 138 q 142 449 77 382 q 323 539 208 516 q 162 608 208 560 q 104 728 104 668 q 193 872 104 816 q 446 922 271 922 l 446 854 z "},"ȣ":{"ha":848,"x_min":77,"x_max":771,"o":"m 424 481 q 270 429 326 481 q 214 285 214 376 q 270 141 214 193 q 424 89 326 89 q 578 141 522 89 q 634 285 634 194 q 578 429 634 376 q 424 481 522 481 m 694 878 q 734 768 734 835 q 699 621 734 665 q 562 539 650 561 q 716 449 661 516 q 771 285 771 382 q 681 59 771 138 q 424 -20 591 -20 q 167 59 256 -20 q 77 285 77 138 q 132 449 77 382 q 287 539 188 516 q 149 621 189 563 q 114 768 114 672 q 157 878 114 829 l 266 878 q 237 755 237 834 q 286 633 237 677 q 424 589 335 589 q 562 633 512 589 q 612 755 612 677 q 582 878 612 836 l 694 878 z "},"Ȥ":{"ha":951,"x_min":62,"x_max":889,"o":"m 889 -14 q 782 -264 889 -210 q 656 -289 733 -289 l 484 -289 l 484 -183 l 642 -183 q 739 -151 713 -183 q 764 -14 764 -117 l 764 0 l 62 0 l 62 104 l 703 897 l 78 897 l 78 1013 l 873 1013 l 873 908 l 233 115 l 889 115 l 889 -14 z "},"ȥ":{"ha":729,"x_min":60,"x_max":669,"o":"m 669 -14 q 562 -264 669 -210 q 436 -289 513 -289 l 264 -289 l 264 -183 l 422 -183 q 519 -151 493 -183 q 545 -14 545 -117 l 545 0 l 60 0 l 60 114 l 529 660 l 77 660 l 77 760 l 669 760 l 669 646 l 200 100 l 669 100 l 669 -14 z "},"Ȧ":{"ha":950,"x_min":11,"x_max":939,"o":"m 406 1270 l 544 1270 l 544 1131 l 406 1131 l 406 1270 m 475 878 l 289 374 l 661 374 l 475 878 m 397 1013 l 553 1013 l 939 0 l 796 0 l 704 260 l 248 260 l 155 0 l 11 0 l 397 1013 z "},"ȧ":{"ha":851,"x_min":83,"x_max":725,"o":"m 334 1055 l 458 1055 l 458 897 l 334 897 l 334 1055 m 397 778 m 476 382 q 267 347 325 382 q 208 229 208 313 q 252 124 208 163 q 371 85 296 85 q 537 158 475 85 q 600 354 600 232 l 600 382 l 476 382 m 725 433 l 725 0 l 600 0 l 600 115 q 494 13 557 46 q 338 -20 430 -20 q 152 46 221 -20 q 83 221 83 111 q 169 414 83 349 q 425 479 255 479 l 600 479 l 600 492 q 544 625 600 578 q 385 672 487 672 q 258 656 319 672 q 139 610 196 641 l 139 725 q 272 765 208 751 q 397 778 336 778 q 644 692 562 778 q 725 433 725 607 z "},"Ȩ":{"ha":878,"x_min":136,"x_max":789,"o":"m 136 1013 l 777 1013 l 777 897 l 273 897 l 273 597 l 755 597 l 755 482 l 273 482 l 273 115 l 789 115 l 789 0 l 136 0 l 136 1013 m 514 0 q 570 -78 551 -42 q 588 -146 588 -113 q 547 -237 588 -206 q 427 -268 507 -268 q 366 -264 395 -268 q 307 -252 336 -260 l 307 -163 q 355 -179 330 -174 q 412 -184 380 -184 q 473 -168 452 -184 q 493 -121 493 -152 q 478 -71 493 -100 q 433 0 464 -41 l 514 0 z "},"ȩ":{"ha":854,"x_min":77,"x_max":781,"o":"m 781 411 l 781 350 l 207 350 q 284 154 215 221 q 478 86 354 86 q 617 104 550 86 q 751 157 685 121 l 751 39 q 614 -5 684 10 q 471 -20 543 -20 q 183 86 289 -20 q 77 372 77 192 q 177 668 77 559 q 449 778 278 778 q 691 679 602 778 q 781 411 781 581 m 656 448 q 598 611 654 550 q 450 672 543 672 q 283 613 346 672 q 211 447 220 554 l 656 448 m 488 0 q 543 -78 525 -42 q 562 -146 562 -113 q 521 -237 562 -206 q 400 -268 480 -268 q 339 -264 369 -268 q 281 -252 310 -260 l 281 -163 q 329 -179 304 -174 q 386 -184 354 -184 q 446 -168 426 -184 q 467 -121 467 -152 q 452 -71 467 -100 q 407 0 437 -41 l 488 0 z "},"Ȫ":{"ha":1093,"x_min":78,"x_max":1015,"o":"m 547 920 q 310 808 398 920 q 222 505 222 697 q 310 203 222 314 q 547 92 398 92 q 784 203 696 92 q 871 505 871 314 q 784 808 871 697 q 547 920 696 920 m 547 1031 q 888 888 760 1031 q 1015 505 1015 745 q 888 123 1015 266 q 547 -20 760 -20 q 206 123 334 -20 q 78 505 78 265 q 206 888 78 745 q 547 1031 334 1031 z "},"ȫ":{"ha":850,"x_min":77,"x_max":774,"o":"m 425 672 q 267 594 325 672 q 208 379 208 515 q 266 164 208 243 q 425 86 324 86 q 583 165 525 86 q 642 379 642 243 q 583 593 642 514 q 425 672 525 672 m 425 778 q 681 672 588 778 q 774 379 774 566 q 681 86 774 193 q 425 -20 588 -20 q 169 86 262 -20 q 77 379 77 193 q 169 672 77 566 q 425 778 262 778 m 489 1053 l 627 1053 l 627 916 l 489 916 l 489 1053 m 224 1053 l 361 1053 l 361 916 l 224 916 l 224 1053 m 222 1249 l 628 1249 l 628 1148 l 222 1148 l 222 1249 z "},"Ȭ":{"ha":1093,"x_min":78,"x_max":1015,"o":"m 547 920 q 310 808 398 920 q 222 505 222 697 q 310 203 222 314 q 547 92 398 92 q 784 203 696 92 q 871 505 871 314 q 784 808 871 697 q 547 920 696 920 m 547 1031 q 888 888 760 1031 q 1015 505 1015 745 q 888 123 1015 266 q 547 -20 760 -20 q 206 123 334 -20 q 78 505 78 265 q 206 888 78 745 q 547 1031 334 1031 z "},"ȭ":{"ha":850,"x_min":77,"x_max":774,"o":"m 425 672 q 267 594 325 672 q 208 379 208 515 q 266 164 208 243 q 425 86 324 86 q 583 165 525 86 q 642 379 642 243 q 583 593 642 514 q 425 672 525 672 m 425 778 q 681 672 588 778 q 774 379 774 566 q 681 86 774 193 q 425 -20 588 -20 q 169 86 262 -20 q 77 379 77 193 q 169 672 77 566 q 425 778 262 778 z "},"Ȯ":{"ha":1093,"x_min":78,"x_max":1015,"o":"m 478 1270 l 616 1270 l 616 1131 l 478 1131 l 478 1270 m 547 920 q 310 808 398 920 q 222 505 222 697 q 310 203 222 314 q 547 92 398 92 q 784 203 696 92 q 871 505 871 314 q 784 808 871 697 q 547 920 696 920 m 547 1031 q 888 888 760 1031 q 1015 505 1015 745 q 888 123 1015 266 q 547 -20 760 -20 q 206 123 334 -20 q 78 505 78 265 q 206 888 78 745 q 547 1031 334 1031 z "},"ȯ":{"ha":850,"x_min":77,"x_max":774,"o":"m 361 1055 l 486 1055 l 486 897 l 361 897 l 361 1055 m 425 778 m 425 672 q 267 594 325 672 q 208 379 208 515 q 266 164 208 243 q 425 86 324 86 q 583 165 525 86 q 642 379 642 243 q 583 593 642 514 q 425 672 525 672 m 425 778 q 681 672 588 778 q 774 379 774 566 q 681 86 774 193 q 425 -20 588 -20 q 169 86 262 -20 q 77 379 77 193 q 169 672 77 566 q 425 778 262 778 z "},"Ȱ":{"ha":1093,"x_min":78,"x_max":1015,"o":"m 547 920 q 310 808 398 920 q 222 505 222 697 q 310 203 222 314 q 547 92 398 92 q 784 203 696 92 q 871 505 871 314 q 784 808 871 697 q 547 920 696 920 m 547 1031 q 888 888 760 1031 q 1015 505 1015 745 q 888 123 1015 266 q 547 -20 760 -20 q 206 123 334 -20 q 78 505 78 265 q 206 888 78 745 q 547 1031 334 1031 z "},"ȱ":{"ha":850,"x_min":77,"x_max":774,"o":"m 361 1055 l 486 1055 l 486 897 l 361 897 l 361 1055 m 425 778 m 425 672 q 267 594 325 672 q 208 379 208 515 q 266 164 208 243 q 425 86 324 86 q 583 165 525 86 q 642 379 642 243 q 583 593 642 514 q 425 672 525 672 m 425 778 q 681 672 588 778 q 774 379 774 566 q 681 86 774 193 q 425 -20 588 -20 q 169 86 262 -20 q 77 379 77 193 q 169 672 77 566 q 425 778 262 778 m 222 1249 l 628 1249 l 628 1148 l 222 1148 l 222 1249 z "},"Ȳ":{"ha":848,"x_min":-3,"x_max":851,"o":"m 222 1249 l 627 1249 l 627 1148 l 222 1148 l 222 1249 m -3 1013 l 144 1013 l 425 596 l 704 1013 l 851 1013 l 493 482 l 493 0 l 355 0 l 355 482 l -3 1013 z "},"ȳ":{"ha":822,"x_min":41,"x_max":781,"o":"m 208 1034 l 614 1034 l 614 934 l 208 934 l 208 1034 m 447 -71 q 344 -248 394 -206 q 210 -289 294 -289 l 110 -289 l 110 -184 l 183 -184 q 263 -160 235 -184 q 326 -45 292 -136 l 349 12 l 41 760 l 174 760 l 411 165 l 648 760 l 781 760 l 447 -71 z "},"ȴ":{"ha":659,"x_min":94,"x_max":583,"o":"m 313 88 q 350 85 325 85 q 458 203 458 85 q 423 235 458 234 q 313 88 388 235 m 251 213 q 418 338 326 338 q 583 198 583 338 q 351 -20 583 -20 q 266 -9 302 -20 q 227 -98 243 -58 l 94 -98 q 159 49 113 -51 q 126 151 125 90 l 126 1051 l 251 1051 l 251 213 z "},"ȵ":{"ha":1171,"x_min":126,"x_max":1095,"o":"m 825 88 q 861 85 836 85 q 970 203 970 85 q 935 235 970 234 q 825 88 899 235 m 762 213 q 929 338 837 338 q 1095 198 1095 338 q 863 -20 1095 -20 q 777 -9 813 -20 q 738 -98 754 -58 l 605 -98 q 670 49 625 -51 q 637 151 637 90 l 637 454 q 595 616 637 562 q 469 669 553 669 q 310 605 368 669 q 252 429 252 541 l 252 0 l 126 0 l 126 760 l 252 760 l 252 642 q 357 744 296 710 q 497 778 418 778 q 695 697 628 778 q 762 458 762 616 l 762 213 z "},"ȶ":{"ha":663,"x_min":37,"x_max":587,"o":"m 317 88 q 353 85 328 85 q 462 203 462 85 q 427 235 462 234 q 317 88 391 235 m 254 213 q 421 338 329 338 q 587 198 587 338 q 355 -20 587 -20 q 269 -9 305 -20 q 230 -98 246 -58 l 97 -98 q 162 49 117 -51 q 129 151 129 90 l 129 663 l 37 663 l 37 760 l 129 760 l 129 975 l 254 975 l 254 760 l 511 760 l 511 663 l 254 663 l 254 213 z "},"ȷ":{"ha":386,"x_min":-25,"x_max":256,"o":"m 131 760 l 256 760 l 256 -14 q 200 -224 256 -159 q 22 -289 145 -289 l -25 -289 l -25 -183 l 8 -183 q 105 -150 79 -183 q 131 -14 131 -117 l 131 760 z "},"ȸ":{"ha":1386,"x_min":77,"x_max":1310,"o":"m 262 595 q 205 379 205 517 q 262 163 205 241 q 418 85 319 85 q 574 163 517 85 q 631 379 631 241 q 574 595 631 517 q 418 673 517 673 q 262 595 319 673 m 387 778 q 631 644 553 778 l 631 1055 l 756 1055 l 756 644 q 999 778 833 778 q 1224 668 1137 778 q 1310 379 1310 558 q 1224 90 1310 200 q 999 -20 1137 -20 q 756 114 833 -20 l 756 0 l 631 0 l 631 114 q 387 -20 553 -20 q 163 90 250 -20 q 77 379 77 200 q 163 668 77 558 q 387 778 250 778 m 1124 163 q 1181 379 1181 241 q 1124 595 1181 517 q 968 673 1067 673 q 812 595 869 673 q 756 379 756 517 q 812 163 756 241 q 968 85 869 85 q 1124 163 1067 85 z "},"ȹ":{"ha":1386,"x_min":77,"x_max":1310,"o":"m 1124 163 q 1181 379 1181 241 q 1124 595 1181 517 q 968 673 1067 673 q 812 595 869 673 q 756 379 756 517 q 812 163 756 241 q 968 85 869 85 q 1124 163 1067 85 m 999 -20 q 756 114 833 -20 l 756 -289 l 631 -289 l 631 114 q 387 -20 553 -20 q 163 90 250 -20 q 77 379 77 200 q 163 668 77 558 q 387 778 250 778 q 631 644 553 778 l 631 760 l 756 760 l 756 644 q 999 778 833 778 q 1224 668 1137 778 q 1310 379 1310 558 q 1224 90 1310 200 q 999 -20 1137 -20 m 262 595 q 205 379 205 517 q 262 163 205 241 q 418 85 319 85 q 574 163 517 85 q 631 379 631 241 q 574 595 631 517 q 418 673 517 673 q 262 595 319 673 z "},"Ⱥ":{"ha":950,"x_min":-2,"x_max":952,"o":"m 397 1013 l 553 1013 l 644 774 l 883 1057 l 952 997 l 681 676 l 939 0 l 796 0 l 704 260 l 328 260 l 189 96 l 155 0 l 108 0 l 68 -47 l 12 0 l 11 0 l 12 1 l -2 12 l 30 50 l 397 1013 m 475 878 l 289 374 l 304 374 l 553 667 l 475 878 m 425 374 l 661 374 l 589 568 l 425 374 z "},"Ȼ":{"ha":970,"x_min":8,"x_max":962,"o":"m 77 -47 l 8 12 l 157 189 q 78 505 78 316 q 210 890 78 749 q 572 1031 342 1031 q 743 1006 663 1031 q 824 976 785 994 l 892 1057 l 962 997 l 895 917 l 895 790 q 830 842 863 819 l 301 216 q 315 199 307 208 q 581 93 407 93 q 747 125 669 93 q 895 221 825 157 l 895 78 q 742 5 823 29 q 572 -20 662 -20 q 216 115 347 -20 l 77 -47 m 254 303 l 748 886 l 747 886 q 581 918 669 918 q 315 812 407 918 q 222 505 222 706 q 254 303 222 388 z "},"ȼ":{"ha":764,"x_min":6,"x_max":758,"o":"m 71 -64 l 6 -11 l 134 145 q 77 379 77 241 q 179 671 77 565 q 458 778 281 778 q 571 766 516 778 q 633 749 602 760 l 693 822 l 758 768 l 677 671 l 677 614 q 644 631 661 623 l 267 174 q 275 163 271 168 q 464 86 342 86 q 571 100 518 86 q 677 144 625 115 l 677 29 q 570 -7 625 5 q 450 -20 513 -20 q 188 78 288 -20 l 71 -64 m 225 255 l 560 661 q 464 672 512 672 q 275 595 342 672 q 208 379 208 518 q 225 255 208 309 z "},"Ƚ":{"ha":774,"x_min":7,"x_max":766,"o":"m 136 1013 l 273 1013 l 273 572 l 403 572 l 403 475 l 273 475 l 273 115 l 766 115 l 766 0 l 136 0 l 136 475 l 7 475 l 7 572 l 136 572 l 136 1013 z "},"Ⱦ":{"ha":848,"x_min":-53,"x_max":901,"o":"m 852 939 l 852 897 l 817 897 l 493 515 l 493 0 l 355 0 l 355 352 l 17 -47 l -53 12 l 355 494 l 355 897 l -4 897 l -4 1013 l 794 1013 l 832 1057 l 901 997 l 852 939 m 493 657 l 696 897 l 493 897 l 493 657 z "},"ȿ":{"ha":724,"x_min":75,"x_max":711,"o":"m 528 200 q 494 278 528 251 q 343 330 459 305 l 300 340 q 132 415 184 365 q 81 554 81 466 q 157 720 81 661 q 372 778 233 778 q 503 768 441 778 q 615 737 564 758 l 615 619 q 505 660 562 646 q 387 673 448 673 q 248 645 294 673 q 201 559 201 616 q 235 491 201 516 q 368 444 268 467 l 411 435 q 600 354 545 405 q 656 210 656 302 q 572 42 656 104 q 424 -14 513 -1 l 532 -122 l 631 -208 q 711 -232 660 -232 l 711 -336 l 685 -336 q 551 -295 628 -336 q 442 -208 503 -269 l 281 -43 q 237 -12 261 -22 q 214 -8 226 -9 q 75 28 149 4 l 75 157 q 212 103 144 121 q 345 85 279 85 q 480 115 433 85 q 528 200 528 145 z "},"ɀ":{"ha":729,"x_min":60,"x_max":729,"o":"m 77 760 l 669 760 l 669 646 l 201 101 q 297 57 264 90 l 476 -122 l 576 -208 q 656 -232 604 -232 l 729 -232 l 729 -336 l 629 -336 q 495 -295 572 -336 q 387 -208 447 -269 l 226 -43 q 123 0 184 0 l 60 0 l 60 106 l 60 114 l 529 660 l 77 660 l 77 760 z "},"Ɂ":{"ha":838,"x_min":54,"x_max":790,"o":"m 446 408 l 419 408 l 419 0 l 282 0 l 282 521 l 446 521 q 593 570 541 521 q 646 711 646 619 q 593 851 646 803 q 446 900 541 900 l 273 900 q 167 886 227 900 q 54 842 108 871 l 54 965 q 273 1013 157 1013 l 446 1013 q 701 938 611 1013 q 790 711 790 863 q 700 487 790 565 q 446 408 610 408 z "},"ɂ":{"ha":665,"x_min":54,"x_max":618,"o":"m 205 286 l 273 286 q 421 335 369 286 q 473 476 473 385 q 422 616 473 572 q 273 665 364 665 q 165 650 224 665 q 54 607 107 636 l 54 730 q 273 778 157 778 q 528 703 444 778 q 618 476 618 625 q 546 254 618 332 q 342 176 474 176 l 342 0 l 205 0 l 205 286 z "},"Ƀ":{"ha":953,"x_min":7,"x_max":854,"o":"m 273 484 l 273 347 l 509 347 l 509 250 l 273 250 l 273 113 l 493 113 q 657 158 604 113 q 710 298 710 204 q 657 438 710 393 q 493 484 604 484 l 273 484 m 273 900 l 273 595 l 476 595 q 626 632 576 595 q 675 747 675 670 q 626 862 675 824 q 476 900 576 900 l 273 900 m 136 1013 l 486 1013 q 728 947 643 1013 q 812 762 812 882 q 769 614 812 669 q 642 546 726 559 q 799 455 743 524 q 854 283 854 387 q 762 74 854 148 q 500 0 670 0 l 136 0 l 136 250 l 7 250 l 7 347 l 136 347 l 136 1013 z "},"Ʉ":{"ha":1017,"x_min":8,"x_max":1008,"o":"m 121 1013 l 258 1013 l 258 593 l 758 593 l 758 1013 l 896 1013 l 896 593 l 1008 593 l 1008 482 l 896 482 l 896 380 q 798 81 896 182 q 509 -20 700 -20 q 219 81 317 -20 q 121 380 121 182 l 121 482 l 8 482 l 8 593 l 121 593 l 121 1013 m 758 482 l 258 482 l 258 397 q 317 163 258 235 q 509 92 376 92 q 699 163 640 92 q 758 397 758 235 l 758 482 z "},"Ʌ":{"ha":950,"x_min":11,"x_max":939,"o":"m 155 0 l 11 0 l 397 1013 l 553 1013 l 939 0 l 796 0 l 475 878 l 155 0 z "},"Ɇ":{"ha":878,"x_min":136,"x_max":789,"o":"m 646 1141 l 761 1141 l 717 1013 l 777 1013 l 777 897 l 677 897 l 575 597 l 755 597 l 755 482 l 536 482 l 410 115 l 789 115 l 789 0 l 371 0 l 327 -129 l 212 -129 l 256 0 l 136 0 l 136 1013 l 602 1013 l 646 1141 m 295 115 l 420 482 l 273 482 l 273 115 l 295 115 m 460 597 l 562 897 l 273 897 l 273 597 l 460 597 z "},"ɇ":{"ha":854,"x_min":77,"x_max":781,"o":"m 656 448 q 598 611 654 550 q 578 631 589 622 l 503 448 l 656 448 m 781 411 l 781 350 l 463 350 l 362 105 q 478 86 412 86 q 617 104 550 86 q 751 157 685 121 l 751 39 q 614 -5 684 10 q 471 -20 543 -20 q 320 3 387 -20 l 266 -129 l 151 -129 l 224 51 q 183 86 202 66 q 77 372 77 192 q 177 668 77 559 q 449 778 278 778 q 520 772 487 778 l 568 888 l 684 888 l 621 736 q 692 680 660 713 q 781 411 781 581 m 387 447 l 479 671 q 450 672 465 672 q 283 613 346 672 q 211 447 220 554 l 387 447 m 272 167 l 347 350 l 207 350 q 272 167 214 233 z "},"Ɉ":{"ha":410,"x_min":-72,"x_max":403,"o":"m 403 428 l 273 428 l 273 71 q 204 -195 273 -113 q -20 -278 134 -278 l -72 -278 l -72 -163 l -29 -163 q 99 -112 62 -163 q 136 71 136 -61 l 136 428 l 7 428 l 7 541 l 136 541 l 136 1013 l 273 1013 l 273 541 l 403 541 l 403 428 z "},"ɉ":{"ha":386,"x_min":-25,"x_max":366,"o":"m 131 760 l 256 760 l 256 418 l 366 418 l 366 307 l 256 307 l 256 -14 q 200 -224 256 -159 q 22 -289 145 -289 l -25 -289 l -25 -183 l 8 -183 q 105 -150 79 -183 q 131 -14 131 -117 l 131 307 l 8 307 l 8 418 l 131 418 l 131 760 m 131 1055 l 256 1055 l 256 897 l 131 897 l 131 1055 z "},"Ɋ":{"ha":1085,"x_min":78,"x_max":1161,"o":"m 816 855 l 816 1013 l 949 1013 l 949 71 q 986 -112 949 -61 q 1114 -163 1023 -163 l 1161 -163 l 1161 -278 l 1109 -278 q 885 -195 955 -278 q 816 71 816 -113 l 816 157 q 684 24 764 67 q 492 -20 604 -20 q 193 125 309 -20 q 78 506 78 270 q 193 887 78 742 q 492 1031 309 1031 q 684 988 604 1031 q 816 855 764 945 m 220 505 q 300 202 220 312 q 517 92 379 92 q 736 202 656 92 q 816 505 816 312 q 736 809 816 699 q 517 919 656 919 q 300 809 379 919 q 220 505 220 699 z "},"ɋ":{"ha":882,"x_min":77,"x_max":911,"o":"m 911 -289 l 864 -289 q 686 -224 741 -289 q 631 -14 631 -159 l 631 114 q 531 13 591 46 q 387 -20 471 -20 q 163 90 250 -20 q 77 379 77 200 q 163 668 77 558 q 387 778 250 778 q 531 745 471 778 q 631 644 591 712 l 631 760 l 755 760 l 755 -14 q 781 -150 755 -117 q 878 -183 807 -183 l 911 -183 l 911 -289 m 205 379 q 262 163 205 241 q 418 85 319 85 q 574 163 517 85 q 631 379 631 241 q 574 595 631 517 q 418 673 517 673 q 262 595 319 673 q 205 379 205 517 z "},"Ɍ":{"ha":965,"x_min":7,"x_max":925,"o":"m 616 475 q 702 411 661 460 q 786 277 744 362 l 925 0 l 778 0 l 648 260 q 551 395 598 361 q 422 428 504 428 l 273 428 l 273 0 l 136 0 l 136 428 l 7 428 l 7 541 l 136 541 l 136 1013 l 446 1013 q 705 940 619 1013 q 790 721 790 867 q 746 562 790 625 q 616 475 701 499 m 273 900 l 273 541 l 446 541 q 595 586 545 541 q 646 721 646 632 q 595 855 646 810 q 446 900 545 900 l 273 900 z "},"ɍ":{"ha":571,"x_min":9,"x_max":571,"o":"m 368 418 l 368 307 l 252 307 l 252 0 l 126 0 l 126 307 l 9 307 l 9 418 l 126 418 l 126 760 l 252 760 l 252 642 q 354 744 291 711 q 507 778 417 778 q 536 776 520 778 q 570 771 551 774 l 571 643 q 525 661 550 655 q 471 667 500 667 q 308 597 365 667 q 252 418 252 527 l 368 418 z "},"Ɏ":{"ha":848,"x_min":-7,"x_max":854,"o":"m -3 1013 l 144 1013 l 247 861 l 602 861 l 704 1013 l 851 1013 l 749 861 l 854 861 l 854 749 l 673 749 l 493 482 l 493 0 l 355 0 l 355 482 l 175 749 l -7 749 l -7 861 l 100 861 l -3 1013 m 528 749 l 322 749 l 425 596 l 528 749 z "},"ɏ":{"ha":822,"x_min":7,"x_max":817,"o":"m 447 -71 q 344 -248 394 -206 q 210 -289 294 -289 l 110 -289 l 110 -184 l 183 -184 q 263 -160 235 -184 q 326 -45 292 -136 l 349 12 l 210 350 l 7 350 l 7 447 l 170 447 l 41 760 l 174 760 l 298 447 l 524 447 l 648 760 l 781 760 l 655 447 l 817 447 l 817 350 l 616 350 l 447 -71 m 485 350 l 337 350 l 411 165 l 485 350 z "},"ɐ":{"ha":833,"x_min":118,"x_max":760,"o":"m 367 376 q 576 411 518 376 q 635 529 635 446 q 591 634 635 595 q 472 673 547 673 q 306 600 368 673 q 243 404 243 526 l 243 376 l 367 376 m 118 325 l 118 758 l 243 758 l 243 643 q 349 745 286 712 q 505 778 413 778 q 691 712 622 778 q 760 537 760 647 q 674 344 760 409 q 418 279 588 279 l 243 279 l 243 267 q 299 133 243 180 q 458 86 356 86 q 585 102 524 86 q 704 149 647 117 l 704 33 q 571 -6 635 7 q 446 -20 507 -20 q 199 66 281 -20 q 118 325 118 151 z "},"ɑ":{"ha":882,"x_min":77,"x_max":755,"o":"m 631 644 l 631 760 l 755 760 l 755 0 l 631 0 l 631 114 q 531 13 591 46 q 387 -20 471 -20 q 163 90 250 -20 q 77 379 77 200 q 163 668 77 558 q 387 778 250 778 q 531 745 471 778 q 631 644 591 712 m 205 379 q 262 163 205 241 q 418 85 319 85 q 574 163 517 85 q 631 379 631 241 q 574 595 631 517 q 418 673 517 673 q 262 595 319 673 q 205 379 205 517 z "},"ɒ":{"ha":882,"x_min":126,"x_max":805,"o":"m 676 379 q 620 595 676 517 q 464 673 563 673 q 308 595 365 673 q 251 379 251 517 q 308 163 251 241 q 464 85 365 85 q 620 163 563 85 q 676 379 676 241 m 251 644 q 350 745 290 712 q 494 778 410 778 q 719 668 632 778 q 805 379 805 558 q 719 90 805 200 q 494 -20 632 -20 q 350 13 410 -20 q 251 114 290 46 l 251 -1 l 126 -1 l 126 758 l 251 758 l 251 644 z "},"ɓ":{"ha":882,"x_min":126,"x_max":806,"o":"m 676 379 q 620 595 676 517 q 464 673 563 673 q 308 595 365 673 q 252 379 252 517 q 308 163 252 241 q 464 85 365 85 q 620 163 563 85 q 676 379 676 241 m 252 644 q 351 745 291 712 q 494 778 411 778 q 719 668 633 778 q 806 379 806 558 q 719 90 806 200 q 494 -20 633 -20 q 351 13 411 -20 q 252 114 291 46 l 252 0 l 126 0 l 126 780 q 187 984 126 912 q 359 1055 248 1055 l 532 1055 l 532 949 l 374 949 q 282 907 313 949 q 251 780 251 865 l 252 644 z "},"ɔ":{"ha":763,"x_min":86,"x_max":687,"o":"m 86 729 q 194 766 138 753 q 313 778 250 778 q 586 670 485 778 q 687 379 687 562 q 585 87 687 193 q 305 -20 483 -20 q 193 -8 248 -20 q 86 28 138 4 l 86 144 q 192 101 139 115 q 300 86 245 86 q 488 163 421 86 q 555 379 555 240 q 488 595 555 518 q 300 672 421 672 q 192 657 245 672 q 86 614 139 643 l 86 729 z "},"ɕ":{"ha":764,"x_min":77,"x_max":677,"o":"m 677 730 l 677 614 q 571 657 625 643 q 464 672 518 672 q 275 595 342 672 q 208 379 208 518 q 275 163 208 240 q 284 153 280 157 q 353 238 311 208 q 474 273 402 273 q 635 224 585 273 q 677 122 677 182 q 613 5 677 37 q 452 -22 557 -22 q 348 -11 397 -22 q 344 -96 344 -50 l 240 -96 q 248 30 240 -25 q 178 88 210 54 q 77 379 77 197 q 179 671 77 565 q 458 778 281 778 q 571 766 516 778 q 677 730 626 754 m 372 99 q 464 86 412 86 q 563 125 563 86 q 473 176 563 176 q 372 99 405 176 z "},"ɖ":{"ha":882,"x_min":77,"x_max":911,"o":"m 911 -289 l 864 -289 q 686 -224 741 -289 q 631 -14 631 -159 l 631 114 q 531 13 591 46 q 387 -20 471 -20 q 163 90 250 -20 q 77 379 77 200 q 163 668 77 558 q 387 778 250 778 q 531 745 471 778 q 631 644 591 712 l 631 1055 l 755 1055 l 755 -14 q 781 -150 755 -117 q 878 -183 807 -183 l 911 -183 l 911 -289 m 205 379 q 262 163 205 241 q 418 85 319 85 q 574 163 517 85 q 631 379 631 241 q 574 595 631 517 q 418 673 517 673 q 262 595 319 673 q 205 379 205 517 z "}}}
